<?xml version="1.0" encoding="utf-8"?>
<!-- Generator: Adobe Illustrator 18.1.0, SVG Export Plug-In . SVG Version: 6.00 Build 0)  -->
<!DOCTYPE svg PUBLIC "-//W3C//DTD SVG 1.1//EN" "http://www.w3.org/Graphics/SVG/1.1/DTD/svg11.dtd">
<svg version="1.1" xmlns="http://www.w3.org/2000/svg" xmlns:xlink="http://www.w3.org/1999/xlink" x="0px" y="0px"
	 viewBox="0 0 356.6 312" enable-background="new 0 0 356.6 312" xml:space="preserve">
<g id="Layer_1">
	<polygon fill="none" stroke="#B82265" points="354.9,18 193.8,297 32.7,18 	"/>
	<polygon fill="none" stroke="#83D2E4" points="323.9,35.5 162.8,314.5 1.7,35.5 	"/>
	<g>
		<rect x="2.2" y="3.6" fill="none" width="318.4" height="276.8"/>
		<path fill="none" stroke="#B82265" stroke-width="7.200000e-02" d="M2.2,3.6"/>
		<path fill="none" stroke="#B82265" stroke-width="7.200000e-02" d="M2.2,3.6"/>
		<line fill="none" stroke="#BDE2D3" stroke-width="0.288" x1="12.4" y1="4.8" x2="12.4" y2="22.4"/>
		<line fill="none" stroke="#BDE2D3" stroke-width="0.432" x1="19.3" y1="4.9" x2="19.3" y2="34.5"/>
		<line fill="none" stroke="#BDE2D3" stroke-width="0.432" x1="24.4" y1="4.8" x2="24.4" y2="43.1"/>
		<line fill="none" stroke="#BDE2D3" stroke-width="0.576" x1="7.8" y1="4.8" x2="7.8" y2="14.8"/>
		<line fill="none" stroke="#BDE2D3" stroke-width="0.432" x1="31" y1="4.8" x2="31" y2="54.9"/>
		<line fill="none" stroke="#BDE2D3" stroke-width="0.432" x1="36.8" y1="4.8" x2="36.8" y2="64.7"/>
		<line fill="none" stroke="#BDE2D3" stroke-width="0.432" x1="9.9" y1="4.8" x2="9.9" y2="18.4"/>
		<line fill="none" stroke="#BDE2D3" stroke-width="7.200000e-02" x1="13.4" y1="4.8" x2="13.4" y2="23.2"/>
		<line fill="none" stroke="#BDE2D3" stroke-width="7.200000e-02" x1="11.2" y1="4.8" x2="11.2" y2="19.9"/>
		<line fill="none" stroke="#BDE2D3" stroke-width="0.504" x1="14.7" y1="4.8" x2="14.7" y2="26.8"/>
		<line fill="none" stroke="#BDE2D3" stroke-width="7.200000e-02" x1="5.9" y1="4.8" x2="5.9" y2="10.2"/>
		<path fill="none" stroke="#B82265" stroke-width="7.200000e-02" d="M2.2,3.6"/>
		<line fill="none" stroke="#BDE2D3" stroke-width="7.200000e-02" x1="21.3" y1="4.8" x2="21.3" y2="36.9"/>
		<line fill="none" stroke="#BDE2D3" stroke-width="0.288" x1="22.6" y1="4.8" x2="22.6" y2="39.9"/>
		<line fill="none" stroke="#BDE2D3" stroke-width="7.200000e-02" x1="20.8" y1="4.8" x2="20.8" y2="36.1"/>
		<line fill="none" stroke="#BDE2D3" stroke-width="0.36" x1="26.2" y1="4.8" x2="26.2" y2="46"/>
		<line fill="none" stroke="#BDE2D3" stroke-width="0.576" x1="39.1" y1="4.8" x2="39.1" y2="69.2"/>
		<line fill="none" stroke="#BDE2D3" stroke-width="0.576" x1="34.7" y1="4.8" x2="34.7" y2="62.2"/>
		<line fill="none" stroke="#BDE2D3" stroke-width="0.36" x1="28.2" y1="4.8" x2="28.2" y2="49.9"/>
		<line fill="none" stroke="#BDE2D3" stroke-width="0.216" x1="32.6" y1="4.8" x2="32.6" y2="57.1"/>
		<line fill="none" stroke="#BDE2D3" stroke-width="7.200000e-02" x1="29.4" y1="4.8" x2="29.4" y2="51"/>
		<line fill="none" stroke="#BDE2D3" stroke-width="0.216" x1="40.9" y1="4.8" x2="40.9" y2="71.2"/>
		<line fill="none" stroke="#BDE2D3" stroke-width="0.216" x1="42.2" y1="4.8" x2="42.2" y2="73.7"/>
		<line fill="none" stroke="#BDE2D3" stroke-width="0.432" x1="46.8" y1="4.8" x2="46.8" y2="81.9"/>
		<line fill="none" stroke="#BDE2D3" stroke-width="0.432" x1="53.4" y1="4.8" x2="53.4" y2="93.1"/>
		<line fill="none" stroke="#BDE2D3" stroke-width="0.432" x1="59.2" y1="4.8" x2="59.2" y2="103.3"/>
		<line fill="none" stroke="#BDE2D3" stroke-width="7.200000e-02" x1="43.7" y1="4.8" x2="43.7" y2="75.4"/>
		<line fill="none" stroke="#BDE2D3" stroke-width="0.288" x1="45" y1="4.8" x2="45" y2="78.5"/>
		<line fill="none" stroke="#BDE2D3" stroke-width="7.200000e-02" x1="43.2" y1="4.8" x2="43.2" y2="74.7"/>
		<line fill="none" stroke="#BDE2D3" stroke-width="0.36" x1="48.6" y1="4.8" x2="48.6" y2="84.7"/>
		<line fill="none" stroke="#BDE2D3" stroke-width="0.576" x1="61.5" y1="4.8" x2="61.5" y2="108.1"/>
		<line fill="none" stroke="#BDE2D3" stroke-width="0.576" x1="57.1" y1="4.8" x2="57.1" y2="100.2"/>
		<line fill="none" stroke="#BDE2D3" stroke-width="0.36" x1="50.6" y1="4.8" x2="50.6" y2="88.1"/>
		<line fill="none" stroke="#BDE2D3" stroke-width="0.216" x1="55" y1="4.8" x2="55" y2="95.6"/>
		<line fill="none" stroke="#BDE2D3" stroke-width="7.200000e-02" x1="51.8" y1="5" x2="51.8" y2="89.8"/>
		<line fill="none" stroke="#BDE2D3" stroke-width="0.216" x1="63.3" y1="4.8" x2="63.3" y2="110.3"/>
		<line fill="none" stroke="#BDE2D3" stroke-width="0.216" x1="64.6" y1="4.8" x2="64.6" y2="112.6"/>
		<line fill="none" stroke="#BDE2D3" stroke-width="0.504" x1="17" y1="4.8" x2="17" y2="30.7"/>
		<line fill="none" stroke="#BDE2D3" stroke-width="0.432" x1="66.6" y1="4.8" x2="66.6" y2="116.8"/>
		<line fill="none" stroke="#BDE2D3" stroke-width="0.432" x1="72.5" y1="4.8" x2="72.5" y2="126.8"/>
		<line fill="none" stroke="#BDE2D3" stroke-width="0.576" x1="74.7" y1="4.8" x2="74.7" y2="131"/>
		<line fill="none" stroke="#BDE2D3" stroke-width="0.576" x1="70.4" y1="4.8" x2="70.4" y2="123.5"/>
		<line fill="none" stroke="#BDE2D3" stroke-width="0.216" x1="68.2" y1="4.8" x2="68.2" y2="119.3"/>
		<line fill="none" stroke="#BDE2D3" stroke-width="0.216" x1="76.5" y1="4.8" x2="76.5" y2="134.6"/>
		<line fill="none" stroke="#BDE2D3" stroke-width="0.216" x1="77.9" y1="4.8" x2="77.9" y2="136.5"/>
		<line fill="none" stroke="#BDE2D3" stroke-width="0.432" x1="82.5" y1="4.8" x2="82.5" y2="144.6"/>
		<line fill="none" stroke="#BDE2D3" stroke-width="0.432" x1="89" y1="5" x2="89" y2="156"/>
		<line fill="none" stroke="#BDE2D3" stroke-width="0.432" x1="94.9" y1="4.9" x2="94.9" y2="165.9"/>
		<line fill="none" stroke="#BDE2D3" stroke-width="7.200000e-02" x1="79.3" y1="4.9" x2="79.3" y2="139.1"/>
		<line fill="none" stroke="#BDE2D3" stroke-width="0.288" x1="80.6" y1="4.8" x2="80.6" y2="141.1"/>
		<line fill="none" stroke="#BDE2D3" stroke-width="7.200000e-02" x1="78.8" y1="4.9" x2="78.8" y2="138.3"/>
		<line fill="none" stroke="#BDE2D3" stroke-width="0.36" x1="84.2" y1="4.8" x2="84.2" y2="147.5"/>
		<line fill="none" stroke="#BDE2D3" stroke-width="0.576" x1="97.1" y1="4.9" x2="97.1" y2="169.5"/>
		<line fill="none" stroke="#BDE2D3" stroke-width="0.576" x1="92.8" y1="4.8" x2="92.8" y2="162.4"/>
		<line fill="none" stroke="#BDE2D3" stroke-width="0.36" x1="86.2" y1="4.9" x2="86.2" y2="150.9"/>
		<line fill="none" stroke="#BDE2D3" stroke-width="0.216" x1="90.6" y1="4.9" x2="90.6" y2="158.5"/>
		<line fill="none" stroke="#BDE2D3" stroke-width="7.200000e-02" x1="87.4" y1="4.9" x2="87.4" y2="152.8"/>
		<line fill="none" stroke="#BDE2D3" stroke-width="0.216" x1="98.9" y1="4.8" x2="98.9" y2="172.8"/>
		<line fill="none" stroke="#BDE2D3" stroke-width="0.216" x1="100.3" y1="4.8" x2="100.3" y2="175.2"/>
		<line fill="none" stroke="#BDE2D3" stroke-width="0.432" x1="102.5" y1="4.8" x2="102.5" y2="180.3"/>
		<line fill="none" stroke="#BDE2D3" stroke-width="0.576" x1="104.7" y1="4.8" x2="104.7" y2="182.9"/>
		<line fill="none" stroke="#BDE2D3" stroke-width="0.216" x1="106.5" y1="4.8" x2="106.5" y2="186"/>
		<line fill="none" stroke="#BDE2D3" stroke-width="0.216" x1="107.9" y1="4.8" x2="107.9" y2="188.4"/>
		<line fill="none" stroke="#BDE2D3" stroke-width="0.432" x1="112.5" y1="4.9" x2="112.5" y2="196.1"/>
		<line fill="none" stroke="#BDE2D3" stroke-width="0.432" x1="119" y1="4.8" x2="119" y2="207.7"/>
		<line fill="none" stroke="#BDE2D3" stroke-width="0.432" x1="124.9" y1="4.8" x2="124.9" y2="217.9"/>
		<line fill="none" stroke="#BDE2D3" stroke-width="7.200000e-02" x1="109.3" y1="4.8" x2="109.3" y2="190.7"/>
		<line fill="none" stroke="#BDE2D3" stroke-width="0.288" x1="110.6" y1="4.9" x2="110.6" y2="193"/>
		<line fill="none" stroke="#BDE2D3" stroke-width="7.200000e-02" x1="108.8" y1="4.8" x2="108.8" y2="190.2"/>
		<line fill="none" stroke="#BDE2D3" stroke-width="0.36" x1="114.2" y1="4.8" x2="114.2" y2="199.4"/>
		<line fill="none" stroke="#BDE2D3" stroke-width="0.576" x1="127.1" y1="4.8" x2="127.1" y2="221.9"/>
		<line fill="none" stroke="#BDE2D3" stroke-width="0.576" x1="122.8" y1="4.8" x2="122.8" y2="214.3"/>
		<line fill="none" stroke="#BDE2D3" stroke-width="0.36" x1="116.2" y1="4.8" x2="116.2" y2="202.1"/>
		<line fill="none" stroke="#BDE2D3" stroke-width="0.216" x1="120.6" y1="4.8" x2="120.6" y2="210.1"/>
		<line fill="none" stroke="#BDE2D3" stroke-width="7.200000e-02" x1="117.4" y1="4.8" x2="117.4" y2="204.8"/>
		<line fill="none" stroke="#BDE2D3" stroke-width="0.216" x1="128.9" y1="4.8" x2="128.9" y2="224.5"/>
		<line fill="none" stroke="#BDE2D3" stroke-width="0.216" x1="130.3" y1="4.8" x2="130.3" y2="227.1"/>
		<line fill="none" stroke="#BDE2D3" stroke-width="0.432" x1="132.3" y1="4.8" x2="132.3" y2="230.5"/>
		<line fill="none" stroke="#BDE2D3" stroke-width="0.432" x1="138.1" y1="4.8" x2="138.1" y2="240.7"/>
		<line fill="none" stroke="#BDE2D3" stroke-width="0.576" x1="140.3" y1="4.8" x2="140.3" y2="244.5"/>
		<line fill="none" stroke="#BDE2D3" stroke-width="0.576" x1="136" y1="4.8" x2="136" y2="237.1"/>
		<line fill="none" stroke="#BDE2D3" stroke-width="0.216" x1="133.9" y1="4.9" x2="133.9" y2="232.2"/>
		<line fill="none" stroke="#BDE2D3" stroke-width="0.216" x1="142.2" y1="4.9" x2="142.2" y2="247.6"/>
		<line fill="none" stroke="#BDE2D3" stroke-width="0.216" x1="143.5" y1="4.8" x2="143.5" y2="250"/>
		<line fill="none" stroke="#BDE2D3" stroke-width="0.432" x1="148.1" y1="4.8" x2="148.1" y2="257.9"/>
		<line fill="none" stroke="#BDE2D3" stroke-width="0.432" x1="154.7" y1="4.8" x2="154.7" y2="269.1"/>
		<line fill="none" stroke="#BDE2D3" stroke-width="0.432" x1="160.5" y1="4.8" x2="160.5" y2="279.5"/>
		<line fill="none" stroke="#BDE2D3" stroke-width="7.200000e-02" x1="145" y1="4.8" x2="145" y2="252.9"/>
		<line fill="none" stroke="#BDE2D3" stroke-width="0.288" x1="146.2" y1="4.8" x2="146.2" y2="254.8"/>
		<line fill="none" stroke="#BDE2D3" stroke-width="7.200000e-02" x1="144.4" y1="4.8" x2="144.4" y2="251.5"/>
		<line fill="none" stroke="#BDE2D3" stroke-width="0.36" x1="149.9" y1="4.9" x2="149.9" y2="261.1"/>
		<line fill="none" stroke="#BDE2D3" stroke-width="0.576" x1="162.7" y1="4.8" x2="162.7" y2="280.4"/>
		<line fill="none" stroke="#BDE2D3" stroke-width="0.576" x1="158.4" y1="4.9" x2="158.4" y2="276.2"/>
		<line fill="none" stroke="#BDE2D3" stroke-width="0.36" x1="151.8" y1="4.9" x2="151.8" y2="264.5"/>
		<line fill="none" stroke="#BDE2D3" stroke-width="0.216" x1="156.3" y1="4.9" x2="156.3" y2="272"/>
		<line fill="none" stroke="#BDE2D3" stroke-width="7.200000e-02" x1="153.1" y1="4.8" x2="153.1" y2="266.3"/>
		<line fill="none" stroke="#BDE2D3" stroke-width="0.216" x1="164.6" y1="4.8" x2="164.6" y2="275.9"/>
		<line fill="none" stroke="#BDE2D3" stroke-width="0.216" x1="165.9" y1="4.9" x2="165.9" y2="274.6"/>
		<line fill="none" stroke="#BDE2D3" stroke-width="0.432" x1="303.4" y1="4.9" x2="303.4" y2="34.5"/>
		<line fill="none" stroke="#BDE2D3" stroke-width="0.432" x1="298.3" y1="4.8" x2="298.3" y2="43.1"/>
		<line fill="none" stroke="#BDE2D3" stroke-width="0.432" x1="291.8" y1="4.8" x2="291.8" y2="54.9"/>
		<line fill="none" stroke="#BDE2D3" stroke-width="0.432" x1="285.9" y1="4.8" x2="285.9" y2="64.7"/>
		<line fill="none" stroke="#BDE2D3" stroke-width="7.200000e-02" x1="301.4" y1="4.8" x2="301.4" y2="36.9"/>
		<line fill="none" stroke="#BDE2D3" stroke-width="0.288" x1="300.2" y1="4.9" x2="300.2" y2="39.9"/>
		<line fill="none" stroke="#BDE2D3" stroke-width="7.200000e-02" x1="302" y1="4.8" x2="302" y2="36.1"/>
		<line fill="none" stroke="#BDE2D3" stroke-width="0.36" x1="296.6" y1="4.8" x2="296.6" y2="46"/>
		<line fill="none" stroke="#BDE2D3" stroke-width="0.576" x1="283.7" y1="4.9" x2="283.7" y2="69.2"/>
		<line fill="none" stroke="#BDE2D3" stroke-width="0.576" x1="288" y1="4.9" x2="288" y2="62.2"/>
		<line fill="none" stroke="#BDE2D3" stroke-width="0.36" x1="294.6" y1="4.9" x2="294.6" y2="49.9"/>
		<line fill="none" stroke="#BDE2D3" stroke-width="0.216" x1="290.2" y1="4.9" x2="290.2" y2="57.1"/>
		<line fill="none" stroke="#BDE2D3" stroke-width="7.200000e-02" x1="293.4" y1="4.8" x2="293.4" y2="51"/>
		<line fill="none" stroke="#BDE2D3" stroke-width="0.216" x1="281.9" y1="4.8" x2="281.9" y2="71.2"/>
		<line fill="none" stroke="#BDE2D3" stroke-width="0.216" x1="280.5" y1="4.9" x2="280.5" y2="73.7"/>
		<line fill="none" stroke="#BDE2D3" stroke-width="0.432" x1="275.9" y1="4.8" x2="275.9" y2="81.9"/>
		<line fill="none" stroke="#BDE2D3" stroke-width="0.432" x1="269.4" y1="4.8" x2="269.4" y2="93.1"/>
		<line fill="none" stroke="#BDE2D3" stroke-width="0.432" x1="263.5" y1="4.8" x2="263.5" y2="103.3"/>
		<line fill="none" stroke="#BDE2D3" stroke-width="7.200000e-02" x1="279" y1="4.9" x2="279" y2="75.4"/>
		<line fill="none" stroke="#BDE2D3" stroke-width="0.288" x1="277.8" y1="4.8" x2="277.8" y2="78.5"/>
		<line fill="none" stroke="#BDE2D3" stroke-width="7.200000e-02" x1="279.6" y1="4.9" x2="279.6" y2="74.7"/>
		<line fill="none" stroke="#BDE2D3" stroke-width="0.36" x1="274.2" y1="4.9" x2="274.2" y2="84.7"/>
		<line fill="none" stroke="#BDE2D3" stroke-width="0.576" x1="261.3" y1="4.9" x2="261.3" y2="108.1"/>
		<line fill="none" stroke="#BDE2D3" stroke-width="0.576" x1="265.6" y1="4.8" x2="265.6" y2="100.2"/>
		<line fill="none" stroke="#BDE2D3" stroke-width="0.36" x1="272.2" y1="4.8" x2="272.2" y2="88.1"/>
		<line fill="none" stroke="#BDE2D3" stroke-width="0.216" x1="267.8" y1="4.8" x2="267.8" y2="95.6"/>
		<line fill="none" stroke="#BDE2D3" stroke-width="7.200000e-02" x1="271" y1="4.8" x2="271" y2="89.8"/>
		<line fill="none" stroke="#BDE2D3" stroke-width="0.216" x1="259.5" y1="4.8" x2="259.5" y2="110.3"/>
		<line fill="none" stroke="#BDE2D3" stroke-width="0.216" x1="258.1" y1="4.9" x2="258.1" y2="112.6"/>
		<line fill="none" stroke="#BDE2D3" stroke-width="0.432" x1="256.1" y1="4.9" x2="256.1" y2="116.8"/>
		<line fill="none" stroke="#BDE2D3" stroke-width="0.432" x1="250.3" y1="4.9" x2="250.3" y2="126.8"/>
		<line fill="none" stroke="#BDE2D3" stroke-width="0.576" x1="248.1" y1="4.8" x2="248.1" y2="131"/>
		<line fill="none" stroke="#BDE2D3" stroke-width="0.576" x1="252.4" y1="4.8" x2="252.4" y2="123.5"/>
		<line fill="none" stroke="#BDE2D3" stroke-width="0.216" x1="254.5" y1="4.8" x2="254.5" y2="119.3"/>
		<line fill="none" stroke="#BDE2D3" stroke-width="0.216" x1="246.2" y1="4.8" x2="246.2" y2="134.6"/>
		<line fill="none" stroke="#BDE2D3" stroke-width="0.216" x1="244.9" y1="4.8" x2="244.9" y2="136.5"/>
		<line fill="none" stroke="#BDE2D3" stroke-width="0.432" x1="240.3" y1="4.9" x2="240.3" y2="144.6"/>
		<line fill="none" stroke="#BDE2D3" stroke-width="0.432" x1="233.7" y1="4.8" x2="233.7" y2="156"/>
		<line fill="none" stroke="#BDE2D3" stroke-width="0.432" x1="227.9" y1="4.9" x2="227.9" y2="165.8"/>
		<line fill="none" stroke="#BDE2D3" stroke-width="7.200000e-02" x1="243.4" y1="4.8" x2="243.4" y2="139.1"/>
		<line fill="none" stroke="#BDE2D3" stroke-width="0.288" x1="242.2" y1="4.9" x2="242.2" y2="141.1"/>
		<line fill="none" stroke="#BDE2D3" stroke-width="7.200000e-02" x1="243.9" y1="4.8" x2="243.9" y2="138.3"/>
		<line fill="none" stroke="#BDE2D3" stroke-width="0.36" x1="238.5" y1="4.9" x2="238.5" y2="147.5"/>
		<line fill="none" stroke="#BDE2D3" stroke-width="0.576" x1="225.7" y1="4.9" x2="225.7" y2="169.5"/>
		<line fill="none" stroke="#BDE2D3" stroke-width="0.576" x1="230" y1="4.9" x2="230" y2="162.4"/>
		<line fill="none" stroke="#BDE2D3" stroke-width="0.36" x1="236.5" y1="4.9" x2="236.5" y2="150.8"/>
		<line fill="none" stroke="#BDE2D3" stroke-width="0.216" x1="232.1" y1="4.9" x2="232.1" y2="158.5"/>
		<line fill="none" stroke="#BDE2D3" stroke-width="7.200000e-02" x1="235.3" y1="4.9" x2="235.3" y2="152.8"/>
		<line fill="none" stroke="#BDE2D3" stroke-width="0.216" x1="223.8" y1="4.8" x2="223.8" y2="172.8"/>
		<line fill="none" stroke="#BDE2D3" stroke-width="0.216" x1="222.5" y1="4.8" x2="222.5" y2="175.2"/>
		<line fill="none" stroke="#BDE2D3" stroke-width="0.432" x1="220.3" y1="4.8" x2="220.3" y2="180.3"/>
		<line fill="none" stroke="#BDE2D3" stroke-width="0.576" x1="218.1" y1="4.8" x2="218.1" y2="182.9"/>
		<line fill="none" stroke="#BDE2D3" stroke-width="0.216" x1="216.2" y1="4.9" x2="216.2" y2="186"/>
		<line fill="none" stroke="#BDE2D3" stroke-width="0.216" x1="214.9" y1="4.8" x2="214.9" y2="188.4"/>
		<line fill="none" stroke="#BDE2D3" stroke-width="0.432" x1="210.3" y1="4.9" x2="210.3" y2="196.1"/>
		<line fill="none" stroke="#BDE2D3" stroke-width="0.432" x1="203.7" y1="4.9" x2="203.7" y2="207.7"/>
		<line fill="none" stroke="#BDE2D3" stroke-width="0.432" x1="197.9" y1="4.8" x2="197.9" y2="217.9"/>
		<line fill="none" stroke="#BDE2D3" stroke-width="7.200000e-02" x1="213.4" y1="4.9" x2="213.4" y2="190.7"/>
		<line fill="none" stroke="#BDE2D3" stroke-width="0.288" x1="212.2" y1="4.9" x2="212.2" y2="193"/>
		<line fill="none" stroke="#BDE2D3" stroke-width="7.200000e-02" x1="213.9" y1="4.8" x2="213.9" y2="190.2"/>
		<line fill="none" stroke="#BDE2D3" stroke-width="0.36" x1="208.5" y1="4.9" x2="208.5" y2="199.4"/>
		<line fill="none" stroke="#BDE2D3" stroke-width="0.576" x1="195.7" y1="4.9" x2="195.7" y2="221.9"/>
		<line fill="none" stroke="#BDE2D3" stroke-width="0.576" x1="200" y1="4.9" x2="200" y2="214.3"/>
		<line fill="none" stroke="#BDE2D3" stroke-width="0.36" x1="206.5" y1="4.8" x2="206.5" y2="202.1"/>
		<line fill="none" stroke="#BDE2D3" stroke-width="0.216" x1="202.1" y1="4.9" x2="202.1" y2="210.1"/>
		<line fill="none" stroke="#BDE2D3" stroke-width="7.200000e-02" x1="205.3" y1="4.9" x2="205.3" y2="204.8"/>
		<line fill="none" stroke="#BDE2D3" stroke-width="0.216" x1="193.8" y1="4.8" x2="193.8" y2="224.5"/>
		<line fill="none" stroke="#BDE2D3" stroke-width="0.216" x1="192.5" y1="4.9" x2="192.5" y2="227.1"/>
		<line fill="none" stroke="#BDE2D3" stroke-width="0.432" x1="190.5" y1="4.8" x2="190.5" y2="230.5"/>
		<line fill="none" stroke="#BDE2D3" stroke-width="0.432" x1="184.7" y1="4.8" x2="184.7" y2="240.7"/>
		<line fill="none" stroke="#BDE2D3" stroke-width="0.576" x1="182.4" y1="4.8" x2="182.4" y2="244.5"/>
		<line fill="none" stroke="#BDE2D3" stroke-width="0.576" x1="186.7" y1="4.8" x2="186.7" y2="237.1"/>
		<line fill="none" stroke="#BDE2D3" stroke-width="0.216" x1="188.9" y1="4.9" x2="188.9" y2="232.2"/>
		<line fill="none" stroke="#BDE2D3" stroke-width="0.216" x1="180.6" y1="4.8" x2="180.6" y2="247.6"/>
		<line fill="none" stroke="#BDE2D3" stroke-width="0.216" x1="179.2" y1="4.8" x2="179.2" y2="250"/>
		<line fill="none" stroke="#BDE2D3" stroke-width="0.432" x1="174.7" y1="4.8" x2="174.7" y2="257.9"/>
		<line fill="none" stroke="#BDE2D3" stroke-width="0.432" x1="168.1" y1="4.8" x2="168.1" y2="269.1"/>
		<line fill="none" stroke="#BDE2D3" stroke-width="7.200000e-02" x1="177.8" y1="4.8" x2="177.8" y2="252.9"/>
		<line fill="none" stroke="#BDE2D3" stroke-width="0.288" x1="176.5" y1="4.9" x2="176.5" y2="254.8"/>
		<line fill="none" stroke="#BDE2D3" stroke-width="7.200000e-02" x1="178.3" y1="4.9" x2="178.3" y2="251.5"/>
		<line fill="none" stroke="#BDE2D3" stroke-width="0.36" x1="172.9" y1="4.9" x2="172.9" y2="261.1"/>
		<line fill="none" stroke="#BDE2D3" stroke-width="0.36" x1="170.9" y1="4.9" x2="170.9" y2="264.5"/>
		<line fill="none" stroke="#BDE2D3" stroke-width="7.200000e-02" x1="169.7" y1="4.8" x2="169.7" y2="266.3"/>
		<line fill="none" stroke="#BDE2D3" stroke-width="0.288" x1="314" y1="4.9" x2="314" y2="19"/>
		<line fill="none" stroke="#BDE2D3" stroke-width="0.432" x1="307.1" y1="4.9" x2="307.1" y2="28.6"/>
		<line fill="none" stroke="#BDE2D3" stroke-width="0.576" x1="318.7" y1="4.9" x2="318.7" y2="13"/>
		<line fill="none" stroke="#BDE2D3" stroke-width="0.432" x1="316.5" y1="4.9" x2="316.5" y2="15.8"/>
		<line fill="none" stroke="#BDE2D3" stroke-width="7.200000e-02" x1="313.1" y1="4.9" x2="313.1" y2="19.6"/>
		<line fill="none" stroke="#BDE2D3" stroke-width="7.200000e-02" x1="315.2" y1="4.9" x2="315.2" y2="17"/>
		<line fill="none" stroke="#BDE2D3" stroke-width="0.504" x1="311.7" y1="4.9" x2="311.7" y2="22.5"/>
		<line fill="none" stroke="#BDE2D3" stroke-width="7.200000e-02" x1="320.5" y1="4.8" x2="320.5" y2="9.4"/>
		<line fill="none" stroke="#BDE2D3" stroke-width="7.200000e-02" x1="305.1" y1="4.8" x2="305.1" y2="30.5"/>
		<line fill="none" stroke="#BDE2D3" stroke-width="7.200000e-02" x1="305.6" y1="4.9" x2="305.6" y2="29.9"/>
		<line fill="none" stroke="#BDE2D3" stroke-width="0.504" x1="309.4" y1="4.9" x2="309.4" y2="25.6"/>
		<path fill="none" stroke="#BDE2D3" stroke-width="0.432" d="M2.2,3.6"/>
		<line fill="none" stroke="#BDE2D3" stroke-width="0.288" x1="4.3" y1="4.8" x2="4.3" y2="8.9"/>
	</g>
</g>
<g id="Layer_2">
	<g>
		<path fill="none" stroke="#B82265" stroke-width="7.200000e-02" d="M-2403-699.9"/>
		<path fill="none" stroke="#B82265" stroke-width="7.200000e-02" d="M-2403-699.9"/>
		<line fill="none" stroke="#BDE2D3" stroke-width="0.288" x1="-2381.1" y1="-697.3" x2="-2381.1" y2="-659.5"/>
		<line fill="none" stroke="#BDE2D3" stroke-width="0.432" x1="-2366.2" y1="-697.2" x2="-2366.2" y2="-633.3"/>
		<line fill="none" stroke="#BDE2D3" stroke-width="0.432" x1="-2355.3" y1="-697.3" x2="-2355.3" y2="-615"/>
		<line fill="none" stroke="#BDE2D3" stroke-width="0.576" x1="-2391.1" y1="-697.3" x2="-2391.1" y2="-675.8"/>
		<line fill="none" stroke="#BDE2D3" stroke-width="0.432" x1="-2341.1" y1="-697.3" x2="-2341.1" y2="-589.6"/>
		<line fill="none" stroke="#BDE2D3" stroke-width="0.432" x1="-2328.6" y1="-697.3" x2="-2328.6" y2="-568.5"/>
		<line fill="none" stroke="#BDE2D3" stroke-width="0.432" x1="-2386.5" y1="-697.3" x2="-2386.5" y2="-668.1"/>
		<line fill="none" stroke="#BDE2D3" stroke-width="7.200000e-02" x1="-2379.1" y1="-697.3" x2="-2379.1" y2="-657.7"/>
		<line fill="none" stroke="#BDE2D3" stroke-width="7.200000e-02" x1="-2383.7" y1="-697.3" x2="-2383.7" y2="-664.9"/>
		<line fill="none" stroke="#BDE2D3" stroke-width="0.504" x1="-2376.2" y1="-697.3" x2="-2376.2" y2="-649.9"/>
		<line fill="none" stroke="#BDE2D3" stroke-width="7.200000e-02" x1="-2395.2" y1="-697.3" x2="-2395.2" y2="-685.6"/>
		<path fill="none" stroke="#B82265" stroke-width="7.200000e-02" d="M-2403-699.9"/>
		<line fill="none" stroke="#BDE2D3" stroke-width="7.200000e-02" x1="-2362" y1="-697.3" x2="-2362" y2="-628.2"/>
		<line fill="none" stroke="#BDE2D3" stroke-width="0.288" x1="-2359.3" y1="-697.3" x2="-2359.3" y2="-621.9"/>
		<line fill="none" stroke="#BDE2D3" stroke-width="7.200000e-02" x1="-2363.1" y1="-697.3" x2="-2363.1" y2="-629.9"/>
		<line fill="none" stroke="#BDE2D3" stroke-width="0.36" x1="-2351.4" y1="-697.3" x2="-2351.4" y2="-608.7"/>
		<line fill="none" stroke="#BDE2D3" stroke-width="0.576" x1="-2323.8" y1="-697.3" x2="-2323.8" y2="-558.8"/>
		<line fill="none" stroke="#BDE2D3" stroke-width="0.576" x1="-2333.1" y1="-697.3" x2="-2333.1" y2="-573.8"/>
		<line fill="none" stroke="#BDE2D3" stroke-width="0.36" x1="-2347.2" y1="-697.3" x2="-2347.2" y2="-600.4"/>
		<line fill="none" stroke="#BDE2D3" stroke-width="0.216" x1="-2337.7" y1="-697.3" x2="-2337.7" y2="-584.7"/>
		<line fill="none" stroke="#BDE2D3" stroke-width="7.200000e-02" x1="-2344.6" y1="-697.3" x2="-2344.6" y2="-598"/>
		<line fill="none" stroke="#BDE2D3" stroke-width="0.216" x1="-2319.8" y1="-697.3" x2="-2319.8" y2="-554.4"/>
		<line fill="none" stroke="#BDE2D3" stroke-width="0.216" x1="-2316.9" y1="-697.3" x2="-2316.9" y2="-549"/>
		<line fill="none" stroke="#BDE2D3" stroke-width="0.432" x1="-2307.1" y1="-697.3" x2="-2307.1" y2="-531.4"/>
		<line fill="none" stroke="#BDE2D3" stroke-width="0.432" x1="-2292.9" y1="-697.3" x2="-2292.9" y2="-507.2"/>
		<line fill="none" stroke="#BDE2D3" stroke-width="0.432" x1="-2280.4" y1="-697.3" x2="-2280.4" y2="-485.5"/>
		<line fill="none" stroke="#BDE2D3" stroke-width="7.200000e-02" x1="-2313.8" y1="-697.3" x2="-2313.8" y2="-545.4"/>
		<line fill="none" stroke="#BDE2D3" stroke-width="0.288" x1="-2311.1" y1="-697.3" x2="-2311.1" y2="-538.8"/>
		<line fill="none" stroke="#BDE2D3" stroke-width="7.200000e-02" x1="-2314.9" y1="-697.3" x2="-2314.9" y2="-547"/>
		<line fill="none" stroke="#BDE2D3" stroke-width="0.36" x1="-2303.2" y1="-697.3" x2="-2303.2" y2="-525.4"/>
		<line fill="none" stroke="#BDE2D3" stroke-width="0.576" x1="-2275.6" y1="-697.3" x2="-2275.6" y2="-475.1"/>
		<line fill="none" stroke="#BDE2D3" stroke-width="0.576" x1="-2284.9" y1="-697.3" x2="-2284.9" y2="-492"/>
		<line fill="none" stroke="#BDE2D3" stroke-width="0.36" x1="-2299" y1="-697.3" x2="-2299" y2="-518.2"/>
		<line fill="none" stroke="#BDE2D3" stroke-width="0.216" x1="-2289.5" y1="-697.3" x2="-2289.5" y2="-501.8"/>
		<line fill="none" stroke="#BDE2D3" stroke-width="7.200000e-02" x1="-2296.4" y1="-696.9" x2="-2296.4" y2="-514.5"/>
		<line fill="none" stroke="#BDE2D3" stroke-width="0.216" x1="-2271.6" y1="-697.3" x2="-2271.6" y2="-470.2"/>
		<line fill="none" stroke="#BDE2D3" stroke-width="0.216" x1="-2268.7" y1="-697.3" x2="-2268.7" y2="-465.4"/>
		<line fill="none" stroke="#BDE2D3" stroke-width="0.504" x1="-2371.2" y1="-697.3" x2="-2371.2" y2="-641.6"/>
		<line fill="none" stroke="#BDE2D3" stroke-width="0.432" x1="-2264.5" y1="-697.3" x2="-2264.5" y2="-456.2"/>
		<line fill="none" stroke="#BDE2D3" stroke-width="0.432" x1="-2251.9" y1="-697.3" x2="-2251.9" y2="-434.7"/>
		<line fill="none" stroke="#BDE2D3" stroke-width="0.576" x1="-2247.1" y1="-697.3" x2="-2247.1" y2="-425.7"/>
		<line fill="none" stroke="#BDE2D3" stroke-width="0.576" x1="-2256.4" y1="-697.3" x2="-2256.4" y2="-441.9"/>
		<line fill="none" stroke="#BDE2D3" stroke-width="0.216" x1="-2261" y1="-697.3" x2="-2261" y2="-450.8"/>
		<line fill="none" stroke="#BDE2D3" stroke-width="0.216" x1="-2243.2" y1="-697.3" x2="-2243.2" y2="-418"/>
		<line fill="none" stroke="#BDE2D3" stroke-width="0.216" x1="-2240.3" y1="-697.3" x2="-2240.3" y2="-413.9"/>
		<line fill="none" stroke="#BDE2D3" stroke-width="0.432" x1="-2230.4" y1="-697.3" x2="-2230.4" y2="-396.5"/>
		<line fill="none" stroke="#BDE2D3" stroke-width="0.432" x1="-2216.3" y1="-696.9" x2="-2216.3" y2="-372"/>
		<line fill="none" stroke="#BDE2D3" stroke-width="0.432" x1="-2203.7" y1="-697.2" x2="-2203.7" y2="-350.7"/>
		<line fill="none" stroke="#BDE2D3" stroke-width="7.200000e-02" x1="-2237.1" y1="-697.2" x2="-2237.1" y2="-408.3"/>
		<line fill="none" stroke="#BDE2D3" stroke-width="0.288" x1="-2234.4" y1="-697.3" x2="-2234.4" y2="-404"/>
		<line fill="none" stroke="#BDE2D3" stroke-width="7.200000e-02" x1="-2238.2" y1="-697.2" x2="-2238.2" y2="-410"/>
		<line fill="none" stroke="#BDE2D3" stroke-width="0.36" x1="-2226.6" y1="-697.3" x2="-2226.6" y2="-390.2"/>
		<line fill="none" stroke="#BDE2D3" stroke-width="0.576" x1="-2198.9" y1="-697.2" x2="-2198.9" y2="-343"/>
		<line fill="none" stroke="#BDE2D3" stroke-width="0.576" x1="-2208.2" y1="-697.2" x2="-2208.2" y2="-358.2"/>
		<line fill="none" stroke="#BDE2D3" stroke-width="0.36" x1="-2222.3" y1="-697" x2="-2222.3" y2="-382.9"/>
		<line fill="none" stroke="#BDE2D3" stroke-width="0.216" x1="-2212.8" y1="-697.1" x2="-2212.8" y2="-366.6"/>
		<line fill="none" stroke="#BDE2D3" stroke-width="7.200000e-02" x1="-2219.7" y1="-697.1" x2="-2219.7" y2="-378.8"/>
		<line fill="none" stroke="#BDE2D3" stroke-width="0.216" x1="-2195" y1="-697.3" x2="-2195" y2="-335.8"/>
		<line fill="none" stroke="#BDE2D3" stroke-width="0.216" x1="-2192.1" y1="-697.3" x2="-2192.1" y2="-330.8"/>
		<line fill="none" stroke="#BDE2D3" stroke-width="0.432" x1="-2187.4" y1="-697.3" x2="-2187.4" y2="-319.7"/>
		<line fill="none" stroke="#BDE2D3" stroke-width="0.576" x1="-2182.6" y1="-697.3" x2="-2182.6" y2="-314.1"/>
		<line fill="none" stroke="#BDE2D3" stroke-width="0.216" x1="-2178.6" y1="-697.3" x2="-2178.6" y2="-307.4"/>
		<line fill="none" stroke="#BDE2D3" stroke-width="0.216" x1="-2175.7" y1="-697.3" x2="-2175.7" y2="-302.2"/>
		<line fill="none" stroke="#BDE2D3" stroke-width="0.432" x1="-2165.8" y1="-697.2" x2="-2165.8" y2="-285.6"/>
		<line fill="none" stroke="#BDE2D3" stroke-width="0.432" x1="-2151.7" y1="-697.3" x2="-2151.7" y2="-260.8"/>
		<line fill="none" stroke="#BDE2D3" stroke-width="0.432" x1="-2139.2" y1="-697.3" x2="-2139.2" y2="-238.8"/>
		<line fill="none" stroke="#BDE2D3" stroke-width="7.200000e-02" x1="-2172.6" y1="-697.3" x2="-2172.6" y2="-297.3"/>
		<line fill="none" stroke="#BDE2D3" stroke-width="0.288" x1="-2169.9" y1="-697.2" x2="-2169.9" y2="-292.4"/>
		<line fill="none" stroke="#BDE2D3" stroke-width="7.200000e-02" x1="-2173.7" y1="-697.3" x2="-2173.7" y2="-298.4"/>
		<line fill="none" stroke="#BDE2D3" stroke-width="0.36" x1="-2162" y1="-697.3" x2="-2162" y2="-278.7"/>
		<line fill="none" stroke="#BDE2D3" stroke-width="0.576" x1="-2134.4" y1="-697.3" x2="-2134.4" y2="-230.3"/>
		<line fill="none" stroke="#BDE2D3" stroke-width="0.576" x1="-2143.6" y1="-697.3" x2="-2143.6" y2="-246.6"/>
		<line fill="none" stroke="#BDE2D3" stroke-width="0.36" x1="-2157.8" y1="-697.3" x2="-2157.8" y2="-272.9"/>
		<line fill="none" stroke="#BDE2D3" stroke-width="0.216" x1="-2148.3" y1="-697.3" x2="-2148.3" y2="-255.6"/>
		<line fill="none" stroke="#BDE2D3" stroke-width="7.200000e-02" x1="-2155.2" y1="-697.3" x2="-2155.2" y2="-267"/>
		<line fill="none" stroke="#BDE2D3" stroke-width="0.216" x1="-2130.4" y1="-697.3" x2="-2130.4" y2="-224.7"/>
		<line fill="none" stroke="#BDE2D3" stroke-width="0.216" x1="-2127.5" y1="-697.3" x2="-2127.5" y2="-219.1"/>
		<line fill="none" stroke="#BDE2D3" stroke-width="0.432" x1="-2123.3" y1="-697.3" x2="-2123.3" y2="-211.7"/>
		<line fill="none" stroke="#BDE2D3" stroke-width="0.432" x1="-2110.7" y1="-697.3" x2="-2110.7" y2="-189.7"/>
		<line fill="none" stroke="#BDE2D3" stroke-width="0.576" x1="-2105.9" y1="-697.3" x2="-2105.9" y2="-181.6"/>
		<line fill="none" stroke="#BDE2D3" stroke-width="0.576" x1="-2115.2" y1="-697.3" x2="-2115.2" y2="-197.5"/>
		<line fill="none" stroke="#BDE2D3" stroke-width="0.216" x1="-2119.8" y1="-697.2" x2="-2119.8" y2="-207.9"/>
		<line fill="none" stroke="#BDE2D3" stroke-width="0.216" x1="-2102" y1="-697.2" x2="-2102" y2="-174.9"/>
		<line fill="none" stroke="#BDE2D3" stroke-width="0.216" x1="-2099" y1="-697.3" x2="-2099" y2="-169.7"/>
		<line fill="none" stroke="#BDE2D3" stroke-width="0.432" x1="-2089.2" y1="-697.3" x2="-2089.2" y2="-152.7"/>
		<line fill="none" stroke="#BDE2D3" stroke-width="0.432" x1="-2075.1" y1="-697.3" x2="-2075.1" y2="-128.7"/>
		<line fill="none" stroke="#BDE2D3" stroke-width="0.432" x1="-2062.5" y1="-697.3" x2="-2062.5" y2="-106.3"/>
		<line fill="none" stroke="#BDE2D3" stroke-width="7.200000e-02" x1="-2095.9" y1="-697.3" x2="-2095.9" y2="-163.5"/>
		<line fill="none" stroke="#BDE2D3" stroke-width="0.288" x1="-2093.2" y1="-697.3" x2="-2093.2" y2="-159.4"/>
		<line fill="none" stroke="#BDE2D3" stroke-width="7.200000e-02" x1="-2097" y1="-697.3" x2="-2097" y2="-166.4"/>
		<line fill="none" stroke="#BDE2D3" stroke-width="0.36" x1="-2085.4" y1="-697.2" x2="-2085.4" y2="-145.8"/>
		<line fill="none" stroke="#BDE2D3" stroke-width="0.576" x1="-2057.7" y1="-697.3" x2="-2057.7" y2="-104.3"/>
		<line fill="none" stroke="#BDE2D3" stroke-width="0.576" x1="-2067" y1="-697.2" x2="-2067" y2="-113.3"/>
		<line fill="none" stroke="#BDE2D3" stroke-width="0.36" x1="-2081.1" y1="-697.2" x2="-2081.1" y2="-138.6"/>
		<line fill="none" stroke="#BDE2D3" stroke-width="0.216" x1="-2071.6" y1="-697.2" x2="-2071.6" y2="-122.5"/>
		<line fill="none" stroke="#BDE2D3" stroke-width="7.200000e-02" x1="-2078.5" y1="-697.3" x2="-2078.5" y2="-134.6"/>
		<line fill="none" stroke="#BDE2D3" stroke-width="0.216" x1="-2053.8" y1="-697.3" x2="-2053.8" y2="-114"/>
		<line fill="none" stroke="#BDE2D3" stroke-width="0.216" x1="-2050.8" y1="-697.2" x2="-2050.8" y2="-116.8"/>
		<line fill="none" stroke="#BDE2D3" stroke-width="0.432" x1="-1755" y1="-697.2" x2="-1755" y2="-633.3"/>
		<line fill="none" stroke="#BDE2D3" stroke-width="0.432" x1="-1765.9" y1="-697.3" x2="-1765.9" y2="-615"/>
		<line fill="none" stroke="#BDE2D3" stroke-width="0.432" x1="-1780.1" y1="-697.3" x2="-1780.1" y2="-589.6"/>
		<line fill="none" stroke="#BDE2D3" stroke-width="0.432" x1="-1792.6" y1="-697.3" x2="-1792.6" y2="-568.5"/>
		<line fill="none" stroke="#BDE2D3" stroke-width="7.200000e-02" x1="-1759.2" y1="-697.3" x2="-1759.2" y2="-628.2"/>
		<line fill="none" stroke="#BDE2D3" stroke-width="0.288" x1="-1761.9" y1="-697.2" x2="-1761.9" y2="-621.9"/>
		<line fill="none" stroke="#BDE2D3" stroke-width="7.200000e-02" x1="-1758.1" y1="-697.3" x2="-1758.1" y2="-629.9"/>
		<line fill="none" stroke="#BDE2D3" stroke-width="0.36" x1="-1769.8" y1="-697.3" x2="-1769.8" y2="-608.7"/>
		<line fill="none" stroke="#BDE2D3" stroke-width="0.576" x1="-1797.4" y1="-697.2" x2="-1797.4" y2="-558.8"/>
		<line fill="none" stroke="#BDE2D3" stroke-width="0.576" x1="-1788.1" y1="-697.2" x2="-1788.1" y2="-573.8"/>
		<line fill="none" stroke="#BDE2D3" stroke-width="0.36" x1="-1774" y1="-697.2" x2="-1774" y2="-600.4"/>
		<line fill="none" stroke="#BDE2D3" stroke-width="0.216" x1="-1783.5" y1="-697.2" x2="-1783.5" y2="-584.7"/>
		<line fill="none" stroke="#BDE2D3" stroke-width="7.200000e-02" x1="-1776.6" y1="-697.3" x2="-1776.6" y2="-598"/>
		<line fill="none" stroke="#BDE2D3" stroke-width="0.216" x1="-1801.4" y1="-697.3" x2="-1801.4" y2="-554.4"/>
		<line fill="none" stroke="#BDE2D3" stroke-width="0.216" x1="-1804.3" y1="-697.2" x2="-1804.3" y2="-549"/>
		<line fill="none" stroke="#BDE2D3" stroke-width="0.432" x1="-1814.1" y1="-697.3" x2="-1814.1" y2="-531.4"/>
		<line fill="none" stroke="#BDE2D3" stroke-width="0.432" x1="-1828.3" y1="-697.3" x2="-1828.3" y2="-507.2"/>
		<line fill="none" stroke="#BDE2D3" stroke-width="0.432" x1="-1840.8" y1="-697.3" x2="-1840.8" y2="-485.5"/>
		<line fill="none" stroke="#BDE2D3" stroke-width="7.200000e-02" x1="-1807.4" y1="-697.2" x2="-1807.4" y2="-545.4"/>
		<line fill="none" stroke="#BDE2D3" stroke-width="0.288" x1="-1810.1" y1="-697.3" x2="-1810.1" y2="-538.8"/>
		<line fill="none" stroke="#BDE2D3" stroke-width="7.200000e-02" x1="-1806.3" y1="-697.2" x2="-1806.3" y2="-547"/>
		<line fill="none" stroke="#BDE2D3" stroke-width="0.36" x1="-1817.9" y1="-697.2" x2="-1817.9" y2="-525.4"/>
		<line fill="none" stroke="#BDE2D3" stroke-width="0.576" x1="-1845.6" y1="-697.2" x2="-1845.6" y2="-475.1"/>
		<line fill="none" stroke="#BDE2D3" stroke-width="0.576" x1="-1836.3" y1="-697.3" x2="-1836.3" y2="-492"/>
		<line fill="none" stroke="#BDE2D3" stroke-width="0.36" x1="-1822.2" y1="-697.3" x2="-1822.2" y2="-518.2"/>
		<line fill="none" stroke="#BDE2D3" stroke-width="0.216" x1="-1831.7" y1="-697.3" x2="-1831.7" y2="-501.8"/>
		<line fill="none" stroke="#BDE2D3" stroke-width="7.200000e-02" x1="-1824.8" y1="-697.3" x2="-1824.8" y2="-514.5"/>
		<line fill="none" stroke="#BDE2D3" stroke-width="0.216" x1="-1849.6" y1="-697.3" x2="-1849.6" y2="-470.2"/>
		<line fill="none" stroke="#BDE2D3" stroke-width="0.216" x1="-1852.5" y1="-697.2" x2="-1852.5" y2="-465.4"/>
		<line fill="none" stroke="#BDE2D3" stroke-width="0.432" x1="-1856.7" y1="-697.2" x2="-1856.7" y2="-456.2"/>
		<line fill="none" stroke="#BDE2D3" stroke-width="0.432" x1="-1869.3" y1="-697.2" x2="-1869.3" y2="-434.7"/>
		<line fill="none" stroke="#BDE2D3" stroke-width="0.576" x1="-1874.1" y1="-697.3" x2="-1874.1" y2="-425.7"/>
		<line fill="none" stroke="#BDE2D3" stroke-width="0.576" x1="-1864.8" y1="-697.3" x2="-1864.8" y2="-441.9"/>
		<line fill="none" stroke="#BDE2D3" stroke-width="0.216" x1="-1860.2" y1="-697.3" x2="-1860.2" y2="-450.8"/>
		<line fill="none" stroke="#BDE2D3" stroke-width="0.216" x1="-1878" y1="-697.3" x2="-1878" y2="-418"/>
		<line fill="none" stroke="#BDE2D3" stroke-width="0.216" x1="-1880.9" y1="-697.3" x2="-1880.9" y2="-413.9"/>
		<line fill="none" stroke="#BDE2D3" stroke-width="0.432" x1="-1890.8" y1="-697.2" x2="-1890.8" y2="-396.5"/>
		<line fill="none" stroke="#BDE2D3" stroke-width="0.432" x1="-1904.9" y1="-697.3" x2="-1904.9" y2="-372"/>
		<line fill="none" stroke="#BDE2D3" stroke-width="0.432" x1="-1917.5" y1="-697.2" x2="-1917.5" y2="-350.8"/>
		<line fill="none" stroke="#BDE2D3" stroke-width="7.200000e-02" x1="-1884.1" y1="-697.3" x2="-1884.1" y2="-408.3"/>
		<line fill="none" stroke="#BDE2D3" stroke-width="0.288" x1="-1886.8" y1="-697.2" x2="-1886.8" y2="-404"/>
		<line fill="none" stroke="#BDE2D3" stroke-width="7.200000e-02" x1="-1883" y1="-697.3" x2="-1883" y2="-410"/>
		<line fill="none" stroke="#BDE2D3" stroke-width="0.36" x1="-1894.6" y1="-697.2" x2="-1894.6" y2="-390.2"/>
		<line fill="none" stroke="#BDE2D3" stroke-width="0.576" x1="-1922.3" y1="-697.2" x2="-1922.3" y2="-343"/>
		<line fill="none" stroke="#BDE2D3" stroke-width="0.576" x1="-1913" y1="-697.2" x2="-1913" y2="-358.3"/>
		<line fill="none" stroke="#BDE2D3" stroke-width="0.36" x1="-1898.9" y1="-697.2" x2="-1898.9" y2="-383.1"/>
		<line fill="none" stroke="#BDE2D3" stroke-width="0.216" x1="-1908.4" y1="-697.2" x2="-1908.4" y2="-366.6"/>
		<line fill="none" stroke="#BDE2D3" stroke-width="7.200000e-02" x1="-1901.5" y1="-697.2" x2="-1901.5" y2="-378.9"/>
		<line fill="none" stroke="#BDE2D3" stroke-width="0.216" x1="-1926.2" y1="-697.3" x2="-1926.2" y2="-335.8"/>
		<line fill="none" stroke="#BDE2D3" stroke-width="0.216" x1="-1929.1" y1="-697.3" x2="-1929.1" y2="-330.8"/>
		<line fill="none" stroke="#BDE2D3" stroke-width="0.432" x1="-1933.8" y1="-697.3" x2="-1933.8" y2="-319.7"/>
		<line fill="none" stroke="#BDE2D3" stroke-width="0.576" x1="-1938.6" y1="-697.3" x2="-1938.6" y2="-314.1"/>
		<line fill="none" stroke="#BDE2D3" stroke-width="0.216" x1="-1942.6" y1="-697.2" x2="-1942.6" y2="-307.4"/>
		<line fill="none" stroke="#BDE2D3" stroke-width="0.216" x1="-1945.5" y1="-697.3" x2="-1945.5" y2="-302.2"/>
		<line fill="none" stroke="#BDE2D3" stroke-width="0.432" x1="-1955.4" y1="-697.2" x2="-1955.4" y2="-285.6"/>
		<line fill="none" stroke="#BDE2D3" stroke-width="0.432" x1="-1969.5" y1="-697.2" x2="-1969.5" y2="-260.8"/>
		<line fill="none" stroke="#BDE2D3" stroke-width="0.432" x1="-1982" y1="-697.3" x2="-1982" y2="-238.8"/>
		<line fill="none" stroke="#BDE2D3" stroke-width="7.200000e-02" x1="-1948.6" y1="-697.2" x2="-1948.6" y2="-297.3"/>
		<line fill="none" stroke="#BDE2D3" stroke-width="0.288" x1="-1951.3" y1="-697.2" x2="-1951.3" y2="-292.4"/>
		<line fill="none" stroke="#BDE2D3" stroke-width="7.200000e-02" x1="-1947.5" y1="-697.3" x2="-1947.5" y2="-298.4"/>
		<line fill="none" stroke="#BDE2D3" stroke-width="0.36" x1="-1959.2" y1="-697.2" x2="-1959.2" y2="-278.7"/>
		<line fill="none" stroke="#BDE2D3" stroke-width="0.576" x1="-1986.8" y1="-697.2" x2="-1986.8" y2="-230.3"/>
		<line fill="none" stroke="#BDE2D3" stroke-width="0.576" x1="-1977.5" y1="-697.2" x2="-1977.5" y2="-246.6"/>
		<line fill="none" stroke="#BDE2D3" stroke-width="0.36" x1="-1963.4" y1="-697.3" x2="-1963.4" y2="-272.9"/>
		<line fill="none" stroke="#BDE2D3" stroke-width="0.216" x1="-1972.9" y1="-697.2" x2="-1972.9" y2="-255.6"/>
		<line fill="none" stroke="#BDE2D3" stroke-width="7.200000e-02" x1="-1966" y1="-697.2" x2="-1966" y2="-267"/>
		<line fill="none" stroke="#BDE2D3" stroke-width="0.216" x1="-1990.8" y1="-697.3" x2="-1990.8" y2="-224.7"/>
		<line fill="none" stroke="#BDE2D3" stroke-width="0.216" x1="-1993.7" y1="-697.2" x2="-1993.7" y2="-219.1"/>
		<line fill="none" stroke="#BDE2D3" stroke-width="0.432" x1="-1997.9" y1="-697.3" x2="-1997.9" y2="-211.7"/>
		<line fill="none" stroke="#BDE2D3" stroke-width="0.432" x1="-2010.5" y1="-697.3" x2="-2010.5" y2="-189.7"/>
		<line fill="none" stroke="#BDE2D3" stroke-width="0.576" x1="-2015.3" y1="-697.3" x2="-2015.3" y2="-181.6"/>
		<line fill="none" stroke="#BDE2D3" stroke-width="0.576" x1="-2006" y1="-697.3" x2="-2006" y2="-197.5"/>
		<line fill="none" stroke="#BDE2D3" stroke-width="0.216" x1="-2001.4" y1="-697.2" x2="-2001.4" y2="-207.9"/>
		<line fill="none" stroke="#BDE2D3" stroke-width="0.216" x1="-2019.2" y1="-697.3" x2="-2019.2" y2="-174.9"/>
		<line fill="none" stroke="#BDE2D3" stroke-width="0.216" x1="-2022.2" y1="-697.3" x2="-2022.2" y2="-169.7"/>
		<line fill="none" stroke="#BDE2D3" stroke-width="0.432" x1="-2032" y1="-697.3" x2="-2032" y2="-152.7"/>
		<line fill="none" stroke="#BDE2D3" stroke-width="0.432" x1="-2046.1" y1="-697.3" x2="-2046.1" y2="-128.7"/>
		<line fill="none" stroke="#BDE2D3" stroke-width="7.200000e-02" x1="-2025.3" y1="-697.3" x2="-2025.3" y2="-163.5"/>
		<line fill="none" stroke="#BDE2D3" stroke-width="0.288" x1="-2028" y1="-697.2" x2="-2028" y2="-159.4"/>
		<line fill="none" stroke="#BDE2D3" stroke-width="7.200000e-02" x1="-2024.2" y1="-697.2" x2="-2024.2" y2="-166.4"/>
		<line fill="none" stroke="#BDE2D3" stroke-width="0.36" x1="-2035.8" y1="-697.2" x2="-2035.8" y2="-145.8"/>
		<line fill="none" stroke="#BDE2D3" stroke-width="0.36" x1="-2040.1" y1="-697.2" x2="-2040.1" y2="-138.6"/>
		<line fill="none" stroke="#BDE2D3" stroke-width="7.200000e-02" x1="-2042.7" y1="-697.3" x2="-2042.7" y2="-134.6"/>
		<line fill="none" stroke="#BDE2D3" stroke-width="0.288" x1="-1732.2" y1="-697.2" x2="-1732.2" y2="-666.8"/>
		<line fill="none" stroke="#BDE2D3" stroke-width="0.432" x1="-1747" y1="-697.2" x2="-1747" y2="-646"/>
		<line fill="none" stroke="#BDE2D3" stroke-width="0.576" x1="-1722.2" y1="-697.2" x2="-1722.2" y2="-679.7"/>
		<line fill="none" stroke="#BDE2D3" stroke-width="0.432" x1="-1726.8" y1="-697.2" x2="-1726.8" y2="-673.5"/>
		<line fill="none" stroke="#BDE2D3" stroke-width="7.200000e-02" x1="-1734.2" y1="-697.2" x2="-1734.2" y2="-665.4"/>
		<line fill="none" stroke="#BDE2D3" stroke-width="7.200000e-02" x1="-1729.6" y1="-697.2" x2="-1729.6" y2="-671"/>
		<line fill="none" stroke="#BDE2D3" stroke-width="0.504" x1="-1737.1" y1="-697.2" x2="-1737.1" y2="-659.1"/>
		<line fill="none" stroke="#BDE2D3" stroke-width="7.200000e-02" x1="-1718.1" y1="-697.3" x2="-1718.1" y2="-687.5"/>
		<line fill="none" stroke="#BDE2D3" stroke-width="7.200000e-02" x1="-1751.3" y1="-697.3" x2="-1751.3" y2="-641.9"/>
		<line fill="none" stroke="#BDE2D3" stroke-width="7.200000e-02" x1="-1750.2" y1="-697.2" x2="-1750.2" y2="-643.3"/>
		<line fill="none" stroke="#BDE2D3" stroke-width="0.504" x1="-1742.1" y1="-697.2" x2="-1742.1" y2="-652.6"/>
		<path fill="none" stroke="#BDE2D3" stroke-width="0.432" d="M-2403-699.9"/>
		<line fill="none" stroke="#BDE2D3" stroke-width="0.288" x1="-2398.5" y1="-697.3" x2="-2398.5" y2="-688.5"/>
	</g>
</g>
</svg>
