<?xml version="1.0" encoding="utf-8"?>
<!-- Generator: Adobe Illustrator 18.1.0, SVG Export Plug-In . SVG Version: 6.00 Build 0)  -->
<!DOCTYPE svg PUBLIC "-//W3C//DTD SVG 1.1//EN" "http://www.w3.org/Graphics/SVG/1.1/DTD/svg11.dtd">
<svg version="1.1" xmlns="http://www.w3.org/2000/svg" xmlns:xlink="http://www.w3.org/1999/xlink" x="0px" y="0px"
	 viewBox="0 0 330 291" enable-background="new 0 0 330 291" xml:space="preserve">
<g id="Layer_1">
	<polygon fill="none" stroke="#BDE2D3" points="4.3,284.2 165.3,5.4 326.3,284.2 	"/>
</g>
<g id="Layer_2">
	<g>
		<path fill="none" stroke="#B82265" stroke-width="7.200000e-02" d="M-2612.6-712.1"/>
		<path fill="none" stroke="#B82265" stroke-width="7.200000e-02" d="M-2612.6-712.1"/>
		<line fill="none" stroke="#BDE2D3" stroke-width="0.288" x1="-2590.7" y1="-709.5" x2="-2590.7" y2="-671.7"/>
		<line fill="none" stroke="#BDE2D3" stroke-width="0.432" x1="-2575.8" y1="-709.4" x2="-2575.8" y2="-645.5"/>
		<line fill="none" stroke="#BDE2D3" stroke-width="0.432" x1="-2564.9" y1="-709.5" x2="-2564.9" y2="-627.2"/>
		<line fill="none" stroke="#BDE2D3" stroke-width="0.576" x1="-2600.7" y1="-709.5" x2="-2600.7" y2="-688"/>
		<line fill="none" stroke="#BDE2D3" stroke-width="0.432" x1="-2550.7" y1="-709.5" x2="-2550.7" y2="-601.8"/>
		<line fill="none" stroke="#BDE2D3" stroke-width="0.432" x1="-2538.2" y1="-709.5" x2="-2538.2" y2="-580.7"/>
		<line fill="none" stroke="#BDE2D3" stroke-width="0.432" x1="-2596.1" y1="-709.5" x2="-2596.1" y2="-680.2"/>
		<line fill="none" stroke="#BDE2D3" stroke-width="7.200000e-02" x1="-2588.7" y1="-709.5" x2="-2588.7" y2="-669.9"/>
		<line fill="none" stroke="#BDE2D3" stroke-width="7.200000e-02" x1="-2593.3" y1="-709.5" x2="-2593.3" y2="-677.1"/>
		<line fill="none" stroke="#BDE2D3" stroke-width="0.504" x1="-2585.8" y1="-709.5" x2="-2585.8" y2="-662.1"/>
		<line fill="none" stroke="#BDE2D3" stroke-width="7.200000e-02" x1="-2604.8" y1="-709.5" x2="-2604.8" y2="-697.8"/>
		<path fill="none" stroke="#B82265" stroke-width="7.200000e-02" d="M-2612.6-712.1"/>
		<line fill="none" stroke="#BDE2D3" stroke-width="7.200000e-02" x1="-2571.6" y1="-709.5" x2="-2571.6" y2="-640.3"/>
		<line fill="none" stroke="#BDE2D3" stroke-width="0.288" x1="-2568.9" y1="-709.5" x2="-2568.9" y2="-634"/>
		<line fill="none" stroke="#BDE2D3" stroke-width="7.200000e-02" x1="-2572.7" y1="-709.5" x2="-2572.7" y2="-642.1"/>
		<line fill="none" stroke="#BDE2D3" stroke-width="0.36" x1="-2561.1" y1="-709.5" x2="-2561.1" y2="-620.9"/>
		<line fill="none" stroke="#BDE2D3" stroke-width="0.576" x1="-2533.4" y1="-709.5" x2="-2533.4" y2="-571"/>
		<line fill="none" stroke="#BDE2D3" stroke-width="0.576" x1="-2542.7" y1="-709.5" x2="-2542.7" y2="-585.9"/>
		<line fill="none" stroke="#BDE2D3" stroke-width="0.36" x1="-2556.8" y1="-709.5" x2="-2556.8" y2="-612.5"/>
		<line fill="none" stroke="#BDE2D3" stroke-width="0.216" x1="-2547.3" y1="-709.5" x2="-2547.3" y2="-596.8"/>
		<line fill="none" stroke="#BDE2D3" stroke-width="7.200000e-02" x1="-2554.2" y1="-709.5" x2="-2554.2" y2="-610.1"/>
		<line fill="none" stroke="#BDE2D3" stroke-width="0.216" x1="-2529.4" y1="-709.5" x2="-2529.4" y2="-566.6"/>
		<line fill="none" stroke="#BDE2D3" stroke-width="0.216" x1="-2526.5" y1="-709.5" x2="-2526.5" y2="-561.2"/>
		<line fill="none" stroke="#BDE2D3" stroke-width="0.432" x1="-2516.7" y1="-709.5" x2="-2516.7" y2="-543.6"/>
		<line fill="none" stroke="#BDE2D3" stroke-width="0.432" x1="-2502.5" y1="-709.5" x2="-2502.5" y2="-519.4"/>
		<line fill="none" stroke="#BDE2D3" stroke-width="0.432" x1="-2490" y1="-709.5" x2="-2490" y2="-497.6"/>
		<line fill="none" stroke="#BDE2D3" stroke-width="7.200000e-02" x1="-2523.4" y1="-709.5" x2="-2523.4" y2="-557.6"/>
		<line fill="none" stroke="#BDE2D3" stroke-width="0.288" x1="-2520.7" y1="-709.5" x2="-2520.7" y2="-551"/>
		<line fill="none" stroke="#BDE2D3" stroke-width="7.200000e-02" x1="-2524.5" y1="-709.5" x2="-2524.5" y2="-559.2"/>
		<line fill="none" stroke="#BDE2D3" stroke-width="0.36" x1="-2512.9" y1="-709.5" x2="-2512.9" y2="-537.5"/>
		<line fill="none" stroke="#BDE2D3" stroke-width="0.576" x1="-2485.2" y1="-709.5" x2="-2485.2" y2="-487.2"/>
		<line fill="none" stroke="#BDE2D3" stroke-width="0.576" x1="-2494.5" y1="-709.5" x2="-2494.5" y2="-504.1"/>
		<line fill="none" stroke="#BDE2D3" stroke-width="0.36" x1="-2508.6" y1="-709.5" x2="-2508.6" y2="-530.3"/>
		<line fill="none" stroke="#BDE2D3" stroke-width="0.216" x1="-2499.1" y1="-709.5" x2="-2499.1" y2="-514"/>
		<line fill="none" stroke="#BDE2D3" stroke-width="7.200000e-02" x1="-2506" y1="-709.1" x2="-2506" y2="-526.7"/>
		<line fill="none" stroke="#BDE2D3" stroke-width="0.216" x1="-2481.2" y1="-709.5" x2="-2481.2" y2="-482.4"/>
		<line fill="none" stroke="#BDE2D3" stroke-width="0.216" x1="-2478.3" y1="-709.5" x2="-2478.3" y2="-477.6"/>
		<line fill="none" stroke="#BDE2D3" stroke-width="0.504" x1="-2580.8" y1="-709.5" x2="-2580.8" y2="-653.8"/>
		<line fill="none" stroke="#BDE2D3" stroke-width="0.432" x1="-2474.1" y1="-709.5" x2="-2474.1" y2="-468.4"/>
		<line fill="none" stroke="#BDE2D3" stroke-width="0.432" x1="-2461.5" y1="-709.5" x2="-2461.5" y2="-446.9"/>
		<line fill="none" stroke="#BDE2D3" stroke-width="0.576" x1="-2456.7" y1="-709.5" x2="-2456.7" y2="-437.9"/>
		<line fill="none" stroke="#BDE2D3" stroke-width="0.576" x1="-2466" y1="-709.5" x2="-2466" y2="-454.1"/>
		<line fill="none" stroke="#BDE2D3" stroke-width="0.216" x1="-2470.6" y1="-709.5" x2="-2470.6" y2="-463"/>
		<line fill="none" stroke="#BDE2D3" stroke-width="0.216" x1="-2452.8" y1="-709.5" x2="-2452.8" y2="-430.2"/>
		<line fill="none" stroke="#BDE2D3" stroke-width="0.216" x1="-2449.9" y1="-709.5" x2="-2449.9" y2="-426"/>
		<line fill="none" stroke="#BDE2D3" stroke-width="0.432" x1="-2440" y1="-709.5" x2="-2440" y2="-408.7"/>
		<line fill="none" stroke="#BDE2D3" stroke-width="0.432" x1="-2425.9" y1="-709.1" x2="-2425.9" y2="-384.1"/>
		<line fill="none" stroke="#BDE2D3" stroke-width="0.432" x1="-2413.3" y1="-709.4" x2="-2413.3" y2="-362.9"/>
		<line fill="none" stroke="#BDE2D3" stroke-width="7.200000e-02" x1="-2446.7" y1="-709.4" x2="-2446.7" y2="-420.4"/>
		<line fill="none" stroke="#BDE2D3" stroke-width="0.288" x1="-2444" y1="-709.5" x2="-2444" y2="-416.2"/>
		<line fill="none" stroke="#BDE2D3" stroke-width="7.200000e-02" x1="-2447.9" y1="-709.4" x2="-2447.9" y2="-422.1"/>
		<line fill="none" stroke="#BDE2D3" stroke-width="0.36" x1="-2436.2" y1="-709.5" x2="-2436.2" y2="-402.4"/>
		<line fill="none" stroke="#BDE2D3" stroke-width="0.576" x1="-2408.5" y1="-709.4" x2="-2408.5" y2="-355.2"/>
		<line fill="none" stroke="#BDE2D3" stroke-width="0.576" x1="-2417.8" y1="-709.4" x2="-2417.8" y2="-370.3"/>
		<line fill="none" stroke="#BDE2D3" stroke-width="0.36" x1="-2431.9" y1="-709.2" x2="-2431.9" y2="-395.1"/>
		<line fill="none" stroke="#BDE2D3" stroke-width="0.216" x1="-2422.4" y1="-709.3" x2="-2422.4" y2="-378.8"/>
		<line fill="none" stroke="#BDE2D3" stroke-width="7.200000e-02" x1="-2429.3" y1="-709.3" x2="-2429.3" y2="-391"/>
		<line fill="none" stroke="#BDE2D3" stroke-width="0.216" x1="-2404.6" y1="-709.5" x2="-2404.6" y2="-348"/>
		<line fill="none" stroke="#BDE2D3" stroke-width="0.216" x1="-2401.7" y1="-709.5" x2="-2401.7" y2="-342.9"/>
		<line fill="none" stroke="#BDE2D3" stroke-width="0.432" x1="-2397" y1="-709.5" x2="-2397" y2="-331.9"/>
		<line fill="none" stroke="#BDE2D3" stroke-width="0.576" x1="-2392.2" y1="-709.5" x2="-2392.2" y2="-326.3"/>
		<line fill="none" stroke="#BDE2D3" stroke-width="0.216" x1="-2388.2" y1="-709.5" x2="-2388.2" y2="-319.6"/>
		<line fill="none" stroke="#BDE2D3" stroke-width="0.216" x1="-2385.3" y1="-709.5" x2="-2385.3" y2="-314.4"/>
		<line fill="none" stroke="#BDE2D3" stroke-width="0.432" x1="-2375.4" y1="-709.4" x2="-2375.4" y2="-297.8"/>
		<line fill="none" stroke="#BDE2D3" stroke-width="0.432" x1="-2361.3" y1="-709.5" x2="-2361.3" y2="-272.9"/>
		<line fill="none" stroke="#BDE2D3" stroke-width="0.432" x1="-2348.8" y1="-709.5" x2="-2348.8" y2="-251"/>
		<line fill="none" stroke="#BDE2D3" stroke-width="7.200000e-02" x1="-2382.2" y1="-709.5" x2="-2382.2" y2="-309.5"/>
		<line fill="none" stroke="#BDE2D3" stroke-width="0.288" x1="-2379.5" y1="-709.4" x2="-2379.5" y2="-304.5"/>
		<line fill="none" stroke="#BDE2D3" stroke-width="7.200000e-02" x1="-2383.3" y1="-709.5" x2="-2383.3" y2="-310.6"/>
		<line fill="none" stroke="#BDE2D3" stroke-width="0.36" x1="-2371.6" y1="-709.5" x2="-2371.6" y2="-290.9"/>
		<line fill="none" stroke="#BDE2D3" stroke-width="0.576" x1="-2344" y1="-709.5" x2="-2344" y2="-242.4"/>
		<line fill="none" stroke="#BDE2D3" stroke-width="0.576" x1="-2353.3" y1="-709.5" x2="-2353.3" y2="-258.8"/>
		<line fill="none" stroke="#BDE2D3" stroke-width="0.36" x1="-2367.4" y1="-709.5" x2="-2367.4" y2="-285"/>
		<line fill="none" stroke="#BDE2D3" stroke-width="0.216" x1="-2357.9" y1="-709.5" x2="-2357.9" y2="-267.8"/>
		<line fill="none" stroke="#BDE2D3" stroke-width="7.200000e-02" x1="-2364.8" y1="-709.5" x2="-2364.8" y2="-279.2"/>
		<line fill="none" stroke="#BDE2D3" stroke-width="0.216" x1="-2340" y1="-709.5" x2="-2340" y2="-236.8"/>
		<line fill="none" stroke="#BDE2D3" stroke-width="0.216" x1="-2337.1" y1="-709.5" x2="-2337.1" y2="-231.2"/>
		<line fill="none" stroke="#BDE2D3" stroke-width="0.432" x1="-2332.9" y1="-709.5" x2="-2332.9" y2="-223.8"/>
		<line fill="none" stroke="#BDE2D3" stroke-width="0.432" x1="-2320.3" y1="-709.5" x2="-2320.3" y2="-201.9"/>
		<line fill="none" stroke="#BDE2D3" stroke-width="0.576" x1="-2315.5" y1="-709.5" x2="-2315.5" y2="-193.8"/>
		<line fill="none" stroke="#BDE2D3" stroke-width="0.576" x1="-2324.8" y1="-709.5" x2="-2324.8" y2="-209.7"/>
		<line fill="none" stroke="#BDE2D3" stroke-width="0.216" x1="-2329.4" y1="-709.4" x2="-2329.4" y2="-220.1"/>
		<line fill="none" stroke="#BDE2D3" stroke-width="0.216" x1="-2311.6" y1="-709.4" x2="-2311.6" y2="-187.1"/>
		<line fill="none" stroke="#BDE2D3" stroke-width="0.216" x1="-2308.6" y1="-709.5" x2="-2308.6" y2="-181.9"/>
		<line fill="none" stroke="#BDE2D3" stroke-width="0.432" x1="-2298.8" y1="-709.5" x2="-2298.8" y2="-164.9"/>
		<line fill="none" stroke="#BDE2D3" stroke-width="0.432" x1="-2284.7" y1="-709.5" x2="-2284.7" y2="-140.9"/>
		<line fill="none" stroke="#BDE2D3" stroke-width="0.432" x1="-2272.1" y1="-709.5" x2="-2272.1" y2="-118.5"/>
		<line fill="none" stroke="#BDE2D3" stroke-width="7.200000e-02" x1="-2305.5" y1="-709.5" x2="-2305.5" y2="-175.6"/>
		<line fill="none" stroke="#BDE2D3" stroke-width="0.288" x1="-2302.8" y1="-709.5" x2="-2302.8" y2="-171.6"/>
		<line fill="none" stroke="#BDE2D3" stroke-width="7.200000e-02" x1="-2306.6" y1="-709.5" x2="-2306.6" y2="-178.6"/>
		<line fill="none" stroke="#BDE2D3" stroke-width="0.36" x1="-2295" y1="-709.4" x2="-2295" y2="-157.9"/>
		<line fill="none" stroke="#BDE2D3" stroke-width="0.576" x1="-2267.3" y1="-709.5" x2="-2267.3" y2="-116.5"/>
		<line fill="none" stroke="#BDE2D3" stroke-width="0.576" x1="-2276.6" y1="-709.4" x2="-2276.6" y2="-125.4"/>
		<line fill="none" stroke="#BDE2D3" stroke-width="0.36" x1="-2290.7" y1="-709.4" x2="-2290.7" y2="-150.8"/>
		<line fill="none" stroke="#BDE2D3" stroke-width="0.216" x1="-2281.2" y1="-709.4" x2="-2281.2" y2="-134.6"/>
		<line fill="none" stroke="#BDE2D3" stroke-width="7.200000e-02" x1="-2288.1" y1="-709.5" x2="-2288.1" y2="-146.7"/>
		<line fill="none" stroke="#BDE2D3" stroke-width="0.216" x1="-2263.4" y1="-709.5" x2="-2263.4" y2="-126.1"/>
		<line fill="none" stroke="#BDE2D3" stroke-width="0.216" x1="-2260.5" y1="-709.4" x2="-2260.5" y2="-129"/>
		<line fill="none" stroke="#BDE2D3" stroke-width="0.432" x1="-1964.6" y1="-709.4" x2="-1964.6" y2="-645.5"/>
		<line fill="none" stroke="#BDE2D3" stroke-width="0.432" x1="-1975.5" y1="-709.5" x2="-1975.5" y2="-627.2"/>
		<line fill="none" stroke="#BDE2D3" stroke-width="0.432" x1="-1989.7" y1="-709.5" x2="-1989.7" y2="-601.8"/>
		<line fill="none" stroke="#BDE2D3" stroke-width="0.432" x1="-2002.2" y1="-709.5" x2="-2002.2" y2="-580.7"/>
		<line fill="none" stroke="#BDE2D3" stroke-width="7.200000e-02" x1="-1968.8" y1="-709.5" x2="-1968.8" y2="-640.3"/>
		<line fill="none" stroke="#BDE2D3" stroke-width="0.288" x1="-1971.5" y1="-709.4" x2="-1971.5" y2="-634"/>
		<line fill="none" stroke="#BDE2D3" stroke-width="7.200000e-02" x1="-1967.7" y1="-709.5" x2="-1967.7" y2="-642.1"/>
		<line fill="none" stroke="#BDE2D3" stroke-width="0.36" x1="-1979.4" y1="-709.5" x2="-1979.4" y2="-620.9"/>
		<line fill="none" stroke="#BDE2D3" stroke-width="0.576" x1="-2007" y1="-709.4" x2="-2007" y2="-571"/>
		<line fill="none" stroke="#BDE2D3" stroke-width="0.576" x1="-1997.7" y1="-709.4" x2="-1997.7" y2="-585.9"/>
		<line fill="none" stroke="#BDE2D3" stroke-width="0.36" x1="-1983.6" y1="-709.4" x2="-1983.6" y2="-612.5"/>
		<line fill="none" stroke="#BDE2D3" stroke-width="0.216" x1="-1993.1" y1="-709.4" x2="-1993.1" y2="-596.8"/>
		<line fill="none" stroke="#BDE2D3" stroke-width="7.200000e-02" x1="-1986.2" y1="-709.5" x2="-1986.2" y2="-610.1"/>
		<line fill="none" stroke="#BDE2D3" stroke-width="0.216" x1="-2011" y1="-709.5" x2="-2011" y2="-566.6"/>
		<line fill="none" stroke="#BDE2D3" stroke-width="0.216" x1="-2013.9" y1="-709.4" x2="-2013.9" y2="-561.2"/>
		<line fill="none" stroke="#BDE2D3" stroke-width="0.432" x1="-2023.7" y1="-709.5" x2="-2023.7" y2="-543.6"/>
		<line fill="none" stroke="#BDE2D3" stroke-width="0.432" x1="-2037.9" y1="-709.5" x2="-2037.9" y2="-519.4"/>
		<line fill="none" stroke="#BDE2D3" stroke-width="0.432" x1="-2050.4" y1="-709.5" x2="-2050.4" y2="-497.6"/>
		<line fill="none" stroke="#BDE2D3" stroke-width="7.200000e-02" x1="-2017" y1="-709.4" x2="-2017" y2="-557.6"/>
		<line fill="none" stroke="#BDE2D3" stroke-width="0.288" x1="-2019.7" y1="-709.5" x2="-2019.7" y2="-551"/>
		<line fill="none" stroke="#BDE2D3" stroke-width="7.200000e-02" x1="-2015.9" y1="-709.4" x2="-2015.9" y2="-559.2"/>
		<line fill="none" stroke="#BDE2D3" stroke-width="0.36" x1="-2027.6" y1="-709.4" x2="-2027.6" y2="-537.5"/>
		<line fill="none" stroke="#BDE2D3" stroke-width="0.576" x1="-2055.2" y1="-709.4" x2="-2055.2" y2="-487.2"/>
		<line fill="none" stroke="#BDE2D3" stroke-width="0.576" x1="-2045.9" y1="-709.5" x2="-2045.9" y2="-504.1"/>
		<line fill="none" stroke="#BDE2D3" stroke-width="0.36" x1="-2031.8" y1="-709.5" x2="-2031.8" y2="-530.3"/>
		<line fill="none" stroke="#BDE2D3" stroke-width="0.216" x1="-2041.3" y1="-709.5" x2="-2041.3" y2="-514"/>
		<line fill="none" stroke="#BDE2D3" stroke-width="7.200000e-02" x1="-2034.4" y1="-709.5" x2="-2034.4" y2="-526.7"/>
		<line fill="none" stroke="#BDE2D3" stroke-width="0.216" x1="-2059.2" y1="-709.5" x2="-2059.2" y2="-482.4"/>
		<line fill="none" stroke="#BDE2D3" stroke-width="0.216" x1="-2062.1" y1="-709.4" x2="-2062.1" y2="-477.6"/>
		<line fill="none" stroke="#BDE2D3" stroke-width="0.432" x1="-2066.3" y1="-709.4" x2="-2066.3" y2="-468.4"/>
		<line fill="none" stroke="#BDE2D3" stroke-width="0.432" x1="-2078.9" y1="-709.4" x2="-2078.9" y2="-446.9"/>
		<line fill="none" stroke="#BDE2D3" stroke-width="0.576" x1="-2083.7" y1="-709.5" x2="-2083.7" y2="-437.9"/>
		<line fill="none" stroke="#BDE2D3" stroke-width="0.576" x1="-2074.4" y1="-709.5" x2="-2074.4" y2="-454.1"/>
		<line fill="none" stroke="#BDE2D3" stroke-width="0.216" x1="-2069.8" y1="-709.5" x2="-2069.8" y2="-463"/>
		<line fill="none" stroke="#BDE2D3" stroke-width="0.216" x1="-2087.6" y1="-709.5" x2="-2087.6" y2="-430.2"/>
		<line fill="none" stroke="#BDE2D3" stroke-width="0.216" x1="-2090.5" y1="-709.5" x2="-2090.5" y2="-426"/>
		<line fill="none" stroke="#BDE2D3" stroke-width="0.432" x1="-2100.4" y1="-709.4" x2="-2100.4" y2="-408.7"/>
		<line fill="none" stroke="#BDE2D3" stroke-width="0.432" x1="-2114.5" y1="-709.5" x2="-2114.5" y2="-384.2"/>
		<line fill="none" stroke="#BDE2D3" stroke-width="0.432" x1="-2127.1" y1="-709.4" x2="-2127.1" y2="-363"/>
		<line fill="none" stroke="#BDE2D3" stroke-width="7.200000e-02" x1="-2093.7" y1="-709.5" x2="-2093.7" y2="-420.4"/>
		<line fill="none" stroke="#BDE2D3" stroke-width="0.288" x1="-2096.4" y1="-709.4" x2="-2096.4" y2="-416.2"/>
		<line fill="none" stroke="#BDE2D3" stroke-width="7.200000e-02" x1="-2092.6" y1="-709.5" x2="-2092.6" y2="-422.1"/>
		<line fill="none" stroke="#BDE2D3" stroke-width="0.36" x1="-2104.2" y1="-709.4" x2="-2104.2" y2="-402.4"/>
		<line fill="none" stroke="#BDE2D3" stroke-width="0.576" x1="-2131.9" y1="-709.4" x2="-2131.9" y2="-355.2"/>
		<line fill="none" stroke="#BDE2D3" stroke-width="0.576" x1="-2122.6" y1="-709.4" x2="-2122.6" y2="-370.4"/>
		<line fill="none" stroke="#BDE2D3" stroke-width="0.36" x1="-2108.5" y1="-709.4" x2="-2108.5" y2="-395.2"/>
		<line fill="none" stroke="#BDE2D3" stroke-width="0.216" x1="-2118" y1="-709.4" x2="-2118" y2="-378.8"/>
		<line fill="none" stroke="#BDE2D3" stroke-width="7.200000e-02" x1="-2111.1" y1="-709.4" x2="-2111.1" y2="-391.1"/>
		<line fill="none" stroke="#BDE2D3" stroke-width="0.216" x1="-2135.8" y1="-709.5" x2="-2135.8" y2="-348"/>
		<line fill="none" stroke="#BDE2D3" stroke-width="0.216" x1="-2138.7" y1="-709.5" x2="-2138.7" y2="-342.9"/>
		<line fill="none" stroke="#BDE2D3" stroke-width="0.432" x1="-2143.4" y1="-709.5" x2="-2143.4" y2="-331.9"/>
		<line fill="none" stroke="#BDE2D3" stroke-width="0.576" x1="-2148.2" y1="-709.5" x2="-2148.2" y2="-326.3"/>
		<line fill="none" stroke="#BDE2D3" stroke-width="0.216" x1="-2152.2" y1="-709.4" x2="-2152.2" y2="-319.6"/>
		<line fill="none" stroke="#BDE2D3" stroke-width="0.216" x1="-2155.1" y1="-709.5" x2="-2155.1" y2="-314.4"/>
		<line fill="none" stroke="#BDE2D3" stroke-width="0.432" x1="-2165" y1="-709.4" x2="-2165" y2="-297.8"/>
		<line fill="none" stroke="#BDE2D3" stroke-width="0.432" x1="-2179.1" y1="-709.4" x2="-2179.1" y2="-272.9"/>
		<line fill="none" stroke="#BDE2D3" stroke-width="0.432" x1="-2191.6" y1="-709.5" x2="-2191.6" y2="-251"/>
		<line fill="none" stroke="#BDE2D3" stroke-width="7.200000e-02" x1="-2158.2" y1="-709.4" x2="-2158.2" y2="-309.5"/>
		<line fill="none" stroke="#BDE2D3" stroke-width="0.288" x1="-2160.9" y1="-709.4" x2="-2160.9" y2="-304.5"/>
		<line fill="none" stroke="#BDE2D3" stroke-width="7.200000e-02" x1="-2157.1" y1="-709.5" x2="-2157.1" y2="-310.6"/>
		<line fill="none" stroke="#BDE2D3" stroke-width="0.36" x1="-2168.8" y1="-709.4" x2="-2168.8" y2="-290.9"/>
		<line fill="none" stroke="#BDE2D3" stroke-width="0.576" x1="-2196.4" y1="-709.4" x2="-2196.4" y2="-242.4"/>
		<line fill="none" stroke="#BDE2D3" stroke-width="0.576" x1="-2187.2" y1="-709.4" x2="-2187.2" y2="-258.8"/>
		<line fill="none" stroke="#BDE2D3" stroke-width="0.36" x1="-2173" y1="-709.5" x2="-2173" y2="-285"/>
		<line fill="none" stroke="#BDE2D3" stroke-width="0.216" x1="-2182.5" y1="-709.4" x2="-2182.5" y2="-267.8"/>
		<line fill="none" stroke="#BDE2D3" stroke-width="7.200000e-02" x1="-2175.6" y1="-709.4" x2="-2175.6" y2="-279.2"/>
		<line fill="none" stroke="#BDE2D3" stroke-width="0.216" x1="-2200.4" y1="-709.5" x2="-2200.4" y2="-236.8"/>
		<line fill="none" stroke="#BDE2D3" stroke-width="0.216" x1="-2203.3" y1="-709.4" x2="-2203.3" y2="-231.2"/>
		<line fill="none" stroke="#BDE2D3" stroke-width="0.432" x1="-2207.6" y1="-709.5" x2="-2207.6" y2="-223.8"/>
		<line fill="none" stroke="#BDE2D3" stroke-width="0.432" x1="-2220.1" y1="-709.5" x2="-2220.1" y2="-201.9"/>
		<line fill="none" stroke="#BDE2D3" stroke-width="0.576" x1="-2224.9" y1="-709.5" x2="-2224.9" y2="-193.8"/>
		<line fill="none" stroke="#BDE2D3" stroke-width="0.576" x1="-2215.6" y1="-709.5" x2="-2215.6" y2="-209.7"/>
		<line fill="none" stroke="#BDE2D3" stroke-width="0.216" x1="-2211" y1="-709.4" x2="-2211" y2="-220.1"/>
		<line fill="none" stroke="#BDE2D3" stroke-width="0.216" x1="-2228.8" y1="-709.5" x2="-2228.8" y2="-187.1"/>
		<line fill="none" stroke="#BDE2D3" stroke-width="0.216" x1="-2231.8" y1="-709.5" x2="-2231.8" y2="-181.9"/>
		<line fill="none" stroke="#BDE2D3" stroke-width="0.432" x1="-2241.6" y1="-709.5" x2="-2241.6" y2="-164.9"/>
		<line fill="none" stroke="#BDE2D3" stroke-width="0.432" x1="-2255.7" y1="-709.5" x2="-2255.7" y2="-140.9"/>
		<line fill="none" stroke="#BDE2D3" stroke-width="7.200000e-02" x1="-2234.9" y1="-709.5" x2="-2234.9" y2="-175.6"/>
		<line fill="none" stroke="#BDE2D3" stroke-width="0.288" x1="-2237.6" y1="-709.4" x2="-2237.6" y2="-171.6"/>
		<line fill="none" stroke="#BDE2D3" stroke-width="7.200000e-02" x1="-2233.8" y1="-709.4" x2="-2233.8" y2="-178.6"/>
		<line fill="none" stroke="#BDE2D3" stroke-width="0.36" x1="-2245.4" y1="-709.4" x2="-2245.4" y2="-157.9"/>
		<line fill="none" stroke="#BDE2D3" stroke-width="0.36" x1="-2249.7" y1="-709.4" x2="-2249.7" y2="-150.8"/>
		<line fill="none" stroke="#BDE2D3" stroke-width="7.200000e-02" x1="-2252.3" y1="-709.5" x2="-2252.3" y2="-146.7"/>
		<line fill="none" stroke="#BDE2D3" stroke-width="0.288" x1="-1941.8" y1="-709.4" x2="-1941.8" y2="-679"/>
		<line fill="none" stroke="#BDE2D3" stroke-width="0.432" x1="-1956.6" y1="-709.4" x2="-1956.6" y2="-658.2"/>
		<line fill="none" stroke="#BDE2D3" stroke-width="0.576" x1="-1931.8" y1="-709.4" x2="-1931.8" y2="-691.9"/>
		<line fill="none" stroke="#BDE2D3" stroke-width="0.432" x1="-1936.4" y1="-709.4" x2="-1936.4" y2="-685.7"/>
		<line fill="none" stroke="#BDE2D3" stroke-width="7.200000e-02" x1="-1943.8" y1="-709.4" x2="-1943.8" y2="-677.5"/>
		<line fill="none" stroke="#BDE2D3" stroke-width="7.200000e-02" x1="-1939.2" y1="-709.4" x2="-1939.2" y2="-683.2"/>
		<line fill="none" stroke="#BDE2D3" stroke-width="0.504" x1="-1946.7" y1="-709.4" x2="-1946.7" y2="-671.3"/>
		<line fill="none" stroke="#BDE2D3" stroke-width="7.200000e-02" x1="-1927.7" y1="-709.5" x2="-1927.7" y2="-699.6"/>
		<line fill="none" stroke="#BDE2D3" stroke-width="7.200000e-02" x1="-1960.9" y1="-709.5" x2="-1960.9" y2="-654.1"/>
		<line fill="none" stroke="#BDE2D3" stroke-width="7.200000e-02" x1="-1959.8" y1="-709.4" x2="-1959.8" y2="-655.5"/>
		<line fill="none" stroke="#BDE2D3" stroke-width="0.504" x1="-1951.7" y1="-709.4" x2="-1951.7" y2="-664.7"/>
		<path fill="none" stroke="#BDE2D3" stroke-width="0.432" d="M-2612.6-712.1"/>
		<line fill="none" stroke="#BDE2D3" stroke-width="0.288" x1="-2608.1" y1="-709.5" x2="-2608.1" y2="-700.7"/>
	</g>
</g>
</svg>
