<?xml version="1.0" encoding="utf-8"?>
<!-- Generator: Adobe Illustrator 18.1.0, SVG Export Plug-In . SVG Version: 6.00 Build 0)  -->
<!DOCTYPE svg PUBLIC "-//W3C//DTD SVG 1.1//EN" "http://www.w3.org/Graphics/SVG/1.1/DTD/svg11.dtd">
<svg version="1.1" xmlns="http://www.w3.org/2000/svg" xmlns:xlink="http://www.w3.org/1999/xlink" x="0px" y="0px"
	 viewBox="0 0 1112 1046.9" enable-background="new 0 0 1112 1046.9" xml:space="preserve">
<g id="Layer_1">
	<g opacity="0.2">
		<defs>
			<polygon id="SVGID_1_" opacity="0.2" points="133.5,938.3 953.8,937.6 543,214.2 			"/>
		</defs>
		<clipPath id="SVGID_2_">
			<use xlink:href="#SVGID_1_"  overflow="visible"/>
		</clipPath>
		<use xlink:href="#SVGID_1_"  overflow="visible" fill="none" stroke="#83D2E4"/>
	</g>
	<text transform="matrix(1 0 0 1 753.5353 782.5522)" fill="#3E364F" font-family="'Merriweather-Light'" font-size="21.0934"> </text>
	<polygon fill="none" stroke="#BDE2D3" points="1118.4,30.6 556.6,1003.8 -5.3,30.6 	"/>
	<polygon fill="none" stroke="#83D2E4" points="1119.4,68.3 557.5,1041.5 -4.3,68.3 	"/>
</g>
<g id="Layer_2">
	<path fill="none" stroke="#B82265" stroke-width="7.200000e-02" d="M5.1,3"/>
	<path fill="none" stroke="#B82265" stroke-width="7.200000e-02" d="M5.1,3"/>
	<line fill="none" stroke="#BDE2D3" stroke-width="0.288" x1="40.2" y1="7.1" x2="40.2" y2="67.8"/>
	<line fill="none" stroke="#BDE2D3" stroke-width="0.432" x1="64.1" y1="7.3" x2="64.1" y2="109.9"/>
	<line fill="none" stroke="#BDE2D3" stroke-width="0.432" x1="81.7" y1="7.1" x2="81.7" y2="139.3"/>
	<line fill="none" stroke="#BDE2D3" stroke-width="0.576" x1="24.1" y1="7.1" x2="24.1" y2="41.6"/>
	<line fill="none" stroke="#BDE2D3" stroke-width="0.432" x1="104.4" y1="7.1" x2="104.4" y2="180.1"/>
	<line fill="none" stroke="#BDE2D3" stroke-width="0.432" x1="124.6" y1="7.1" x2="124.6" y2="214"/>
	<line fill="none" stroke="#BDE2D3" stroke-width="0.432" x1="31.6" y1="7.1" x2="31.6" y2="54.1"/>
	<line fill="none" stroke="#BDE2D3" stroke-width="7.200000e-02" x1="43.5" y1="7.1" x2="43.5" y2="70.7"/>
	<line fill="none" stroke="#BDE2D3" stroke-width="7.200000e-02" x1="36.1" y1="7.1" x2="36.1" y2="59.2"/>
	<line fill="none" stroke="#BDE2D3" stroke-width="0.504" x1="48.1" y1="7.1" x2="48.1" y2="83.3"/>
	<line fill="none" stroke="#BDE2D3" stroke-width="7.200000e-02" x1="17.7" y1="7.1" x2="17.7" y2="25.9"/>
	<path fill="none" stroke="#B82265" stroke-width="7.200000e-02" d="M5.1,3"/>
	<line fill="none" stroke="#BDE2D3" stroke-width="7.200000e-02" x1="70.9" y1="7.1" x2="70.9" y2="118.2"/>
	<line fill="none" stroke="#BDE2D3" stroke-width="0.288" x1="75.3" y1="7.1" x2="75.3" y2="128.3"/>
	<line fill="none" stroke="#BDE2D3" stroke-width="7.200000e-02" x1="69.1" y1="7.1" x2="69.1" y2="115.3"/>
	<line fill="none" stroke="#BDE2D3" stroke-width="0.36" x1="87.9" y1="7.1" x2="87.9" y2="149.4"/>
	<line fill="none" stroke="#BDE2D3" stroke-width="0.576" x1="132.3" y1="7.1" x2="132.3" y2="229.6"/>
	<line fill="none" stroke="#BDE2D3" stroke-width="0.576" x1="117.4" y1="7.1" x2="117.4" y2="205.6"/>
	<line fill="none" stroke="#BDE2D3" stroke-width="0.36" x1="94.7" y1="7.1" x2="94.7" y2="162.9"/>
	<line fill="none" stroke="#BDE2D3" stroke-width="0.216" x1="109.9" y1="7.1" x2="109.9" y2="188.1"/>
	<line fill="none" stroke="#BDE2D3" stroke-width="7.200000e-02" x1="98.9" y1="7.1" x2="98.9" y2="166.7"/>
	<line fill="none" stroke="#BDE2D3" stroke-width="0.216" x1="138.6" y1="7.1" x2="138.6" y2="236.7"/>
	<line fill="none" stroke="#BDE2D3" stroke-width="0.216" x1="143.3" y1="7.1" x2="143.3" y2="245.3"/>
	<line fill="none" stroke="#BDE2D3" stroke-width="0.432" x1="159.1" y1="7.1" x2="159.1" y2="273.6"/>
	<line fill="none" stroke="#BDE2D3" stroke-width="0.432" x1="181.8" y1="7.1" x2="181.8" y2="312.4"/>
	<line fill="none" stroke="#BDE2D3" stroke-width="0.432" x1="202" y1="7.1" x2="202" y2="347.4"/>
	<line fill="none" stroke="#BDE2D3" stroke-width="7.200000e-02" x1="148.3" y1="7.1" x2="148.3" y2="251.1"/>
	<line fill="none" stroke="#BDE2D3" stroke-width="0.288" x1="152.7" y1="7.1" x2="152.7" y2="261.7"/>
	<line fill="none" stroke="#BDE2D3" stroke-width="7.200000e-02" x1="146.5" y1="7.1" x2="146.5" y2="248.5"/>
	<line fill="none" stroke="#BDE2D3" stroke-width="0.36" x1="165.3" y1="7.1" x2="165.3" y2="283.3"/>
	<line fill="none" stroke="#BDE2D3" stroke-width="0.576" x1="209.7" y1="7.1" x2="209.7" y2="364.1"/>
	<line fill="none" stroke="#BDE2D3" stroke-width="0.576" x1="194.8" y1="7.1" x2="194.8" y2="336.9"/>
	<line fill="none" stroke="#BDE2D3" stroke-width="0.36" x1="172.1" y1="7.1" x2="172.1" y2="294.9"/>
	<line fill="none" stroke="#BDE2D3" stroke-width="0.216" x1="187.4" y1="7.1" x2="187.4" y2="321.1"/>
	<line fill="none" stroke="#BDE2D3" stroke-width="7.200000e-02" x1="176.3" y1="7.7" x2="176.3" y2="300.7"/>
	<line fill="none" stroke="#BDE2D3" stroke-width="0.216" x1="216" y1="7.1" x2="216" y2="371.8"/>
	<line fill="none" stroke="#BDE2D3" stroke-width="0.216" x1="220.7" y1="7.1" x2="220.7" y2="379.6"/>
	<line fill="none" stroke="#BDE2D3" stroke-width="0.504" x1="56.2" y1="7.1" x2="56.2" y2="96.6"/>
	<line fill="none" stroke="#BDE2D3" stroke-width="0.432" x1="227.6" y1="7.1" x2="227.6" y2="394.4"/>
	<line fill="none" stroke="#BDE2D3" stroke-width="0.432" x1="247.7" y1="7.1" x2="247.7" y2="428.9"/>
	<line fill="none" stroke="#BDE2D3" stroke-width="0.576" x1="255.4" y1="7.1" x2="255.4" y2="443.3"/>
	<line fill="none" stroke="#BDE2D3" stroke-width="0.576" x1="240.5" y1="7.1" x2="240.5" y2="417.4"/>
	<line fill="none" stroke="#BDE2D3" stroke-width="0.216" x1="233.1" y1="7.1" x2="233.1" y2="403"/>
	<line fill="none" stroke="#BDE2D3" stroke-width="0.216" x1="261.8" y1="7.1" x2="261.8" y2="455.7"/>
	<line fill="none" stroke="#BDE2D3" stroke-width="0.216" x1="266.4" y1="7.1" x2="266.4" y2="462.4"/>
	<line fill="none" stroke="#BDE2D3" stroke-width="0.432" x1="282.3" y1="7.1" x2="282.3" y2="490.2"/>
	<line fill="none" stroke="#BDE2D3" stroke-width="0.432" x1="305" y1="7.7" x2="305" y2="529.7"/>
	<line fill="none" stroke="#BDE2D3" stroke-width="0.432" x1="325.1" y1="7.3" x2="325.1" y2="563.8"/>
	<line fill="none" stroke="#BDE2D3" stroke-width="7.200000e-02" x1="271.5" y1="7.3" x2="271.5" y2="471.4"/>
	<line fill="none" stroke="#BDE2D3" stroke-width="0.288" x1="275.8" y1="7.1" x2="275.8" y2="478.2"/>
	<line fill="none" stroke="#BDE2D3" stroke-width="7.200000e-02" x1="269.7" y1="7.3" x2="269.7" y2="468.6"/>
	<line fill="none" stroke="#BDE2D3" stroke-width="0.36" x1="288.4" y1="7.1" x2="288.4" y2="500.3"/>
	<line fill="none" stroke="#BDE2D3" stroke-width="0.576" x1="332.8" y1="7.3" x2="332.8" y2="576.2"/>
	<line fill="none" stroke="#BDE2D3" stroke-width="0.576" x1="317.9" y1="7.2" x2="317.9" y2="551.9"/>
	<line fill="none" stroke="#BDE2D3" stroke-width="0.36" x1="295.2" y1="7.6" x2="295.2" y2="512.1"/>
	<line fill="none" stroke="#BDE2D3" stroke-width="0.216" x1="310.5" y1="7.5" x2="310.5" y2="538.2"/>
	<line fill="none" stroke="#BDE2D3" stroke-width="7.200000e-02" x1="299.4" y1="7.5" x2="299.4" y2="518.7"/>
	<line fill="none" stroke="#BDE2D3" stroke-width="0.216" x1="339.2" y1="7.1" x2="339.2" y2="587.7"/>
	<line fill="none" stroke="#BDE2D3" stroke-width="0.216" x1="343.8" y1="7.1" x2="343.8" y2="595.8"/>
	<line fill="none" stroke="#BDE2D3" stroke-width="0.432" x1="351.4" y1="7.1" x2="351.4" y2="613.6"/>
	<line fill="none" stroke="#BDE2D3" stroke-width="0.576" x1="359.1" y1="7.1" x2="359.1" y2="622.6"/>
	<line fill="none" stroke="#BDE2D3" stroke-width="0.216" x1="365.4" y1="7.1" x2="365.4" y2="633.4"/>
	<line fill="none" stroke="#BDE2D3" stroke-width="0.216" x1="370.1" y1="7.1" x2="370.1" y2="641.7"/>
	<line fill="none" stroke="#BDE2D3" stroke-width="0.432" x1="386" y1="7.3" x2="386" y2="668.3"/>
	<line fill="none" stroke="#BDE2D3" stroke-width="0.432" x1="408.6" y1="7.1" x2="408.6" y2="708.3"/>
	<line fill="none" stroke="#BDE2D3" stroke-width="0.432" x1="428.8" y1="7.1" x2="428.8" y2="743.6"/>
	<line fill="none" stroke="#BDE2D3" stroke-width="7.200000e-02" x1="375.2" y1="7.1" x2="375.2" y2="649.6"/>
	<line fill="none" stroke="#BDE2D3" stroke-width="0.288" x1="379.5" y1="7.3" x2="379.5" y2="657.5"/>
	<line fill="none" stroke="#BDE2D3" stroke-width="7.200000e-02" x1="373.4" y1="7.1" x2="373.4" y2="647.8"/>
	<line fill="none" stroke="#BDE2D3" stroke-width="0.36" x1="392.1" y1="7.1" x2="392.1" y2="679.5"/>
	<line fill="none" stroke="#BDE2D3" stroke-width="0.576" x1="436.5" y1="7.1" x2="436.5" y2="757.3"/>
	<line fill="none" stroke="#BDE2D3" stroke-width="0.576" x1="421.6" y1="7.1" x2="421.6" y2="731"/>
	<line fill="none" stroke="#BDE2D3" stroke-width="0.36" x1="398.9" y1="7.1" x2="398.9" y2="688.9"/>
	<line fill="none" stroke="#BDE2D3" stroke-width="0.216" x1="414.2" y1="7.1" x2="414.2" y2="716.6"/>
	<line fill="none" stroke="#BDE2D3" stroke-width="7.200000e-02" x1="403.1" y1="7.1" x2="403.1" y2="698.2"/>
	<line fill="none" stroke="#BDE2D3" stroke-width="0.216" x1="442.9" y1="7.1" x2="442.9" y2="766.3"/>
	<line fill="none" stroke="#BDE2D3" stroke-width="0.216" x1="447.5" y1="7.1" x2="447.5" y2="775.3"/>
	<line fill="none" stroke="#BDE2D3" stroke-width="0.432" x1="454.4" y1="7.1" x2="454.4" y2="787.1"/>
	<line fill="none" stroke="#BDE2D3" stroke-width="0.432" x1="474.5" y1="7.1" x2="474.5" y2="822.4"/>
	<line fill="none" stroke="#BDE2D3" stroke-width="0.576" x1="482.2" y1="7.1" x2="482.2" y2="835.4"/>
	<line fill="none" stroke="#BDE2D3" stroke-width="0.576" x1="467.3" y1="7.1" x2="467.3" y2="809.8"/>
	<line fill="none" stroke="#BDE2D3" stroke-width="0.216" x1="459.9" y1="7.3" x2="459.9" y2="793.2"/>
	<line fill="none" stroke="#BDE2D3" stroke-width="0.216" x1="488.6" y1="7.3" x2="488.6" y2="846.2"/>
	<line fill="none" stroke="#BDE2D3" stroke-width="0.216" x1="493.3" y1="7.1" x2="493.3" y2="854.5"/>
	<line fill="none" stroke="#BDE2D3" stroke-width="0.432" x1="509.1" y1="7.1" x2="509.1" y2="881.8"/>
	<line fill="none" stroke="#BDE2D3" stroke-width="0.432" x1="531.8" y1="7.1" x2="531.8" y2="920.4"/>
	<line fill="none" stroke="#BDE2D3" stroke-width="0.432" x1="551.9" y1="7.1" x2="551.9" y2="956.4"/>
	<line fill="none" stroke="#BDE2D3" stroke-width="7.200000e-02" x1="498.3" y1="7.1" x2="498.3" y2="864.5"/>
	<line fill="none" stroke="#BDE2D3" stroke-width="0.288" x1="502.6" y1="7.1" x2="502.6" y2="871"/>
	<line fill="none" stroke="#BDE2D3" stroke-width="7.200000e-02" x1="496.5" y1="7.1" x2="496.5" y2="859.9"/>
	<line fill="none" stroke="#BDE2D3" stroke-width="0.36" x1="515.2" y1="7.3" x2="515.2" y2="893"/>
	<line fill="none" stroke="#BDE2D3" stroke-width="0.576" x1="559.6" y1="7.1" x2="559.6" y2="959.6"/>
	<line fill="none" stroke="#BDE2D3" stroke-width="0.576" x1="544.7" y1="7.3" x2="544.7" y2="945.2"/>
	<line fill="none" stroke="#BDE2D3" stroke-width="0.36" x1="522.1" y1="7.3" x2="522.1" y2="904.5"/>
	<line fill="none" stroke="#BDE2D3" stroke-width="0.216" x1="537.3" y1="7.3" x2="537.3" y2="930.4"/>
	<line fill="none" stroke="#BDE2D3" stroke-width="7.200000e-02" x1="526.3" y1="7.1" x2="526.3" y2="911"/>
	<line fill="none" stroke="#BDE2D3" stroke-width="0.216" x1="566" y1="7.1" x2="566" y2="944.1"/>
	<line fill="none" stroke="#BDE2D3" stroke-width="0.216" x1="570.7" y1="7.3" x2="570.7" y2="939.4"/>
	<line fill="none" stroke="#BDE2D3" stroke-width="0.432" x1="1045.9" y1="7.3" x2="1045.9" y2="109.9"/>
	<line fill="none" stroke="#BDE2D3" stroke-width="0.432" x1="1028.3" y1="7.1" x2="1028.3" y2="139.3"/>
	<line fill="none" stroke="#BDE2D3" stroke-width="0.432" x1="1005.6" y1="7.1" x2="1005.6" y2="180.1"/>
	<line fill="none" stroke="#BDE2D3" stroke-width="0.432" x1="985.4" y1="7.1" x2="985.4" y2="214"/>
	<line fill="none" stroke="#BDE2D3" stroke-width="7.200000e-02" x1="1039.1" y1="7.1" x2="1039.1" y2="118.2"/>
	<line fill="none" stroke="#BDE2D3" stroke-width="0.288" x1="1034.7" y1="7.3" x2="1034.7" y2="128.3"/>
	<line fill="none" stroke="#BDE2D3" stroke-width="7.200000e-02" x1="1040.9" y1="7.1" x2="1040.9" y2="115.3"/>
	<line fill="none" stroke="#BDE2D3" stroke-width="0.36" x1="1022.1" y1="7.1" x2="1022.1" y2="149.4"/>
	<line fill="none" stroke="#BDE2D3" stroke-width="0.576" x1="977.7" y1="7.3" x2="977.7" y2="229.6"/>
	<line fill="none" stroke="#BDE2D3" stroke-width="0.576" x1="992.6" y1="7.3" x2="992.6" y2="205.6"/>
	<line fill="none" stroke="#BDE2D3" stroke-width="0.36" x1="1015.3" y1="7.3" x2="1015.3" y2="162.9"/>
	<line fill="none" stroke="#BDE2D3" stroke-width="0.216" x1="1000.1" y1="7.3" x2="1000.1" y2="188.1"/>
	<line fill="none" stroke="#BDE2D3" stroke-width="7.200000e-02" x1="1011.1" y1="7.1" x2="1011.1" y2="166.7"/>
	<line fill="none" stroke="#BDE2D3" stroke-width="0.216" x1="971.4" y1="7.1" x2="971.4" y2="236.7"/>
	<line fill="none" stroke="#BDE2D3" stroke-width="0.216" x1="966.7" y1="7.3" x2="966.7" y2="245.3"/>
	<line fill="none" stroke="#BDE2D3" stroke-width="0.432" x1="950.8" y1="7.1" x2="950.8" y2="273.6"/>
	<line fill="none" stroke="#BDE2D3" stroke-width="0.432" x1="928.2" y1="7.1" x2="928.2" y2="312.4"/>
	<line fill="none" stroke="#BDE2D3" stroke-width="0.432" x1="908" y1="7.1" x2="908" y2="347.4"/>
	<line fill="none" stroke="#BDE2D3" stroke-width="7.200000e-02" x1="961.6" y1="7.3" x2="961.6" y2="251.1"/>
	<line fill="none" stroke="#BDE2D3" stroke-width="0.288" x1="957.3" y1="7.1" x2="957.3" y2="261.7"/>
	<line fill="none" stroke="#BDE2D3" stroke-width="7.200000e-02" x1="963.4" y1="7.3" x2="963.4" y2="248.5"/>
	<line fill="none" stroke="#BDE2D3" stroke-width="0.36" x1="944.7" y1="7.3" x2="944.7" y2="283.3"/>
	<line fill="none" stroke="#BDE2D3" stroke-width="0.576" x1="900.3" y1="7.3" x2="900.3" y2="364.1"/>
	<line fill="none" stroke="#BDE2D3" stroke-width="0.576" x1="915.2" y1="7.1" x2="915.2" y2="336.9"/>
	<line fill="none" stroke="#BDE2D3" stroke-width="0.36" x1="937.9" y1="7.1" x2="937.9" y2="294.9"/>
	<line fill="none" stroke="#BDE2D3" stroke-width="0.216" x1="922.6" y1="7.1" x2="922.6" y2="321.1"/>
	<line fill="none" stroke="#BDE2D3" stroke-width="7.200000e-02" x1="933.7" y1="7.1" x2="933.7" y2="300.7"/>
	<line fill="none" stroke="#BDE2D3" stroke-width="0.216" x1="894" y1="7.1" x2="894" y2="371.8"/>
	<line fill="none" stroke="#BDE2D3" stroke-width="0.216" x1="889.3" y1="7.3" x2="889.3" y2="379.6"/>
	<line fill="none" stroke="#BDE2D3" stroke-width="0.432" x1="882.4" y1="7.3" x2="882.4" y2="394.4"/>
	<line fill="none" stroke="#BDE2D3" stroke-width="0.432" x1="862.3" y1="7.3" x2="862.3" y2="428.9"/>
	<line fill="none" stroke="#BDE2D3" stroke-width="0.576" x1="854.6" y1="7.1" x2="854.6" y2="443.3"/>
	<line fill="none" stroke="#BDE2D3" stroke-width="0.576" x1="869.5" y1="7.1" x2="869.5" y2="417.4"/>
	<line fill="none" stroke="#BDE2D3" stroke-width="0.216" x1="876.9" y1="7.1" x2="876.9" y2="403"/>
	<line fill="none" stroke="#BDE2D3" stroke-width="0.216" x1="848.2" y1="7.1" x2="848.2" y2="455.7"/>
	<line fill="none" stroke="#BDE2D3" stroke-width="0.216" x1="843.6" y1="7.1" x2="843.6" y2="462.4"/>
	<line fill="none" stroke="#BDE2D3" stroke-width="0.432" x1="827.7" y1="7.3" x2="827.7" y2="490.2"/>
	<line fill="none" stroke="#BDE2D3" stroke-width="0.432" x1="805" y1="7.1" x2="805" y2="529.6"/>
	<line fill="none" stroke="#BDE2D3" stroke-width="0.432" x1="784.9" y1="7.3" x2="784.9" y2="563.7"/>
	<line fill="none" stroke="#BDE2D3" stroke-width="7.200000e-02" x1="838.5" y1="7.1" x2="838.5" y2="471.4"/>
	<line fill="none" stroke="#BDE2D3" stroke-width="0.288" x1="834.2" y1="7.3" x2="834.2" y2="478.2"/>
	<line fill="none" stroke="#BDE2D3" stroke-width="7.200000e-02" x1="840.3" y1="7.1" x2="840.3" y2="468.6"/>
	<line fill="none" stroke="#BDE2D3" stroke-width="0.36" x1="821.6" y1="7.3" x2="821.6" y2="500.3"/>
	<line fill="none" stroke="#BDE2D3" stroke-width="0.576" x1="777.2" y1="7.3" x2="777.2" y2="576.2"/>
	<line fill="none" stroke="#BDE2D3" stroke-width="0.576" x1="792.1" y1="7.3" x2="792.1" y2="551.7"/>
	<line fill="none" stroke="#BDE2D3" stroke-width="0.36" x1="814.8" y1="7.3" x2="814.8" y2="511.8"/>
	<line fill="none" stroke="#BDE2D3" stroke-width="0.216" x1="799.5" y1="7.3" x2="799.5" y2="538.2"/>
	<line fill="none" stroke="#BDE2D3" stroke-width="7.200000e-02" x1="810.6" y1="7.3" x2="810.6" y2="518.6"/>
	<line fill="none" stroke="#BDE2D3" stroke-width="0.216" x1="770.8" y1="7.1" x2="770.8" y2="587.7"/>
	<line fill="none" stroke="#BDE2D3" stroke-width="0.216" x1="766.2" y1="7.1" x2="766.2" y2="595.8"/>
	<line fill="none" stroke="#BDE2D3" stroke-width="0.432" x1="758.6" y1="7.1" x2="758.6" y2="613.6"/>
	<line fill="none" stroke="#BDE2D3" stroke-width="0.576" x1="750.9" y1="7.1" x2="750.9" y2="622.6"/>
	<line fill="none" stroke="#BDE2D3" stroke-width="0.216" x1="744.6" y1="7.3" x2="744.6" y2="633.4"/>
	<line fill="none" stroke="#BDE2D3" stroke-width="0.216" x1="739.9" y1="7.1" x2="739.9" y2="641.7"/>
	<line fill="none" stroke="#BDE2D3" stroke-width="0.432" x1="724" y1="7.3" x2="724" y2="668.3"/>
	<line fill="none" stroke="#BDE2D3" stroke-width="0.432" x1="701.4" y1="7.3" x2="701.4" y2="708.3"/>
	<line fill="none" stroke="#BDE2D3" stroke-width="0.432" x1="681.2" y1="7.1" x2="681.2" y2="743.6"/>
	<line fill="none" stroke="#BDE2D3" stroke-width="7.200000e-02" x1="734.8" y1="7.3" x2="734.8" y2="649.6"/>
	<line fill="none" stroke="#BDE2D3" stroke-width="0.288" x1="730.5" y1="7.3" x2="730.5" y2="657.5"/>
	<line fill="none" stroke="#BDE2D3" stroke-width="7.200000e-02" x1="736.6" y1="7.1" x2="736.6" y2="647.8"/>
	<line fill="none" stroke="#BDE2D3" stroke-width="0.36" x1="717.9" y1="7.3" x2="717.9" y2="679.5"/>
	<line fill="none" stroke="#BDE2D3" stroke-width="0.576" x1="673.5" y1="7.3" x2="673.5" y2="757.3"/>
	<line fill="none" stroke="#BDE2D3" stroke-width="0.576" x1="688.4" y1="7.3" x2="688.4" y2="731"/>
	<line fill="none" stroke="#BDE2D3" stroke-width="0.36" x1="711.1" y1="7.1" x2="711.1" y2="688.9"/>
	<line fill="none" stroke="#BDE2D3" stroke-width="0.216" x1="695.8" y1="7.3" x2="695.8" y2="716.6"/>
	<line fill="none" stroke="#BDE2D3" stroke-width="7.200000e-02" x1="706.9" y1="7.3" x2="706.9" y2="698.2"/>
	<line fill="none" stroke="#BDE2D3" stroke-width="0.216" x1="667.1" y1="7.1" x2="667.1" y2="766.3"/>
	<line fill="none" stroke="#BDE2D3" stroke-width="0.216" x1="662.5" y1="7.3" x2="662.5" y2="775.3"/>
	<line fill="none" stroke="#BDE2D3" stroke-width="0.432" x1="655.6" y1="7.1" x2="655.6" y2="787.1"/>
	<line fill="none" stroke="#BDE2D3" stroke-width="0.432" x1="635.5" y1="7.1" x2="635.5" y2="822.4"/>
	<line fill="none" stroke="#BDE2D3" stroke-width="0.576" x1="627.8" y1="7.1" x2="627.8" y2="835.4"/>
	<line fill="none" stroke="#BDE2D3" stroke-width="0.576" x1="642.7" y1="7.1" x2="642.7" y2="809.8"/>
	<line fill="none" stroke="#BDE2D3" stroke-width="0.216" x1="650.1" y1="7.3" x2="650.1" y2="793.2"/>
	<line fill="none" stroke="#BDE2D3" stroke-width="0.216" x1="621.4" y1="7.1" x2="621.4" y2="846.2"/>
	<line fill="none" stroke="#BDE2D3" stroke-width="0.216" x1="616.7" y1="7.1" x2="616.7" y2="854.5"/>
	<line fill="none" stroke="#BDE2D3" stroke-width="0.432" x1="600.9" y1="7.1" x2="600.9" y2="881.8"/>
	<line fill="none" stroke="#BDE2D3" stroke-width="0.432" x1="578.2" y1="7.1" x2="578.2" y2="920.4"/>
	<line fill="none" stroke="#BDE2D3" stroke-width="7.200000e-02" x1="611.7" y1="7.1" x2="611.7" y2="864.5"/>
	<line fill="none" stroke="#BDE2D3" stroke-width="0.288" x1="607.4" y1="7.3" x2="607.4" y2="871"/>
	<line fill="none" stroke="#BDE2D3" stroke-width="7.200000e-02" x1="613.5" y1="7.3" x2="613.5" y2="859.9"/>
	<line fill="none" stroke="#BDE2D3" stroke-width="0.36" x1="594.8" y1="7.3" x2="594.8" y2="893"/>
	<line fill="none" stroke="#BDE2D3" stroke-width="0.36" x1="587.9" y1="7.3" x2="587.9" y2="904.5"/>
	<line fill="none" stroke="#BDE2D3" stroke-width="7.200000e-02" x1="583.7" y1="7.1" x2="583.7" y2="911"/>
	<line fill="none" stroke="#BDE2D3" stroke-width="0.288" x1="1082.5" y1="7.3" x2="1082.5" y2="56.2"/>
	<line fill="none" stroke="#BDE2D3" stroke-width="0.432" x1="1058.6" y1="7.3" x2="1058.6" y2="89.6"/>
	<line fill="none" stroke="#BDE2D3" stroke-width="0.576" x1="1098.6" y1="7.3" x2="1098.6" y2="35.4"/>
	<line fill="none" stroke="#BDE2D3" stroke-width="0.432" x1="1091.1" y1="7.3" x2="1091.1" y2="45.3"/>
	<line fill="none" stroke="#BDE2D3" stroke-width="7.200000e-02" x1="1079.3" y1="7.3" x2="1079.3" y2="58.5"/>
	<line fill="none" stroke="#BDE2D3" stroke-width="7.200000e-02" x1="1086.6" y1="7.3" x2="1086.6" y2="49.3"/>
	<line fill="none" stroke="#BDE2D3" stroke-width="0.504" x1="1074.6" y1="7.3" x2="1074.6" y2="68.4"/>
	<line fill="none" stroke="#BDE2D3" stroke-width="7.200000e-02" x1="1105.1" y1="7.1" x2="1105.1" y2="22.9"/>
	<line fill="none" stroke="#BDE2D3" stroke-width="7.200000e-02" x1="1051.8" y1="7.1" x2="1051.8" y2="96.1"/>
	<line fill="none" stroke="#BDE2D3" stroke-width="7.200000e-02" x1="1053.6" y1="7.3" x2="1053.6" y2="93.8"/>
	<line fill="none" stroke="#BDE2D3" stroke-width="0.504" x1="1066.5" y1="7.3" x2="1066.5" y2="79"/>
	<path fill="none" stroke="#BDE2D3" stroke-width="0.432" d="M5.1,3"/>
	<line fill="none" stroke="#BDE2D3" stroke-width="0.288" x1="12.3" y1="7.1" x2="12.3" y2="21.2"/>
	<line fill="none" stroke="#B82265" stroke-width="0.288" x1="-23" y1="29.7" x2="-23" y2="35.9"/>
	<g>
		<path fill="none" stroke="#B82265" stroke-width="7.200000e-02" d="M-2403,341"/>
		<path fill="none" stroke="#B82265" stroke-width="7.200000e-02" d="M-2403,341"/>
		<line fill="none" stroke="#BDE2D3" stroke-width="0.288" x1="-2381.1" y1="343.6" x2="-2381.1" y2="381.3"/>
		<line fill="none" stroke="#BDE2D3" stroke-width="0.432" x1="-2366.2" y1="343.7" x2="-2366.2" y2="407.6"/>
		<line fill="none" stroke="#BDE2D3" stroke-width="0.432" x1="-2355.3" y1="343.6" x2="-2355.3" y2="425.9"/>
		<line fill="none" stroke="#BDE2D3" stroke-width="0.576" x1="-2391.1" y1="343.6" x2="-2391.1" y2="365.1"/>
		<line fill="none" stroke="#BDE2D3" stroke-width="0.432" x1="-2341.1" y1="343.6" x2="-2341.1" y2="451.3"/>
		<line fill="none" stroke="#BDE2D3" stroke-width="0.432" x1="-2328.6" y1="343.6" x2="-2328.6" y2="472.4"/>
		<line fill="none" stroke="#BDE2D3" stroke-width="0.432" x1="-2386.5" y1="343.6" x2="-2386.5" y2="372.8"/>
		<line fill="none" stroke="#BDE2D3" stroke-width="7.200000e-02" x1="-2379.1" y1="343.6" x2="-2379.1" y2="383.1"/>
		<line fill="none" stroke="#BDE2D3" stroke-width="7.200000e-02" x1="-2383.7" y1="343.6" x2="-2383.7" y2="376"/>
		<line fill="none" stroke="#BDE2D3" stroke-width="0.504" x1="-2376.2" y1="343.6" x2="-2376.2" y2="391"/>
		<line fill="none" stroke="#BDE2D3" stroke-width="7.200000e-02" x1="-2395.2" y1="343.6" x2="-2395.2" y2="355.2"/>
		<path fill="none" stroke="#B82265" stroke-width="7.200000e-02" d="M-2403,341"/>
		<line fill="none" stroke="#BDE2D3" stroke-width="7.200000e-02" x1="-2362" y1="343.6" x2="-2362" y2="412.7"/>
		<line fill="none" stroke="#BDE2D3" stroke-width="0.288" x1="-2359.3" y1="343.6" x2="-2359.3" y2="419"/>
		<line fill="none" stroke="#BDE2D3" stroke-width="7.200000e-02" x1="-2363.1" y1="343.6" x2="-2363.1" y2="410.9"/>
		<line fill="none" stroke="#BDE2D3" stroke-width="0.36" x1="-2351.4" y1="343.6" x2="-2351.4" y2="432.2"/>
		<line fill="none" stroke="#BDE2D3" stroke-width="0.576" x1="-2323.8" y1="343.6" x2="-2323.8" y2="482.1"/>
		<line fill="none" stroke="#BDE2D3" stroke-width="0.576" x1="-2333.1" y1="343.6" x2="-2333.1" y2="467.1"/>
		<line fill="none" stroke="#BDE2D3" stroke-width="0.36" x1="-2347.2" y1="343.6" x2="-2347.2" y2="440.5"/>
		<line fill="none" stroke="#BDE2D3" stroke-width="0.216" x1="-2337.7" y1="343.6" x2="-2337.7" y2="456.2"/>
		<line fill="none" stroke="#BDE2D3" stroke-width="7.200000e-02" x1="-2344.6" y1="343.6" x2="-2344.6" y2="442.9"/>
		<line fill="none" stroke="#BDE2D3" stroke-width="0.216" x1="-2319.8" y1="343.6" x2="-2319.8" y2="486.5"/>
		<line fill="none" stroke="#BDE2D3" stroke-width="0.216" x1="-2316.9" y1="343.6" x2="-2316.9" y2="491.9"/>
		<line fill="none" stroke="#BDE2D3" stroke-width="0.432" x1="-2307.1" y1="343.6" x2="-2307.1" y2="509.5"/>
		<line fill="none" stroke="#BDE2D3" stroke-width="0.432" x1="-2292.9" y1="343.6" x2="-2292.9" y2="533.7"/>
		<line fill="none" stroke="#BDE2D3" stroke-width="0.432" x1="-2280.4" y1="343.6" x2="-2280.4" y2="555.4"/>
		<line fill="none" stroke="#BDE2D3" stroke-width="7.200000e-02" x1="-2313.8" y1="343.6" x2="-2313.8" y2="495.4"/>
		<line fill="none" stroke="#BDE2D3" stroke-width="0.288" x1="-2311.1" y1="343.6" x2="-2311.1" y2="502.1"/>
		<line fill="none" stroke="#BDE2D3" stroke-width="7.200000e-02" x1="-2314.9" y1="343.6" x2="-2314.9" y2="493.9"/>
		<line fill="none" stroke="#BDE2D3" stroke-width="0.36" x1="-2303.2" y1="343.6" x2="-2303.2" y2="515.5"/>
		<line fill="none" stroke="#BDE2D3" stroke-width="0.576" x1="-2275.6" y1="343.6" x2="-2275.6" y2="565.8"/>
		<line fill="none" stroke="#BDE2D3" stroke-width="0.576" x1="-2284.9" y1="343.6" x2="-2284.9" y2="548.9"/>
		<line fill="none" stroke="#BDE2D3" stroke-width="0.36" x1="-2299" y1="343.6" x2="-2299" y2="522.7"/>
		<line fill="none" stroke="#BDE2D3" stroke-width="0.216" x1="-2289.5" y1="343.6" x2="-2289.5" y2="539"/>
		<line fill="none" stroke="#BDE2D3" stroke-width="7.200000e-02" x1="-2296.4" y1="343.9" x2="-2296.4" y2="526.4"/>
		<line fill="none" stroke="#BDE2D3" stroke-width="0.216" x1="-2271.6" y1="343.6" x2="-2271.6" y2="570.7"/>
		<line fill="none" stroke="#BDE2D3" stroke-width="0.216" x1="-2268.7" y1="343.6" x2="-2268.7" y2="575.5"/>
		<line fill="none" stroke="#BDE2D3" stroke-width="0.504" x1="-2371.2" y1="343.6" x2="-2371.2" y2="399.3"/>
		<line fill="none" stroke="#BDE2D3" stroke-width="0.432" x1="-2264.5" y1="343.6" x2="-2264.5" y2="584.7"/>
		<line fill="none" stroke="#BDE2D3" stroke-width="0.432" x1="-2251.9" y1="343.6" x2="-2251.9" y2="606.2"/>
		<line fill="none" stroke="#BDE2D3" stroke-width="0.576" x1="-2247.1" y1="343.6" x2="-2247.1" y2="615.1"/>
		<line fill="none" stroke="#BDE2D3" stroke-width="0.576" x1="-2256.4" y1="343.6" x2="-2256.4" y2="599"/>
		<line fill="none" stroke="#BDE2D3" stroke-width="0.216" x1="-2261" y1="343.6" x2="-2261" y2="590"/>
		<line fill="none" stroke="#BDE2D3" stroke-width="0.216" x1="-2243.2" y1="343.6" x2="-2243.2" y2="622.8"/>
		<line fill="none" stroke="#BDE2D3" stroke-width="0.216" x1="-2240.3" y1="343.6" x2="-2240.3" y2="627"/>
		<line fill="none" stroke="#BDE2D3" stroke-width="0.432" x1="-2230.4" y1="343.6" x2="-2230.4" y2="644.4"/>
		<line fill="none" stroke="#BDE2D3" stroke-width="0.432" x1="-2216.3" y1="343.9" x2="-2216.3" y2="668.9"/>
		<line fill="none" stroke="#BDE2D3" stroke-width="0.432" x1="-2203.7" y1="343.7" x2="-2203.7" y2="690.1"/>
		<line fill="none" stroke="#BDE2D3" stroke-width="7.200000e-02" x1="-2237.1" y1="343.7" x2="-2237.1" y2="632.6"/>
		<line fill="none" stroke="#BDE2D3" stroke-width="0.288" x1="-2234.4" y1="343.6" x2="-2234.4" y2="636.9"/>
		<line fill="none" stroke="#BDE2D3" stroke-width="7.200000e-02" x1="-2238.2" y1="343.7" x2="-2238.2" y2="630.9"/>
		<line fill="none" stroke="#BDE2D3" stroke-width="0.36" x1="-2226.6" y1="343.6" x2="-2226.6" y2="650.6"/>
		<line fill="none" stroke="#BDE2D3" stroke-width="0.576" x1="-2198.9" y1="343.7" x2="-2198.9" y2="697.9"/>
		<line fill="none" stroke="#BDE2D3" stroke-width="0.576" x1="-2208.2" y1="343.6" x2="-2208.2" y2="682.7"/>
		<line fill="none" stroke="#BDE2D3" stroke-width="0.36" x1="-2222.3" y1="343.9" x2="-2222.3" y2="657.9"/>
		<line fill="none" stroke="#BDE2D3" stroke-width="0.216" x1="-2212.8" y1="343.8" x2="-2212.8" y2="674.2"/>
		<line fill="none" stroke="#BDE2D3" stroke-width="7.200000e-02" x1="-2219.7" y1="343.8" x2="-2219.7" y2="662.1"/>
		<line fill="none" stroke="#BDE2D3" stroke-width="0.216" x1="-2195" y1="343.6" x2="-2195" y2="705"/>
		<line fill="none" stroke="#BDE2D3" stroke-width="0.216" x1="-2192.1" y1="343.6" x2="-2192.1" y2="710.1"/>
		<line fill="none" stroke="#BDE2D3" stroke-width="0.432" x1="-2187.4" y1="343.6" x2="-2187.4" y2="721.2"/>
		<line fill="none" stroke="#BDE2D3" stroke-width="0.576" x1="-2182.6" y1="343.6" x2="-2182.6" y2="726.8"/>
		<line fill="none" stroke="#BDE2D3" stroke-width="0.216" x1="-2178.6" y1="343.6" x2="-2178.6" y2="733.5"/>
		<line fill="none" stroke="#BDE2D3" stroke-width="0.216" x1="-2175.7" y1="343.6" x2="-2175.7" y2="738.7"/>
		<line fill="none" stroke="#BDE2D3" stroke-width="0.432" x1="-2165.8" y1="343.7" x2="-2165.8" y2="755.2"/>
		<line fill="none" stroke="#BDE2D3" stroke-width="0.432" x1="-2151.7" y1="343.6" x2="-2151.7" y2="780.1"/>
		<line fill="none" stroke="#BDE2D3" stroke-width="0.432" x1="-2139.2" y1="343.6" x2="-2139.2" y2="802.1"/>
		<line fill="none" stroke="#BDE2D3" stroke-width="7.200000e-02" x1="-2172.6" y1="343.6" x2="-2172.6" y2="743.6"/>
		<line fill="none" stroke="#BDE2D3" stroke-width="0.288" x1="-2169.9" y1="343.7" x2="-2169.9" y2="748.5"/>
		<line fill="none" stroke="#BDE2D3" stroke-width="7.200000e-02" x1="-2173.7" y1="343.6" x2="-2173.7" y2="742.5"/>
		<line fill="none" stroke="#BDE2D3" stroke-width="0.36" x1="-2162" y1="343.6" x2="-2162" y2="762.2"/>
		<line fill="none" stroke="#BDE2D3" stroke-width="0.576" x1="-2134.4" y1="343.6" x2="-2134.4" y2="810.6"/>
		<line fill="none" stroke="#BDE2D3" stroke-width="0.576" x1="-2143.6" y1="343.6" x2="-2143.6" y2="794.2"/>
		<line fill="none" stroke="#BDE2D3" stroke-width="0.36" x1="-2157.8" y1="343.6" x2="-2157.8" y2="768"/>
		<line fill="none" stroke="#BDE2D3" stroke-width="0.216" x1="-2148.3" y1="343.6" x2="-2148.3" y2="785.3"/>
		<line fill="none" stroke="#BDE2D3" stroke-width="7.200000e-02" x1="-2155.2" y1="343.6" x2="-2155.2" y2="773.9"/>
		<line fill="none" stroke="#BDE2D3" stroke-width="0.216" x1="-2130.4" y1="343.6" x2="-2130.4" y2="816.2"/>
		<line fill="none" stroke="#BDE2D3" stroke-width="0.216" x1="-2127.5" y1="343.6" x2="-2127.5" y2="821.8"/>
		<line fill="none" stroke="#BDE2D3" stroke-width="0.432" x1="-2123.3" y1="343.6" x2="-2123.3" y2="829.2"/>
		<line fill="none" stroke="#BDE2D3" stroke-width="0.432" x1="-2110.7" y1="343.6" x2="-2110.7" y2="851.2"/>
		<line fill="none" stroke="#BDE2D3" stroke-width="0.576" x1="-2105.9" y1="343.6" x2="-2105.9" y2="859.3"/>
		<line fill="none" stroke="#BDE2D3" stroke-width="0.576" x1="-2115.2" y1="343.6" x2="-2115.2" y2="843.3"/>
		<line fill="none" stroke="#BDE2D3" stroke-width="0.216" x1="-2119.8" y1="343.7" x2="-2119.8" y2="833"/>
		<line fill="none" stroke="#BDE2D3" stroke-width="0.216" x1="-2102" y1="343.7" x2="-2102" y2="866"/>
		<line fill="none" stroke="#BDE2D3" stroke-width="0.216" x1="-2099" y1="343.6" x2="-2099" y2="871.1"/>
		<line fill="none" stroke="#BDE2D3" stroke-width="0.432" x1="-2089.2" y1="343.6" x2="-2089.2" y2="888.2"/>
		<line fill="none" stroke="#BDE2D3" stroke-width="0.432" x1="-2075.1" y1="343.6" x2="-2075.1" y2="912.2"/>
		<line fill="none" stroke="#BDE2D3" stroke-width="0.432" x1="-2062.5" y1="343.6" x2="-2062.5" y2="934.6"/>
		<line fill="none" stroke="#BDE2D3" stroke-width="7.200000e-02" x1="-2095.9" y1="343.6" x2="-2095.9" y2="877.4"/>
		<line fill="none" stroke="#BDE2D3" stroke-width="0.288" x1="-2093.2" y1="343.6" x2="-2093.2" y2="881.4"/>
		<line fill="none" stroke="#BDE2D3" stroke-width="7.200000e-02" x1="-2097" y1="343.6" x2="-2097" y2="874.5"/>
		<line fill="none" stroke="#BDE2D3" stroke-width="0.36" x1="-2085.4" y1="343.7" x2="-2085.4" y2="895.1"/>
		<line fill="none" stroke="#BDE2D3" stroke-width="0.576" x1="-2057.7" y1="343.6" x2="-2057.7" y2="936.6"/>
		<line fill="none" stroke="#BDE2D3" stroke-width="0.576" x1="-2067" y1="343.7" x2="-2067" y2="927.6"/>
		<line fill="none" stroke="#BDE2D3" stroke-width="0.36" x1="-2081.1" y1="343.7" x2="-2081.1" y2="902.3"/>
		<line fill="none" stroke="#BDE2D3" stroke-width="0.216" x1="-2071.6" y1="343.7" x2="-2071.6" y2="918.4"/>
		<line fill="none" stroke="#BDE2D3" stroke-width="7.200000e-02" x1="-2078.5" y1="343.6" x2="-2078.5" y2="906.3"/>
		<line fill="none" stroke="#BDE2D3" stroke-width="0.216" x1="-2053.8" y1="343.6" x2="-2053.8" y2="926.9"/>
		<line fill="none" stroke="#BDE2D3" stroke-width="0.216" x1="-2050.8" y1="343.7" x2="-2050.8" y2="924"/>
		<line fill="none" stroke="#BDE2D3" stroke-width="0.432" x1="-1755" y1="343.7" x2="-1755" y2="407.6"/>
		<line fill="none" stroke="#BDE2D3" stroke-width="0.432" x1="-1765.9" y1="343.6" x2="-1765.9" y2="425.9"/>
		<line fill="none" stroke="#BDE2D3" stroke-width="0.432" x1="-1780.1" y1="343.6" x2="-1780.1" y2="451.3"/>
		<line fill="none" stroke="#BDE2D3" stroke-width="0.432" x1="-1792.6" y1="343.6" x2="-1792.6" y2="472.4"/>
		<line fill="none" stroke="#BDE2D3" stroke-width="7.200000e-02" x1="-1759.2" y1="343.6" x2="-1759.2" y2="412.7"/>
		<line fill="none" stroke="#BDE2D3" stroke-width="0.288" x1="-1761.9" y1="343.7" x2="-1761.9" y2="419"/>
		<line fill="none" stroke="#BDE2D3" stroke-width="7.200000e-02" x1="-1758.1" y1="343.6" x2="-1758.1" y2="410.9"/>
		<line fill="none" stroke="#BDE2D3" stroke-width="0.36" x1="-1769.8" y1="343.6" x2="-1769.8" y2="432.2"/>
		<line fill="none" stroke="#BDE2D3" stroke-width="0.576" x1="-1797.4" y1="343.7" x2="-1797.4" y2="482.1"/>
		<line fill="none" stroke="#BDE2D3" stroke-width="0.576" x1="-1788.1" y1="343.7" x2="-1788.1" y2="467.1"/>
		<line fill="none" stroke="#BDE2D3" stroke-width="0.36" x1="-1774" y1="343.7" x2="-1774" y2="440.5"/>
		<line fill="none" stroke="#BDE2D3" stroke-width="0.216" x1="-1783.5" y1="343.7" x2="-1783.5" y2="456.2"/>
		<line fill="none" stroke="#BDE2D3" stroke-width="7.200000e-02" x1="-1776.6" y1="343.6" x2="-1776.6" y2="442.9"/>
		<line fill="none" stroke="#BDE2D3" stroke-width="0.216" x1="-1801.4" y1="343.6" x2="-1801.4" y2="486.5"/>
		<line fill="none" stroke="#BDE2D3" stroke-width="0.216" x1="-1804.3" y1="343.7" x2="-1804.3" y2="491.9"/>
		<line fill="none" stroke="#BDE2D3" stroke-width="0.432" x1="-1814.1" y1="343.6" x2="-1814.1" y2="509.5"/>
		<line fill="none" stroke="#BDE2D3" stroke-width="0.432" x1="-1828.3" y1="343.6" x2="-1828.3" y2="533.7"/>
		<line fill="none" stroke="#BDE2D3" stroke-width="0.432" x1="-1840.8" y1="343.6" x2="-1840.8" y2="555.4"/>
		<line fill="none" stroke="#BDE2D3" stroke-width="7.200000e-02" x1="-1807.4" y1="343.7" x2="-1807.4" y2="495.4"/>
		<line fill="none" stroke="#BDE2D3" stroke-width="0.288" x1="-1810.1" y1="343.6" x2="-1810.1" y2="502.1"/>
		<line fill="none" stroke="#BDE2D3" stroke-width="7.200000e-02" x1="-1806.3" y1="343.7" x2="-1806.3" y2="493.9"/>
		<line fill="none" stroke="#BDE2D3" stroke-width="0.36" x1="-1817.9" y1="343.7" x2="-1817.9" y2="515.5"/>
		<line fill="none" stroke="#BDE2D3" stroke-width="0.576" x1="-1845.6" y1="343.7" x2="-1845.6" y2="565.8"/>
		<line fill="none" stroke="#BDE2D3" stroke-width="0.576" x1="-1836.3" y1="343.6" x2="-1836.3" y2="548.9"/>
		<line fill="none" stroke="#BDE2D3" stroke-width="0.36" x1="-1822.2" y1="343.6" x2="-1822.2" y2="522.7"/>
		<line fill="none" stroke="#BDE2D3" stroke-width="0.216" x1="-1831.7" y1="343.6" x2="-1831.7" y2="539"/>
		<line fill="none" stroke="#BDE2D3" stroke-width="7.200000e-02" x1="-1824.8" y1="343.6" x2="-1824.8" y2="526.4"/>
		<line fill="none" stroke="#BDE2D3" stroke-width="0.216" x1="-1849.6" y1="343.6" x2="-1849.6" y2="570.7"/>
		<line fill="none" stroke="#BDE2D3" stroke-width="0.216" x1="-1852.5" y1="343.7" x2="-1852.5" y2="575.5"/>
		<line fill="none" stroke="#BDE2D3" stroke-width="0.432" x1="-1856.7" y1="343.7" x2="-1856.7" y2="584.7"/>
		<line fill="none" stroke="#BDE2D3" stroke-width="0.432" x1="-1869.3" y1="343.7" x2="-1869.3" y2="606.2"/>
		<line fill="none" stroke="#BDE2D3" stroke-width="0.576" x1="-1874.1" y1="343.6" x2="-1874.1" y2="615.1"/>
		<line fill="none" stroke="#BDE2D3" stroke-width="0.576" x1="-1864.8" y1="343.6" x2="-1864.8" y2="599"/>
		<line fill="none" stroke="#BDE2D3" stroke-width="0.216" x1="-1860.2" y1="343.6" x2="-1860.2" y2="590"/>
		<line fill="none" stroke="#BDE2D3" stroke-width="0.216" x1="-1878" y1="343.6" x2="-1878" y2="622.8"/>
		<line fill="none" stroke="#BDE2D3" stroke-width="0.216" x1="-1880.9" y1="343.6" x2="-1880.9" y2="627"/>
		<line fill="none" stroke="#BDE2D3" stroke-width="0.432" x1="-1890.8" y1="343.7" x2="-1890.8" y2="644.4"/>
		<line fill="none" stroke="#BDE2D3" stroke-width="0.432" x1="-1904.9" y1="343.6" x2="-1904.9" y2="668.9"/>
		<line fill="none" stroke="#BDE2D3" stroke-width="0.432" x1="-1917.5" y1="343.7" x2="-1917.5" y2="690.1"/>
		<line fill="none" stroke="#BDE2D3" stroke-width="7.200000e-02" x1="-1884.1" y1="343.6" x2="-1884.1" y2="632.6"/>
		<line fill="none" stroke="#BDE2D3" stroke-width="0.288" x1="-1886.8" y1="343.7" x2="-1886.8" y2="636.9"/>
		<line fill="none" stroke="#BDE2D3" stroke-width="7.200000e-02" x1="-1883" y1="343.6" x2="-1883" y2="630.9"/>
		<line fill="none" stroke="#BDE2D3" stroke-width="0.36" x1="-1894.6" y1="343.7" x2="-1894.6" y2="650.6"/>
		<line fill="none" stroke="#BDE2D3" stroke-width="0.576" x1="-1922.3" y1="343.7" x2="-1922.3" y2="697.9"/>
		<line fill="none" stroke="#BDE2D3" stroke-width="0.576" x1="-1913" y1="343.7" x2="-1913" y2="682.6"/>
		<line fill="none" stroke="#BDE2D3" stroke-width="0.36" x1="-1898.9" y1="343.7" x2="-1898.9" y2="657.8"/>
		<line fill="none" stroke="#BDE2D3" stroke-width="0.216" x1="-1908.4" y1="343.7" x2="-1908.4" y2="674.2"/>
		<line fill="none" stroke="#BDE2D3" stroke-width="7.200000e-02" x1="-1901.5" y1="343.7" x2="-1901.5" y2="662"/>
		<line fill="none" stroke="#BDE2D3" stroke-width="0.216" x1="-1926.2" y1="343.6" x2="-1926.2" y2="705"/>
		<line fill="none" stroke="#BDE2D3" stroke-width="0.216" x1="-1929.1" y1="343.6" x2="-1929.1" y2="710.1"/>
		<line fill="none" stroke="#BDE2D3" stroke-width="0.432" x1="-1933.8" y1="343.6" x2="-1933.8" y2="721.2"/>
		<line fill="none" stroke="#BDE2D3" stroke-width="0.576" x1="-1938.6" y1="343.6" x2="-1938.6" y2="726.8"/>
		<line fill="none" stroke="#BDE2D3" stroke-width="0.216" x1="-1942.6" y1="343.7" x2="-1942.6" y2="733.5"/>
		<line fill="none" stroke="#BDE2D3" stroke-width="0.216" x1="-1945.5" y1="343.6" x2="-1945.5" y2="738.7"/>
		<line fill="none" stroke="#BDE2D3" stroke-width="0.432" x1="-1955.4" y1="343.7" x2="-1955.4" y2="755.2"/>
		<line fill="none" stroke="#BDE2D3" stroke-width="0.432" x1="-1969.5" y1="343.7" x2="-1969.5" y2="780.1"/>
		<line fill="none" stroke="#BDE2D3" stroke-width="0.432" x1="-1982" y1="343.6" x2="-1982" y2="802.1"/>
		<line fill="none" stroke="#BDE2D3" stroke-width="7.200000e-02" x1="-1948.6" y1="343.7" x2="-1948.6" y2="743.6"/>
		<line fill="none" stroke="#BDE2D3" stroke-width="0.288" x1="-1951.3" y1="343.7" x2="-1951.3" y2="748.5"/>
		<line fill="none" stroke="#BDE2D3" stroke-width="7.200000e-02" x1="-1947.5" y1="343.6" x2="-1947.5" y2="742.5"/>
		<line fill="none" stroke="#BDE2D3" stroke-width="0.36" x1="-1959.2" y1="343.7" x2="-1959.2" y2="762.2"/>
		<line fill="none" stroke="#BDE2D3" stroke-width="0.576" x1="-1986.8" y1="343.7" x2="-1986.8" y2="810.6"/>
		<line fill="none" stroke="#BDE2D3" stroke-width="0.576" x1="-1977.5" y1="343.7" x2="-1977.5" y2="794.2"/>
		<line fill="none" stroke="#BDE2D3" stroke-width="0.36" x1="-1963.4" y1="343.6" x2="-1963.4" y2="768"/>
		<line fill="none" stroke="#BDE2D3" stroke-width="0.216" x1="-1972.9" y1="343.7" x2="-1972.9" y2="785.3"/>
		<line fill="none" stroke="#BDE2D3" stroke-width="7.200000e-02" x1="-1966" y1="343.7" x2="-1966" y2="773.9"/>
		<line fill="none" stroke="#BDE2D3" stroke-width="0.216" x1="-1990.8" y1="343.6" x2="-1990.8" y2="816.2"/>
		<line fill="none" stroke="#BDE2D3" stroke-width="0.216" x1="-1993.7" y1="343.7" x2="-1993.7" y2="821.8"/>
		<line fill="none" stroke="#BDE2D3" stroke-width="0.432" x1="-1997.9" y1="343.6" x2="-1997.9" y2="829.2"/>
		<line fill="none" stroke="#BDE2D3" stroke-width="0.432" x1="-2010.5" y1="343.6" x2="-2010.5" y2="851.2"/>
		<line fill="none" stroke="#BDE2D3" stroke-width="0.576" x1="-2015.3" y1="343.6" x2="-2015.3" y2="859.3"/>
		<line fill="none" stroke="#BDE2D3" stroke-width="0.576" x1="-2006" y1="343.6" x2="-2006" y2="843.3"/>
		<line fill="none" stroke="#BDE2D3" stroke-width="0.216" x1="-2001.4" y1="343.7" x2="-2001.4" y2="833"/>
		<line fill="none" stroke="#BDE2D3" stroke-width="0.216" x1="-2019.2" y1="343.6" x2="-2019.2" y2="866"/>
		<line fill="none" stroke="#BDE2D3" stroke-width="0.216" x1="-2022.2" y1="343.6" x2="-2022.2" y2="871.1"/>
		<line fill="none" stroke="#BDE2D3" stroke-width="0.432" x1="-2032" y1="343.6" x2="-2032" y2="888.2"/>
		<line fill="none" stroke="#BDE2D3" stroke-width="0.432" x1="-2046.1" y1="343.6" x2="-2046.1" y2="912.2"/>
		<line fill="none" stroke="#BDE2D3" stroke-width="7.200000e-02" x1="-2025.3" y1="343.6" x2="-2025.3" y2="877.4"/>
		<line fill="none" stroke="#BDE2D3" stroke-width="0.288" x1="-2028" y1="343.7" x2="-2028" y2="881.4"/>
		<line fill="none" stroke="#BDE2D3" stroke-width="7.200000e-02" x1="-2024.2" y1="343.7" x2="-2024.2" y2="874.5"/>
		<line fill="none" stroke="#BDE2D3" stroke-width="0.36" x1="-2035.8" y1="343.7" x2="-2035.8" y2="895.1"/>
		<line fill="none" stroke="#BDE2D3" stroke-width="0.36" x1="-2040.1" y1="343.7" x2="-2040.1" y2="902.3"/>
		<line fill="none" stroke="#BDE2D3" stroke-width="7.200000e-02" x1="-2042.7" y1="343.6" x2="-2042.7" y2="906.3"/>
		<line fill="none" stroke="#BDE2D3" stroke-width="0.288" x1="-1732.2" y1="343.7" x2="-1732.2" y2="374.1"/>
		<line fill="none" stroke="#BDE2D3" stroke-width="0.432" x1="-1747" y1="343.7" x2="-1747" y2="394.9"/>
		<line fill="none" stroke="#BDE2D3" stroke-width="0.576" x1="-1722.2" y1="343.7" x2="-1722.2" y2="361.2"/>
		<line fill="none" stroke="#BDE2D3" stroke-width="0.432" x1="-1726.8" y1="343.7" x2="-1726.8" y2="367.4"/>
		<line fill="none" stroke="#BDE2D3" stroke-width="7.200000e-02" x1="-1734.2" y1="343.7" x2="-1734.2" y2="375.5"/>
		<line fill="none" stroke="#BDE2D3" stroke-width="7.200000e-02" x1="-1729.6" y1="343.7" x2="-1729.6" y2="369.8"/>
		<line fill="none" stroke="#BDE2D3" stroke-width="0.504" x1="-1737.1" y1="343.7" x2="-1737.1" y2="381.7"/>
		<line fill="none" stroke="#BDE2D3" stroke-width="7.200000e-02" x1="-1718.1" y1="343.6" x2="-1718.1" y2="353.4"/>
		<line fill="none" stroke="#BDE2D3" stroke-width="7.200000e-02" x1="-1751.3" y1="343.6" x2="-1751.3" y2="399"/>
		<line fill="none" stroke="#BDE2D3" stroke-width="7.200000e-02" x1="-1750.2" y1="343.7" x2="-1750.2" y2="397.6"/>
		<line fill="none" stroke="#BDE2D3" stroke-width="0.504" x1="-1742.1" y1="343.7" x2="-1742.1" y2="388.3"/>
		<path fill="none" stroke="#BDE2D3" stroke-width="0.432" d="M-2403,341"/>
		<line fill="none" stroke="#BDE2D3" stroke-width="0.288" x1="-2398.5" y1="343.6" x2="-2398.5" y2="352.4"/>
	</g>
</g>
</svg>
