<?xml version="1.0" encoding="utf-8"?>
<!-- Generator: Adobe Illustrator 18.1.0, SVG Export Plug-In . SVG Version: 6.00 Build 0)  -->
<!DOCTYPE svg PUBLIC "-//W3C//DTD SVG 1.1//EN" "http://www.w3.org/Graphics/SVG/1.1/DTD/svg11.dtd">
<svg version="1.1" xmlns="http://www.w3.org/2000/svg" xmlns:xlink="http://www.w3.org/1999/xlink" x="0px" y="0px"
	 viewBox="0 0 18.2 26.2" enable-background="new 0 0 18.2 26.2" xml:space="preserve">
<g id="Layer_1" display="none">
	
		<image display="inline" overflow="visible" width="1920" height="1300" xlink:href="6F4C3C90212573A2.jpg"  transform="matrix(1 0 0 1 -1732.7634 -792.3625)">
	</image>
	
		<image display="inline" overflow="visible" width="520" height="528" xlink:href="6F4C3C90212573A6.png"  transform="matrix(5.641026e-02 0 0 5.641026e-02 -295.4301 -475.0292)">
	</image>
</g>
<g id="Layer_2">
	<g>
		<g>
			<path fill="#B72265" d="M-24,17.2c-0.2,0.2-0.2,0.6,0,0.8l0.6,0.6c0.2,0.2,0.6,0.2,0.8,0l5.6-6c0.1-0.1,0.1-0.3,0-0.4l-0.9-1
				c-0.1-0.1-0.3-0.1-0.4,0L-24,17.2z"/>
			<path fill="#B72265" d="M-6.3,17.2l-5.7-6.1c-0.1-0.1-0.3-0.1-0.4,0l-0.9,1c-0.1,0.1-0.1,0.3,0,0.4l5.7,6c0.2,0.2,0.5,0.2,0.7,0
				l0.7-0.6C-6.2,17.7-6.1,17.4-6.3,17.2z"/>
		</g>
		<path fill="#B72265" d="M-6.4,6.7L-7,6.1c-0.2-0.2-0.6-0.2-0.8,0l-7.1,7.5c-0.2,0.2-0.5,0.2-0.6,0l-7.1-7.6
			c-0.2-0.2-0.5-0.2-0.7,0L-24,6.7c-0.2,0.2-0.2,0.5,0,0.7l8.5,9c0.2,0.2,0.5,0.2,0.7,0l8.5-9C-6.1,7.2-6.2,6.9-6.4,6.7z"/>
		<path fill="#B72265" d="M-3.6,1.8h-22.8c-0.8,0-1.5,0.7-1.5,1.5V22c0,0.8,0.7,1.5,1.5,1.5h22.8c0.8,0,1.5-0.7,1.5-1.5V3.3
			C-2.1,2.5-2.8,1.8-3.6,1.8z M-4.5,5v15.3c0,0.5-0.4,0.9-0.9,0.9h-19.3c-0.5,0-0.9-0.4-0.9-0.9V5c0-0.5,0.4-0.9,0.9-0.9h19.3
			C-4.9,4.1-4.5,4.5-4.5,5z"/>
	</g>
	<path fill="#231F20" stroke="#000000" stroke-width="0.25" stroke-miterlimit="10" d="M70.2,385"/>
	<path fill="#231F20" stroke="#000000" stroke-width="0.25" stroke-miterlimit="10" d="M83.4,370.1"/>
	<g>
		<path fill="#B72265" d="M17.5,4.4C16,1.2,12.5,0.1,9.2,0C6.2,0,3,1.1,1.3,3.7C0.2,5.4-0.4,8,0.3,10c1.1,2.9,2.7,5.8,4.1,8.5
			c1.3,2.5,2.6,4.9,4.1,7.3c0.3,0.4,0.9,0.4,1.2,0c1.9-3,3.5-6.2,5.1-9.4C16.8,12.7,19.5,8.6,17.5,4.4z M13.5,14.6
			c-1.2,2.3-2.3,4.7-3.7,6.8c-0.3,0.4-0.9,0.4-1.2,0c-1.1-1.7-2-3.5-3-5.2C4.5,14.2,3.3,12,2.5,9.8C1.9,8.3,2.4,6.4,3.2,5
			c1.3-2,3.7-2.8,5.9-2.8c2.5,0,5.1,0.9,6.3,3.3C16.9,8.7,14.9,11.9,13.5,14.6z"/>
		<path fill="#B72265" d="M9.1,3.6c-2.8,0-5,2.3-5,5c0,2.8,2.3,5,5,5c2.8,0,5-2.3,5-5C14.2,5.9,11.9,3.6,9.1,3.6z M9.1,11.9
			c-1.8,0-3.2-1.4-3.2-3.2c0-1.8,1.4-3.2,3.2-3.2c1.8,0,3.2,1.4,3.2,3.2C12.3,10.5,10.9,11.9,9.1,11.9z"/>
	</g>
	<g>
		<path fill="#B72265" d="M29.4,22.4h-1.1c-0.3,0-0.5,0.2-0.5,0.5v0.9c0,0.3,0.2,0.5,0.5,0.5h1c0.3,0,0.5-0.2,0.5-0.5v-0.9
			C29.9,22.6,29.7,22.4,29.4,22.4z"/>
		<path fill="#B72265" d="M29.4,3.3h-1c-0.3,0-0.5,0.2-0.5,0.5v0.9c0,0.3,0.2,0.5,0.5,0.5h1c0.3,0,0.5-0.2,0.5-0.5V3.7
			C29.9,3.5,29.6,3.3,29.4,3.3z"/>
		<path fill="#B72265" d="M32,22.9h-0.6c-0.1,0-0.2,0.1-0.2,0.2v0.5c0,0.1,0.1,0.2,0.2,0.2h0.5c0.1,0,0.2-0.1,0.2-0.2v-0.5
			C32.2,23,32.1,22.9,32,22.9z"/>
		<path fill="#B72265" d="M26.4,22.9h-0.6c-0.1,0-0.2,0.1-0.2,0.2v0.5c0,0.1,0.1,0.2,0.2,0.2h0.5c0.1,0,0.2-0.1,0.2-0.2v-0.5
			C26.6,23,26.5,22.9,26.4,22.9z"/>
		<path fill="#B72265" d="M34.5,0.7L34.5,0.7H23.3h0c-0.5,0-1,0.4-1,1v0v0.5v0.1v0.3v3.2v1.9v12v1.9V25v0.3v0.1v0.5v0
			c0,0.5,0.4,1,1,1h0h11.2h0c0.5,0,1-0.4,1-1v0v-0.5v-0.1V25v-3.2v-1.9v-12V5.8V2.6V2.3V2.2V1.7v0C35.5,1.1,35,0.7,34.5,0.7z
			 M33.5,24c0,0.5-0.4,0.9-0.9,0.9h-7.5c-0.5,0-0.9-0.4-0.9-0.9v-1.7c0-0.4,0.3-0.6,0.6-0.6h8c0.4,0,0.6,0.3,0.6,0.6V24z M33.5,18.8
			c0,0.5-0.4,1-1,1h-7.3c-0.5,0-1-0.4-1-1V8.8c0-0.5,0.4-1,1-1h7.3c0.5,0,1,0.4,1,1V18.8z M33.5,5.2c0,0.4-0.3,0.6-0.6,0.6h-8
			c-0.4,0-0.6-0.3-0.6-0.6V3.5c0-0.5,0.4-0.9,0.9-0.9h7.5c0.5,0,0.9,0.4,0.9,0.9V5.2z"/>
	</g>
</g>
</svg>
