<?xml version="1.0" encoding="utf-8"?>
<!-- Generator: Adobe Illustrator 18.1.0, SVG Export Plug-In . SVG Version: 6.00 Build 0)  -->
<!DOCTYPE svg PUBLIC "-//W3C//DTD SVG 1.1//EN" "http://www.w3.org/Graphics/SVG/1.1/DTD/svg11.dtd">
<svg version="1.1" id="Layer_1" xmlns="http://www.w3.org/2000/svg" xmlns:xlink="http://www.w3.org/1999/xlink" x="0px" y="0px"
	 viewBox="62.7 164.3 493.9 414.5" enable-background="new 62.7 164.3 493.9 414.5" xml:space="preserve">
<path d="M554.8,565.8L469,422.4c0,0,0,0-0.2,0v-0.2l0,0l-45.7-76.3c-1.3,0.4-2.8,0.6-4.2,0.2c-1.9-1.9-1.5-4.9,0.2-6.6L317.3,169.7
	c-4.2-7.2-11.3-7.2-15.7,0L64.6,565.8c-4.2,7.2-1.1,13,7.4,13h439c-1.1-2.1-0.4-4.9,2.5-5.3c1.7,0.6,2.3,3,2.3,5.3h31.5
	C555.7,578.8,559.1,573,554.8,565.8z M287.1,251.5c2.3-0.6,3.6,1.7,2.5,3C287.5,254.7,286.5,253.2,287.1,251.5z M266,324.8
	c2.3,0.9,3.8,4.5,2.5,7c-0.9,0-0.9,0.6-1.7,0.6c-0.9,0-0.9-0.6-1.7-0.6C263.7,329.9,264.1,326.3,266,324.8z M248,401.7
	c2.3-0.2,2.1,4.5,0,4.5C246.5,405.6,245.9,402.2,248,401.7z M235,429.6c1.3-0.4,1.9-0.4,3.2,0c1.5,1.5,1.5,5.7-1.1,6
	C234.2,435.5,233.8,431.5,235,429.6z M115.4,543.7c-2.1-0.4-2.8-4.5-0.2-4.9C116.9,539,117.7,543.3,115.4,543.7z M215.5,490.8
	c0,10-7.9,16.1-19.3,16.1c-8.3,0-15.9-2.8-22.5-8.7l5.7-6.8c5.1,4.5,10.4,7,17,7c5.9,0,9.6-2.8,9.6-6.8v-0.2c0-3.8-2.1-6-12.1-8.3
	C182.3,480.4,176,477,176,467v-0.2c0-9.1,7.6-15.7,18.5-15.7c7.9,0,14,2.3,19.5,6.8l-5.1,7.2c-4.9-3.6-9.8-5.5-14.7-5.5
	c-5.5,0-8.7,2.8-8.7,6.4v0.2c0,4.2,2.5,6,12.8,8.5C209.7,477.6,215.5,481.6,215.5,490.8L215.5,490.8z M215.3,376.9
	c-1.3-0.8-2.3-2.3-1.7-4c1.3-1.1,3-0.9,4,0.2C218.5,375,217.2,376.7,215.3,376.9z M275.4,470.4c0,12.1-9.8,18.5-21.5,18.5h-10.6
	v17.4h-9.6v-54H255C267.5,452.1,275.4,459.3,275.4,470.4L275.4,470.4z M273.1,402.2c-1.7-1.1-1.3-4.9,1.1-4.9
	C276.7,397.7,276.2,402.6,273.1,402.2z M289.6,344.8c2.3,0.9,5.5,2.3,4.9,5.1c0,1.3-1.1,1.3-1.7,1.9c-3.2,0.2-5.1-0.6-6.8-1.7
	C284.5,347.8,286,344.1,289.6,344.8z M290.5,445.3c-2.8,0.6-3.8-4-1.3-4.7C290.1,441.5,291.1,443.6,290.5,445.3z M288.8,500.3
	c-1.1-0.4-1.9-1.1-1.7-2.8c0.4-0.2,0.8-0.4,1.1-0.8C291.3,496.1,291.8,500.8,288.8,500.3z M292,396.4c-0.2-1.1,0-1.9,0.6-2.8
	c2.1,0,4,0,4.9,1.3C296.4,396.2,293.7,397.3,292,396.4z M310.7,330.3c-1.7,0-2.8-0.4-2.8-2.1c0.2-1.3,2.1-1.3,3.2-0.9
	C312,328.4,311.7,329.7,310.7,330.3z M469.2,433.4c1.9,0.4,2.8,1.9,3.8,3c0.2,1.9,0.6,3.6,0.6,5.7c-0.8,1.1-2.3,1.5-4.5,1.3
	c-0.2-0.4-0.9-0.4-1.3-0.6C465.6,440.8,466,433.8,469.2,433.4z M374,367.3c1.3-0.2,1.9,0.4,3,0.6c0.2,0.6,1.3,1.7,0.6,2.5
	c-0.4,2.3-3.8,2.5-5.1,1.1C371.5,369.7,372.5,367.7,374,367.3z M328.7,441.9c-1.3-0.4-2.1-1.3-1.9-3.2c0.8-1.9,3.8-1.5,4.7,0
	C331.7,440.8,330.7,441.7,328.7,441.9z M333.6,233.7c-2.3,0.6-3.2-1.9-1.9-3C333.8,230.5,334.7,232.4,333.6,233.7z M351.3,562
	c-1.5-0.2-1.5-3.4,0.2-3.2C353,559.2,353,562,351.3,562z M351.3,557.3c-2.8-0.6-3.2-5.5-1.1-7h2.1
	C354.7,551.8,354.2,557.1,351.3,557.3z M338.9,479.3L338.9,479.3c0-15.5,11.5-28,27.8-28c10,0,15.9,3.4,21,8.3l-6.2,7
	c-4.2-4-8.9-6.8-15.1-6.8c-10.2,0-17.8,8.5-17.8,18.9v0.2c0,10.6,7.4,19.1,17.8,19.1c6.6,0,10.8-2.5,15.5-7l6.2,6.2
	c-5.5,6-11.7,9.6-21.9,9.6C350.6,506.9,338.9,494.6,338.9,479.3z M388.2,526.7c-1.7-0.2-1.7-1.7-3-2.8c-0.4-1.5-1.7-2.1-1.7-4
	c0.2-0.4,0.4-1.1,0.6-1.7c3-3,8.3-0.8,9.3,1.7C393.8,523.5,391,527.1,388.2,526.7z M431.8,521.8c0,1.1-0.8,1.1-1.3,1.7
	c-2.8,0-4.9-0.6-5.5-3c0.4-2.3,1.7-3.6,4.7-3.6C431.2,517.3,432.7,519.5,431.8,521.8z M445.4,506.1H405v-4.9c-0.4-1.3-0.4-2.5,0-3.6
	v-45.5H445v8.5h-30.4v14h27v8.5h-27v14.5h30.8V506.1z M465,528.2c-0.2-2.3,0.2-3.8,1.3-4.9c4,0.2,6.8,1.3,7.9,4.5
	c-0.9,2.3-2.8,3.4-5.7,3.6C466.7,530.5,465.6,529.5,465,528.2z M466.4,568.1c1.7-1.9,8.3-2.1,8.5,1.3
	C474.3,573.4,466,573,466.4,568.1z M477.3,470c-0.4,2.5-2.3,3.6-4.7,4c-3.4-0.6-5.9-2.5-10.4-2.1c-1.1-0.8-2.5-1.3-2.5-3
	c-0.2-2.1,1.5-2.3,2.1-3.6c3.2,0,4-2.3,6.8-2.8C473.5,462.9,478.1,465.1,477.3,470z M492.8,545.8c0.4-1.1,1.5-1.1,2.8-0.8
	C497.9,547.5,492.6,549.2,492.8,545.8z M254.1,460.8h-11v19.3h11c7.2,0,11.7-4,11.7-9.6v-0.2C265.8,464,261.4,460.8,254.1,460.8z"/>
</svg>
