<?xml version="1.0" encoding="utf-8"?>
<!-- Generator: Adobe Illustrator 18.1.0, SVG Export Plug-In . SVG Version: 6.00 Build 0)  -->
<!DOCTYPE svg PUBLIC "-//W3C//DTD SVG 1.1//EN" "http://www.w3.org/Graphics/SVG/1.1/DTD/svg11.dtd">
<svg version="1.1" id="Layer_1" xmlns="http://www.w3.org/2000/svg" xmlns:xlink="http://www.w3.org/1999/xlink" x="0px" y="0px"
	 viewBox="0 0 606 361.3" enable-background="new 0 0 606 361.3" xml:space="preserve">
<rect x="377" y="62" fill="#FFFFFF" stroke="#84D2E4" stroke-miterlimit="10" width="139" height="137"/>
<rect x="61" y="61.5" fill="#FFFFFF" stroke="#84D2E4" stroke-miterlimit="10" width="299.5" height="137.5"/>
<rect x="135.1" y="48.6" fill="none" width="132" height="33"/>
<text transform="matrix(1 0 0 1 135.1374 59.062)" fill="#3E354E" font-family="'Oswald-Regular'" font-size="12">C Street</text>
<rect x="135.1" y="202.6" fill="none" width="132" height="33"/>
<text transform="matrix(1 0 0 1 135.1374 213.062)" fill="#3E354E" font-family="'Oswald-Regular'" font-size="12">B Street</text>
<rect x="190.6" y="242.1" fill="none" width="33" height="132"/>
<text transform="matrix(0 1 -1 0 213.1426 242.0679)" fill="#3E354E" font-family="'Oswald-Regular'" font-size="12">S 12 th Street</text>
<rect x="341.6" y="243.1" fill="none" width="33" height="132"/>
<text transform="matrix(0 1 -1 0 364.1426 243.0679)" fill="#3E354E" font-family="'Oswald-Regular'" font-size="12">S 13 th Street</text>
<rect x="24.6" y="145.1" fill="none" width="33" height="132"/>
<text transform="matrix(0 1 -1 0 47.1426 145.0679)" fill="#3E354E" font-family="'Oswald-Regular'" font-size="12">S 11 th Street</text>
<rect x="497.6" y="148.1" fill="none" width="33" height="132"/>
<text transform="matrix(0 1 -1 0 520.1426 148.0679)" fill="#3E354E" font-family="'Oswald-Regular'" font-size="12">S 14 th Street</text>
<rect x="443.1" y="48.6" fill="none" width="132" height="33"/>
<text transform="matrix(1 0 0 1 443.1375 59.062)" fill="#3E354E" font-family="'Oswald-Regular'" font-size="12">C Street</text>
<rect x="401.6" y="113.9" fill="none" width="132" height="33"/>
<text transform="matrix(1 0 0 1 401.6374 140.1366)" fill="#3E354E" font-family="'Oswald-Regular'" font-size="30">SP CE</text>
<rect x="98.1" y="98.6" fill="#3E354E" width="113" height="82"/>
<rect x="135.1" y="168.6" fill="#FFFFFF" width="36.2" height="24"/>
<rect x="122.1" y="83.9" fill="#3E354E" width="63.4" height="24"/>
<rect x="105.1" y="132.9" fill="none" width="132" height="33"/>
<text transform="matrix(1 0 0 1 105.1374 141.6464)" fill="#FFFFFF" font-family="'Oswald-Regular'" font-size="10">Everett Elementary School </text>
<rect x="401.3" y="144.6" fill="none" width="132" height="33"/>
<text transform="matrix(1 0 0 1 401.304 158.5601)" fill="#3E354E" font-family="'Oswald-Regular'" font-size="16">COMMONS</text>
<rect x="534" y="62" fill="#FFFFFF" stroke="#84D2E4" stroke-miterlimit="10" width="66" height="137"/>
<rect x="9" y="62" fill="#FFFFFF" stroke="#84D2E4" stroke-miterlimit="10" width="35.5" height="137"/>
<rect x="9" y="216" fill="#FFFFFF" stroke="#84D2E4" stroke-miterlimit="10" width="35.5" height="140"/>
<rect x="62.5" y="216" fill="#FFFFFF" stroke="#84D2E4" stroke-miterlimit="10" width="148" height="58.5"/>
<rect x="62.5" y="291" fill="#FFFFFF" stroke="#84D2E4" stroke-miterlimit="10" width="148" height="64.5"/>
<rect x="225.9" y="291" fill="#FFFFFF" stroke="#84D2E4" stroke-miterlimit="10" width="135.1" height="64.5"/>
<rect x="377.5" y="291" fill="#FFFFFF" stroke="#84D2E4" stroke-miterlimit="10" width="138.5" height="64"/>
<path fill="#3E354E" d="M492.2,98.6c9.2,0,16.6,9.2,16.6,20.6s-16.6,38-16.6,38s-16.6-26.6-16.6-38S483.1,98.6,492.2,98.6z"/>
<rect x="9.8" y="8.5" fill="#FFFFFF" stroke="#84D2E4" stroke-miterlimit="10" width="35.2" height="36.5"/>
<rect x="62.3" y="8.5" fill="#FFFFFF" stroke="#84D2E4" stroke-miterlimit="10" width="299" height="36.5"/>
<rect x="377.3" y="8.5" fill="#FFFFFF" stroke="#84D2E4" stroke-miterlimit="10" width="138.7" height="36.5"/>
<rect x="534.3" y="8.5" fill="#FFFFFF" stroke="#84D2E4" stroke-miterlimit="10" width="65.6" height="36.5"/>
<rect x="377.5" y="216" fill="#FFFFFF" stroke="#84D2E4" stroke-miterlimit="10" width="138.5" height="58.5"/>
<rect x="226.5" y="216" fill="#FFFFFF" stroke="#84D2E4" stroke-miterlimit="10" width="135" height="58.5"/>
<rect x="534.5" y="216" fill="#FFFFFF" stroke="#84D2E4" stroke-miterlimit="10" width="65.4" height="58.5"/>
<rect x="534.5" y="291.5" fill="#FFFFFF" stroke="#84D2E4" stroke-miterlimit="10" width="65.4" height="64"/>
<rect x="401.8" y="164.9" fill="none" width="132" height="33"/>
<text transform="matrix(1 0 0 1 401.8041 177.3377)" fill="#84D2E4" font-family="'Oswald-Light'" font-size="14.8">1239 B Street</text>
</svg>
