<?xml version="1.0" encoding="utf-8"?>
<!-- Generator: Adobe Illustrator 18.1.0, SVG Export Plug-In . SVG Version: 6.00 Build 0)  -->
<!DOCTYPE svg PUBLIC "-//W3C//DTD SVG 1.1//EN" "http://www.w3.org/Graphics/SVG/1.1/DTD/svg11.dtd">
<svg version="1.1" xmlns="http://www.w3.org/2000/svg" xmlns:xlink="http://www.w3.org/1999/xlink" x="0px" y="0px"
	 viewBox="0 0 25.8 21.6" enable-background="new 0 0 25.8 21.6" xml:space="preserve">
<g id="Layer_1" display="none">
	
		<image display="inline" overflow="visible" width="1920" height="1300" xlink:href="9D514700A8226F66.jpg"  transform="matrix(1 0 0 1 -1704.8611 -794.2082)">
	</image>
	
		<image display="inline" overflow="visible" width="520" height="528" xlink:href="9D514700A8226F6A.png"  transform="matrix(5.641026e-02 0 0 5.641026e-02 -267.5277 -476.8748)">
	</image>
</g>
<g id="Layer_2">
	<g>
		<g>
			<path fill="#B72265" d="M3.9,15.4c-0.2,0.2-0.2,0.6,0,0.8l0.6,0.6c0.2,0.2,0.6,0.2,0.8,0l5.6-6c0.1-0.1,0.1-0.3,0-0.4l-0.9-1
				c-0.1-0.1-0.3-0.1-0.4,0L3.9,15.4z"/>
			<path fill="#B72265" d="M21.6,15.4l-5.7-6.1c-0.1-0.1-0.3-0.1-0.4,0l-0.9,1c-0.1,0.1-0.1,0.3,0,0.4l5.7,6c0.2,0.2,0.5,0.2,0.7,0
				l0.7-0.6C21.7,15.9,21.8,15.6,21.6,15.4z"/>
		</g>
		<path fill="#B72265" d="M21.5,4.8l-0.6-0.6c-0.2-0.2-0.6-0.2-0.8,0l-7.1,7.5c-0.2,0.2-0.5,0.2-0.6,0L5.3,4.2C5.1,4,4.8,4,4.6,4.2
			L3.9,4.8C3.7,5,3.7,5.3,3.9,5.5l8.5,9c0.2,0.2,0.5,0.2,0.7,0l8.5-9C21.8,5.4,21.7,5,21.5,4.8z"/>
		<path fill="#B72265" d="M24.3,0H1.5C0.7,0,0,0.7,0,1.5v18.7c0,0.8,0.7,1.5,1.5,1.5h22.8c0.8,0,1.5-0.7,1.5-1.5V1.5
			C25.8,0.7,25.1,0,24.3,0z M23.4,3.2v15.3c0,0.5-0.4,0.9-0.9,0.9H3.2c-0.5,0-0.9-0.4-0.9-0.9V3.2c0-0.5,0.4-0.9,0.9-0.9h19.3
			C23,2.3,23.4,2.7,23.4,3.2z"/>
	</g>
	<path fill="#231F20" stroke="#000000" stroke-width="0.25" stroke-miterlimit="10" d="M98.1,383.2"/>
	<path fill="#231F20" stroke="#000000" stroke-width="0.25" stroke-miterlimit="10" d="M111.3,368.2"/>
	<g>
		<path fill="#B72265" d="M45.4,2.5c-1.5-3.2-5-4.3-8.4-4.4c-3-0.1-6.2,1.1-7.8,3.7c-1.1,1.8-1.7,4.4-1,6.4c1.1,2.9,2.7,5.8,4.1,8.5
			c1.3,2.5,2.6,4.9,4.1,7.3c0.3,0.4,0.9,0.4,1.2,0c1.9-3,3.5-6.2,5.1-9.4C44.7,10.9,47.4,6.7,45.4,2.5z M41.4,12.8
			c-1.2,2.3-2.3,4.7-3.7,6.8c-0.3,0.4-0.9,0.4-1.2,0c-1.1-1.7-2-3.5-3-5.2c-1.1-2.1-2.3-4.2-3.1-6.4c-0.6-1.5-0.1-3.5,0.7-4.8
			c1.3-2,3.7-2.8,5.9-2.8c2.5,0,5.1,0.9,6.3,3.3C44.8,6.9,42.8,10,41.4,12.8z"/>
		<path fill="#B72265" d="M37,1.8c-2.8,0-5,2.3-5,5c0,2.8,2.3,5,5,5c2.8,0,5-2.3,5-5C42.1,4,39.8,1.8,37,1.8z M37,10.1
			c-1.8,0-3.2-1.4-3.2-3.2c0-1.8,1.4-3.2,3.2-3.2c1.8,0,3.2,1.4,3.2,3.2C40.2,8.6,38.8,10.1,37,10.1z"/>
	</g>
	<g>
		<path fill="#B72265" d="M57.3,20.5h-1.1c-0.3,0-0.5,0.2-0.5,0.5V22c0,0.3,0.2,0.5,0.5,0.5h1c0.3,0,0.5-0.2,0.5-0.5V21
			C57.8,20.7,57.6,20.5,57.3,20.5z"/>
		<path fill="#B72265" d="M57.3,1.4h-1c-0.3,0-0.5,0.2-0.5,0.5v0.9c0,0.3,0.2,0.5,0.5,0.5h1c0.3,0,0.5-0.2,0.5-0.5V1.9
			C57.8,1.6,57.6,1.4,57.3,1.4z"/>
		<path fill="#B72265" d="M59.9,21h-0.6c-0.1,0-0.2,0.1-0.2,0.2v0.5c0,0.1,0.1,0.2,0.2,0.2h0.5c0.1,0,0.2-0.1,0.2-0.2v-0.5
			C60.1,21.1,60,21,59.9,21z"/>
		<path fill="#B72265" d="M54.3,21h-0.6c-0.1,0-0.2,0.1-0.2,0.2v0.5c0,0.1,0.1,0.2,0.2,0.2h0.5c0.1,0,0.2-0.1,0.2-0.2v-0.5
			C54.5,21.1,54.4,21,54.3,21z"/>
		<path fill="#B72265" d="M62.4-1.2L62.4-1.2H51.2h0c-0.5,0-1,0.4-1,1v0v0.5v0.1v0.3V4v1.9v12v1.9v3.2v0.3v0.1V24v0c0,0.5,0.4,1,1,1
			h0h11.2h0c0.5,0,1-0.4,1-1v0v-0.5v-0.1v-0.3v-3.2V18v-12V4V0.8V0.4V0.3v-0.5v0C63.4-0.7,62.9-1.2,62.4-1.2z M61.4,22.2
			c0,0.5-0.4,0.9-0.9,0.9H53c-0.5,0-0.9-0.4-0.9-0.9v-1.7c0-0.4,0.3-0.6,0.6-0.6h8c0.4,0,0.6,0.3,0.6,0.6V22.2z M61.4,17
			c0,0.5-0.4,1-1,1h-7.3c-0.5,0-1-0.4-1-1V6.9c0-0.5,0.4-1,1-1h7.3c0.5,0,1,0.4,1,1V17z M61.4,3.4c0,0.4-0.3,0.6-0.6,0.6h-8
			c-0.4,0-0.6-0.3-0.6-0.6V1.7c0-0.5,0.4-0.9,0.9-0.9h7.5c0.5,0,0.9,0.4,0.9,0.9V3.4z"/>
	</g>
</g>
</svg>
