<?xml version="1.0" encoding="utf-8"?>
<!-- Generator: Adobe Illustrator 18.1.0, SVG Export Plug-In . SVG Version: 6.00 Build 0)  -->
<!DOCTYPE svg PUBLIC "-//W3C//DTD SVG 1.1//EN" "http://www.w3.org/Graphics/SVG/1.1/DTD/svg11.dtd">
<svg version="1.1" xmlns="http://www.w3.org/2000/svg" xmlns:xlink="http://www.w3.org/1999/xlink" x="0px" y="0px"
	 viewBox="0 0 13.2 26.2" enable-background="new 0 0 13.2 26.2" xml:space="preserve">
<g id="Layer_1" display="none">
	
		<image display="inline" overflow="visible" width="1920" height="1300" xlink:href="1DF983DD7DFA09EC.jpg"  transform="matrix(1 0 0 1 -1755.0488 -793.0481)">
	</image>
	
		<image display="inline" overflow="visible" width="520" height="528" xlink:href="1DF983DD7DFA09EC.png"  transform="matrix(5.641026e-02 0 0 5.641026e-02 -317.7155 -475.7148)">
	</image>
</g>
<g id="Layer_2">
	<g>
		<g>
			<path fill="#B72265" d="M-46.3,16.5c-0.2,0.2-0.2,0.6,0,0.8l0.6,0.6c0.2,0.2,0.6,0.2,0.8,0l5.6-6c0.1-0.1,0.1-0.3,0-0.4l-0.9-1
				c-0.1-0.1-0.3-0.1-0.4,0L-46.3,16.5z"/>
			<path fill="#B72265" d="M-28.6,16.5l-5.7-6.1c-0.1-0.1-0.3-0.1-0.4,0l-0.9,1c-0.1,0.1-0.1,0.3,0,0.4l5.7,6c0.2,0.2,0.5,0.2,0.7,0
				l0.7-0.6C-28.4,17.1-28.4,16.7-28.6,16.5z"/>
		</g>
		<path fill="#B72265" d="M-28.7,6l-0.6-0.6c-0.2-0.2-0.6-0.2-0.8,0l-7.1,7.5c-0.2,0.2-0.5,0.2-0.6,0l-7.1-7.6
			c-0.2-0.2-0.5-0.2-0.7,0L-46.3,6c-0.2,0.2-0.2,0.5,0,0.7l8.5,9c0.2,0.2,0.5,0.2,0.7,0l8.5-9C-28.4,6.5-28.4,6.2-28.7,6z"/>
		<path fill="#B72265" d="M-25.9,1.2h-22.8c-0.8,0-1.5,0.7-1.5,1.5v18.7c0,0.8,0.7,1.5,1.5,1.5h22.8c0.8,0,1.5-0.7,1.5-1.5V2.6
			C-24.4,1.8-25.1,1.2-25.9,1.2z M-26.8,4.3v15.3c0,0.5-0.4,0.9-0.9,0.9h-19.3c-0.5,0-0.9-0.4-0.9-0.9V4.3c0-0.5,0.4-0.9,0.9-0.9
			h19.3C-27.2,3.4-26.8,3.8-26.8,4.3z"/>
	</g>
	<path fill="#231F20" stroke="#000000" stroke-width="0.25" stroke-miterlimit="10" d="M47.9,384.3"/>
	<path fill="#231F20" stroke="#000000" stroke-width="0.25" stroke-miterlimit="10" d="M61.1,369.4"/>
	<g>
		<path fill="#B72265" d="M-4.8,3.7c-1.5-3.2-5-4.3-8.4-4.4c-3-0.1-6.2,1.1-7.8,3.7c-1.1,1.8-1.7,4.4-1,6.4c1.1,2.9,2.7,5.8,4.1,8.5
			c1.3,2.5,2.6,4.9,4.1,7.3c0.3,0.4,0.9,0.4,1.2,0c1.9-3,3.5-6.2,5.1-9.4C-5.5,12.1-2.8,7.9-4.8,3.7z M-8.8,14
			c-1.2,2.3-2.3,4.7-3.7,6.8c-0.3,0.4-0.9,0.4-1.2,0c-1.1-1.7-2-3.5-3-5.2c-1.1-2.1-2.3-4.2-3.1-6.4c-0.6-1.5-0.1-3.5,0.7-4.8
			c1.3-2,3.7-2.8,5.9-2.8c2.5,0,5.1,0.9,6.3,3.3C-5.3,8-7.4,11.2-8.8,14z"/>
		<path fill="#B72265" d="M-13.2,3c-2.8,0-5,2.3-5,5c0,2.8,2.3,5,5,5c2.8,0,5-2.3,5-5C-8.1,5.2-10.4,3-13.2,3z M-13.2,11.2
			c-1.8,0-3.2-1.4-3.2-3.2c0-1.8,1.4-3.2,3.2-3.2c1.8,0,3.2,1.4,3.2,3.2C-9.9,9.8-11.4,11.2-13.2,11.2z"/>
	</g>
	<g>
		<path fill="#B72265" d="M7.1,21.7H6c-0.3,0-0.5,0.2-0.5,0.5v0.9c0,0.3,0.2,0.5,0.5,0.5h1c0.3,0,0.5-0.2,0.5-0.5v-0.9
			C7.6,21.9,7.4,21.7,7.1,21.7z"/>
		<path fill="#B72265" d="M7.1,2.6h-1c-0.3,0-0.5,0.2-0.5,0.5V4c0,0.3,0.2,0.5,0.5,0.5h1c0.3,0,0.5-0.2,0.5-0.5V3.1
			C7.6,2.8,7.4,2.6,7.1,2.6z"/>
		<path fill="#B72265" d="M9.7,22.2H9.1c-0.1,0-0.2,0.1-0.2,0.2v0.5c0,0.1,0.1,0.2,0.2,0.2h0.5c0.1,0,0.2-0.1,0.2-0.2v-0.5
			C9.9,22.3,9.8,22.2,9.7,22.2z"/>
		<path fill="#B72265" d="M4.1,22.2H3.5c-0.1,0-0.2,0.1-0.2,0.2v0.5c0,0.1,0.1,0.2,0.2,0.2H4c0.1,0,0.2-0.1,0.2-0.2v-0.5
			C4.3,22.3,4.2,22.2,4.1,22.2z"/>
		<path fill="#B72265" d="M12.2,0L12.2,0H1h0C0.4,0,0,0.4,0,1v0v0.5v0.1v0.3v3.2v1.9v12V21v3.2v0.3v0.1v0.5v0c0,0.5,0.4,1,1,1h0
			h11.2h0c0.5,0,1-0.4,1-1v0v-0.5v-0.1v-0.3V21v-1.9v-12V5.2V1.9V1.6V1.5V1v0C13.2,0.4,12.7,0,12.2,0z M11.2,23.3
			c0,0.5-0.4,0.9-0.9,0.9H2.9c-0.5,0-0.9-0.4-0.9-0.9v-1.7c0-0.4,0.3-0.6,0.6-0.6h8c0.4,0,0.6,0.3,0.6,0.6V23.3z M11.2,18.1
			c0,0.5-0.4,1-1,1H2.9c-0.5,0-1-0.4-1-1V8.1c0-0.5,0.4-1,1-1h7.3c0.5,0,1,0.4,1,1V18.1z M11.2,4.5c0,0.4-0.3,0.6-0.6,0.6h-8
			c-0.4,0-0.6-0.3-0.6-0.6V2.9c0-0.5,0.4-0.9,0.9-0.9h7.5c0.5,0,0.9,0.4,0.9,0.9V4.5z"/>
	</g>
</g>
</svg>
