<?xml version="1.0" encoding="utf-8"?>
<!-- Generator: Adobe Illustrator 18.1.0, SVG Export Plug-In . SVG Version: 6.00 Build 0)  -->
<!DOCTYPE svg PUBLIC "-//W3C//DTD SVG 1.1//EN" "http://www.w3.org/Graphics/SVG/1.1/DTD/svg11.dtd">
<svg version="1.1" id="Layer_1" xmlns="http://www.w3.org/2000/svg" xmlns:xlink="http://www.w3.org/1999/xlink" x="0px" y="0px"
	 viewBox="0 221 612 354" enable-background="new 0 221 612 354" xml:space="preserve">
<rect x="380.7" y="276.2" fill="#FFFFFF" stroke="#84D2E4" stroke-miterlimit="10" width="140.4" height="138.4"/>
<rect x="61.6" y="275.7" fill="#FFFFFF" stroke="#84D2E4" stroke-miterlimit="10" width="302.5" height="138.9"/>
<rect x="136.4" y="262.6" fill="none" width="133.3" height="33.3"/>
<g enable-background="new    ">
	<path fill="#3E354E" d="M140,273.3c-0.4,0-0.8-0.1-1.2-0.2c-0.3-0.1-0.6-0.3-0.8-0.5c-0.2-0.2-0.4-0.5-0.5-0.8s-0.2-0.7-0.3-1.1
		c-0.1-0.4-0.1-0.8-0.1-1.3v-3c0-0.5,0-0.9,0.1-1.3c0.1-0.4,0.2-0.7,0.3-1.1s0.3-0.6,0.5-0.8c0.2-0.2,0.5-0.4,0.8-0.5
		c0.3-0.1,0.7-0.2,1.2-0.2c0.5,0,0.9,0.1,1.3,0.2c0.4,0.1,0.6,0.4,0.9,0.6c0.2,0.3,0.4,0.6,0.5,1c0.1,0.4,0.2,0.8,0.2,1.3
		c0,0.1,0,0.2,0,0.3h-1.5v-0.3c0-0.2,0-0.4,0-0.5c0-0.1,0-0.3-0.1-0.5c0-0.2-0.1-0.3-0.1-0.4c-0.1-0.1-0.1-0.2-0.2-0.3
		s-0.2-0.2-0.4-0.2s-0.3-0.1-0.5-0.1c-0.2,0-0.5,0-0.6,0.1c-0.2,0.1-0.3,0.2-0.4,0.3c-0.1,0.1-0.2,0.3-0.2,0.5
		c-0.1,0.2-0.1,0.4-0.1,0.6s0,0.4,0,0.7v3.8c0,0.3,0,0.5,0,0.7c0,0.2,0.1,0.4,0.1,0.6s0.1,0.4,0.2,0.5s0.2,0.2,0.4,0.3
		c0.2,0.1,0.4,0.1,0.6,0.1c0.2,0,0.4,0,0.6-0.1c0.2-0.1,0.3-0.2,0.4-0.3s0.2-0.3,0.2-0.5c0.1-0.2,0.1-0.4,0.1-0.6c0-0.2,0-0.4,0-0.7
		v-0.4h1.5v0.4c0,0.5,0,1-0.1,1.4c-0.1,0.4-0.3,0.8-0.5,1.1c-0.2,0.3-0.5,0.6-0.9,0.7C140.9,273.2,140.5,273.3,140,273.3z"/>
	<path fill="#3E354E" d="M149,273.3c-1,0-1.7-0.3-2.2-0.8c-0.5-0.6-0.8-1.3-0.8-2.3l1.5-0.4c0.1,1.5,0.6,2.3,1.5,2.3
		c0.8,0,1.1-0.4,1.1-1.1c0-0.2,0-0.4-0.1-0.6c-0.1-0.2-0.2-0.4-0.3-0.5c-0.1-0.2-0.2-0.3-0.3-0.4s-0.2-0.2-0.4-0.4l-1.9-1.5
		c-0.3-0.3-0.6-0.6-0.8-1c-0.2-0.4-0.3-0.9-0.3-1.4c0-0.8,0.2-1.4,0.7-1.9c0.5-0.5,1.1-0.7,1.9-0.7c0.9,0,1.5,0.2,2.1,0.6
		c0.5,0.4,0.8,1,0.9,1.8c0,0.1,0,0.2,0,0.3l-1.5,0.4c0-0.1,0-0.2,0-0.3c-0.1-0.5-0.2-0.9-0.5-1.2c-0.2-0.3-0.6-0.4-1-0.4
		c-0.4,0-0.6,0.1-0.8,0.3s-0.3,0.5-0.3,0.8c0,0.6,0.3,1.1,0.8,1.5l1.9,1.5c1,0.8,1.5,1.8,1.5,2.9c0,0.8-0.2,1.4-0.7,1.8
		C150.5,273.1,149.8,273.3,149,273.3z"/>
	<path fill="#3E354E" d="M154.8,273.3c-0.6,0-1-0.2-1.3-0.5s-0.4-0.8-0.4-1.4v-4.7h-0.8v-1.1h0.8V263h1.5v2.7h1.1v1.1h-1.1v4.4
		c0,0.3,0,0.5,0.1,0.7c0.1,0.1,0.3,0.2,0.5,0.2c0.1,0,0.3,0,0.5-0.1v1.2C155.4,273.3,155,273.3,154.8,273.3z"/>
	<path fill="#3E354E" d="M156.8,273.2v-7.6h1.5v1c0.2-0.3,0.4-0.6,0.7-0.8c0.3-0.2,0.6-0.3,1-0.3c0,0,0.1,0,0.2,0v1.7
		c-0.3-0.1-0.6-0.2-0.8-0.2c-0.3,0-0.6,0.1-0.8,0.3s-0.3,0.4-0.3,0.8v5.1H156.8z"/>
	<path fill="#3E354E" d="M163,273.3c-0.4,0-0.7-0.1-1-0.2c-0.3-0.1-0.5-0.3-0.6-0.5c-0.2-0.2-0.3-0.5-0.4-0.8
		c-0.1-0.3-0.2-0.6-0.2-1c0-0.3-0.1-0.7-0.1-1.1c0-0.3,0-0.7,0-1c0-0.4,0-0.7,0.1-1.1s0.1-0.6,0.2-0.9c0.1-0.3,0.2-0.5,0.4-0.7
		c0.2-0.2,0.4-0.3,0.6-0.4c0.3-0.1,0.6-0.2,0.9-0.2c0.3,0,0.6,0,0.9,0.1c0.2,0.1,0.5,0.2,0.6,0.4c0.2,0.2,0.3,0.4,0.4,0.6
		c0.1,0.2,0.2,0.5,0.2,0.8s0.1,0.6,0.1,0.9c0,0.3,0,0.6,0,1v0.2h-3v0.4c0,0.1,0,0.1,0,0.2c0,0.1,0,0.3,0,0.5c0,0.2,0,0.3,0,0.5
		s0,0.3,0.1,0.4c0,0.1,0.1,0.3,0.1,0.4s0.1,0.2,0.2,0.2c0.1,0.1,0.2,0.1,0.3,0.1c0.2,0,0.3,0,0.4-0.1c0.1-0.1,0.2-0.2,0.2-0.3
		c0-0.1,0.1-0.2,0.1-0.4c0-0.1,0-0.3,0-0.5v-0.3h1.5v0.3c0,0.8-0.2,1.4-0.6,1.8C164.3,273.1,163.8,273.3,163,273.3z M162.3,268.7
		h1.5v-0.5c0-0.2,0-0.4,0-0.5c0-0.1-0.1-0.3-0.1-0.4s-0.1-0.3-0.2-0.3c-0.1-0.1-0.2-0.1-0.4-0.1c-0.2,0-0.3,0-0.4,0.1
		c-0.1,0.1-0.2,0.2-0.2,0.4c0,0.2-0.1,0.3-0.1,0.5c0,0.1,0,0.3,0,0.5V268.7z"/>
	<path fill="#3E354E" d="M168.5,273.3c-0.4,0-0.7-0.1-1-0.2c-0.3-0.1-0.5-0.3-0.6-0.5c-0.2-0.2-0.3-0.5-0.4-0.8
		c-0.1-0.3-0.2-0.6-0.2-1c0-0.3-0.1-0.7-0.1-1.1c0-0.3,0-0.7,0-1c0-0.4,0-0.7,0.1-1.1s0.1-0.6,0.2-0.9c0.1-0.3,0.2-0.5,0.4-0.7
		c0.2-0.2,0.4-0.3,0.6-0.4c0.3-0.1,0.6-0.2,0.9-0.2c0.3,0,0.6,0,0.9,0.1c0.2,0.1,0.5,0.2,0.6,0.4c0.2,0.2,0.3,0.4,0.4,0.6
		c0.1,0.2,0.2,0.5,0.2,0.8s0.1,0.6,0.1,0.9c0,0.3,0,0.6,0,1v0.2h-3v0.4c0,0.1,0,0.1,0,0.2c0,0.1,0,0.3,0,0.5c0,0.2,0,0.3,0,0.5
		s0,0.3,0.1,0.4c0,0.1,0.1,0.3,0.1,0.4s0.1,0.2,0.2,0.2c0.1,0.1,0.2,0.1,0.3,0.1c0.2,0,0.3,0,0.4-0.1c0.1-0.1,0.2-0.2,0.2-0.3
		c0-0.1,0.1-0.2,0.1-0.4c0-0.1,0-0.3,0-0.5v-0.3h1.5v0.3c0,0.8-0.2,1.4-0.6,1.8C169.9,273.1,169.3,273.3,168.5,273.3z M167.8,268.7
		h1.5v-0.5c0-0.2,0-0.4,0-0.5c0-0.1-0.1-0.3-0.1-0.4s-0.1-0.3-0.2-0.3c-0.1-0.1-0.2-0.1-0.4-0.1c-0.2,0-0.3,0-0.4,0.1
		c-0.1,0.1-0.2,0.2-0.2,0.4c0,0.2-0.1,0.3-0.1,0.5c0,0.1,0,0.3,0,0.5V268.7z"/>
	<path fill="#3E354E" d="M174,273.3c-0.6,0-1-0.2-1.3-0.5s-0.4-0.8-0.4-1.4v-4.7h-0.8v-1.1h0.8V263h1.5v2.7h1.1v1.1h-1.1v4.4
		c0,0.3,0,0.5,0.1,0.7c0.1,0.1,0.3,0.2,0.5,0.2c0.1,0,0.3,0,0.5-0.1v1.2C174.6,273.3,174.3,273.3,174,273.3z"/>
</g>
<rect x="136.4" y="418.2" fill="none" width="133.3" height="33.3"/>
<g enable-background="new    ">
	<path fill="#3E354E" d="M137.2,428.7v-10.6h2.3c0.5,0,0.9,0.1,1.3,0.2s0.7,0.3,1,0.5c0.3,0.2,0.5,0.5,0.7,0.8
		c0.2,0.3,0.2,0.7,0.2,1.2c0,0.7-0.1,1.2-0.4,1.5c-0.3,0.3-0.7,0.6-1.3,0.8c0.6,0.2,1.1,0.5,1.4,0.9c0.3,0.4,0.5,1,0.5,1.7
		c0,0.9-0.3,1.7-0.8,2.2c-0.5,0.5-1.3,0.8-2.2,0.8H137.2z M138.7,422.7h0.8c1.3,0,1.9-0.6,1.9-1.9c0-0.2,0-0.4-0.1-0.6
		c-0.1-0.2-0.1-0.3-0.2-0.4c-0.1-0.1-0.2-0.2-0.3-0.3s-0.3-0.1-0.4-0.2c-0.1,0-0.3-0.1-0.5-0.1c-0.2,0-0.4,0-0.5,0s-0.4,0-0.6,0
		V422.7z M138.7,427.6h0.8c0.7,0,1.1-0.2,1.4-0.5c0.3-0.3,0.5-0.8,0.5-1.4c0-0.7-0.2-1.1-0.5-1.4c-0.3-0.3-0.8-0.5-1.4-0.5h-0.8
		V427.6z"/>
	<path fill="#3E354E" d="M149.2,428.8c-1,0-1.7-0.3-2.2-0.8c-0.5-0.6-0.8-1.3-0.8-2.3l1.5-0.4c0.1,1.5,0.6,2.3,1.5,2.3
		c0.8,0,1.1-0.4,1.1-1.1c0-0.2,0-0.4-0.1-0.6c-0.1-0.2-0.2-0.4-0.3-0.5c-0.1-0.2-0.2-0.3-0.3-0.4s-0.2-0.2-0.4-0.4l-1.9-1.5
		c-0.3-0.3-0.6-0.6-0.8-1c-0.2-0.4-0.3-0.9-0.3-1.4c0-0.8,0.2-1.4,0.7-1.9c0.5-0.5,1.1-0.7,1.9-0.7c0.9,0,1.5,0.2,2.1,0.6
		s0.8,1,0.9,1.8c0,0.1,0,0.2,0,0.3l-1.5,0.4c0-0.1,0-0.2,0-0.3c-0.1-0.5-0.2-0.9-0.5-1.2c-0.2-0.3-0.6-0.4-1-0.4
		c-0.4,0-0.6,0.1-0.8,0.3s-0.3,0.5-0.3,0.8c0,0.6,0.3,1.1,0.8,1.5l1.9,1.5c1,0.8,1.5,1.8,1.5,2.9c0,0.8-0.2,1.4-0.7,1.8
		C150.7,428.6,150,428.8,149.2,428.8z"/>
	<path fill="#3E354E" d="M155,428.8c-0.6,0-1-0.2-1.3-0.5c-0.3-0.3-0.4-0.8-0.4-1.4v-4.7h-0.8v-1.1h0.8v-2.7h1.5v2.7h1.1v1.1h-1.1
		v4.4c0,0.3,0,0.5,0.1,0.7c0.1,0.1,0.3,0.2,0.5,0.2c0.1,0,0.3,0,0.5-0.1v1.2C155.6,428.8,155.3,428.8,155,428.8z"/>
	<path fill="#3E354E" d="M157.1,428.7v-7.6h1.5v1c0.2-0.3,0.4-0.6,0.7-0.8c0.3-0.2,0.6-0.3,1-0.3c0,0,0.1,0,0.2,0v1.7
		c-0.3-0.1-0.6-0.2-0.8-0.2c-0.3,0-0.6,0.1-0.8,0.3s-0.3,0.4-0.3,0.8v5.1H157.1z"/>
	<path fill="#3E354E" d="M163.3,428.8c-0.4,0-0.7-0.1-1-0.2c-0.3-0.1-0.5-0.3-0.6-0.5s-0.3-0.5-0.4-0.8c-0.1-0.3-0.2-0.6-0.2-1
		s-0.1-0.7-0.1-1.1c0-0.3,0-0.7,0-1c0-0.4,0-0.7,0.1-1.1s0.1-0.6,0.2-0.9s0.2-0.5,0.4-0.7c0.2-0.2,0.4-0.3,0.6-0.4
		c0.3-0.1,0.6-0.2,0.9-0.2c0.3,0,0.6,0,0.9,0.1s0.5,0.2,0.6,0.4c0.2,0.2,0.3,0.4,0.4,0.6s0.2,0.5,0.2,0.8s0.1,0.6,0.1,0.9s0,0.6,0,1
		v0.2h-3v0.4c0,0.1,0,0.1,0,0.2c0,0.1,0,0.3,0,0.5c0,0.2,0,0.3,0,0.5c0,0.2,0,0.3,0.1,0.4c0,0.1,0.1,0.3,0.1,0.4s0.1,0.2,0.2,0.2
		c0.1,0.1,0.2,0.1,0.3,0.1c0.2,0,0.3,0,0.4-0.1c0.1-0.1,0.2-0.2,0.2-0.3c0-0.1,0.1-0.2,0.1-0.4c0-0.1,0-0.3,0-0.5v-0.3h1.5v0.3
		c0,0.8-0.2,1.4-0.6,1.8C164.6,428.6,164,428.8,163.3,428.8z M162.5,424.2h1.5v-0.5c0-0.2,0-0.4,0-0.5c0-0.2-0.1-0.3-0.1-0.5
		c0-0.1-0.1-0.3-0.2-0.3c-0.1-0.1-0.2-0.1-0.4-0.1c-0.2,0-0.3,0-0.4,0.1c-0.1,0.1-0.2,0.2-0.2,0.4c0,0.2-0.1,0.3-0.1,0.5
		c0,0.1,0,0.3,0,0.5V424.2z"/>
	<path fill="#3E354E" d="M168.8,428.8c-0.4,0-0.7-0.1-1-0.2c-0.3-0.1-0.5-0.3-0.6-0.5s-0.3-0.5-0.4-0.8c-0.1-0.3-0.2-0.6-0.2-1
		s-0.1-0.7-0.1-1.1c0-0.3,0-0.7,0-1c0-0.4,0-0.7,0.1-1.1s0.1-0.6,0.2-0.9s0.2-0.5,0.4-0.7c0.2-0.2,0.4-0.3,0.6-0.4
		c0.3-0.1,0.6-0.2,0.9-0.2c0.3,0,0.6,0,0.9,0.1s0.5,0.2,0.6,0.4c0.2,0.2,0.3,0.4,0.4,0.6s0.2,0.5,0.2,0.8s0.1,0.6,0.1,0.9s0,0.6,0,1
		v0.2h-3v0.4c0,0.1,0,0.1,0,0.2c0,0.1,0,0.3,0,0.5c0,0.2,0,0.3,0,0.5c0,0.2,0,0.3,0.1,0.4c0,0.1,0.1,0.3,0.1,0.4s0.1,0.2,0.2,0.2
		c0.1,0.1,0.2,0.1,0.3,0.1c0.2,0,0.3,0,0.4-0.1c0.1-0.1,0.2-0.2,0.2-0.3c0-0.1,0.1-0.2,0.1-0.4c0-0.1,0-0.3,0-0.5v-0.3h1.5v0.3
		c0,0.8-0.2,1.4-0.6,1.8C170.1,428.6,169.5,428.8,168.8,428.8z M168,424.2h1.5v-0.5c0-0.2,0-0.4,0-0.5c0-0.2-0.1-0.3-0.1-0.5
		c0-0.1-0.1-0.3-0.2-0.3c-0.1-0.1-0.2-0.1-0.4-0.1c-0.2,0-0.3,0-0.4,0.1c-0.1,0.1-0.2,0.2-0.2,0.4c0,0.2-0.1,0.3-0.1,0.5
		c0,0.1,0,0.3,0,0.5V424.2z"/>
	<path fill="#3E354E" d="M174.3,428.8c-0.6,0-1-0.2-1.3-0.5c-0.3-0.3-0.4-0.8-0.4-1.4v-4.7h-0.8v-1.1h0.8v-2.7h1.5v2.7h1.1v1.1h-1.1
		v4.4c0,0.3,0,0.5,0.1,0.7c0.1,0.1,0.3,0.2,0.5,0.2c0.1,0,0.3,0,0.5-0.1v1.2C174.8,428.8,174.5,428.8,174.3,428.8z"/>
</g>
<rect x="192.5" y="458.1" fill="none" width="33.3" height="133.3"/>
<g enable-background="new    ">
	<path fill="#3E354E" d="M215.1,461.5c0-1,0.3-1.7,0.8-2.2c0.6-0.5,1.3-0.8,2.3-0.8l0.4,1.5c-1.5,0.1-2.3,0.6-2.3,1.5
		c0,0.8,0.4,1.1,1.1,1.1c0.2,0,0.4,0,0.6-0.1c0.2-0.1,0.4-0.2,0.5-0.3s0.3-0.2,0.4-0.3c0.1-0.1,0.2-0.2,0.4-0.4l1.5-1.9
		c0.3-0.3,0.6-0.6,1-0.8c0.4-0.2,0.9-0.3,1.4-0.3c0.8,0,1.4,0.2,1.9,0.7s0.7,1.1,0.7,1.9c0,0.9-0.2,1.5-0.6,2
		c-0.4,0.5-1,0.8-1.8,0.9c-0.1,0-0.2,0-0.3,0l-0.4-1.5c0.1,0,0.2,0,0.3,0c0.5-0.1,0.9-0.2,1.2-0.5c0.3-0.2,0.4-0.6,0.4-1
		c0-0.4-0.1-0.6-0.3-0.8s-0.5-0.3-0.8-0.3c-0.6,0-1.1,0.3-1.5,0.8l-1.5,1.9c-0.8,1-1.8,1.5-2.9,1.5c-0.8,0-1.4-0.2-1.8-0.7
		S215.1,462.4,215.1,461.5z"/>
	<path fill="#3E354E" d="M215.3,468.5h8.3v-1.1h1.1c0.3,0.8,0.7,1.3,1.1,1.5v1.1h-10.6V468.5z"/>
	<path fill="#3E354E" d="M215.3,471.2h1.5l3.8,2.7c0,0,0.1,0.1,0.3,0.2s0.2,0.2,0.3,0.2s0.1,0.1,0.3,0.2s0.2,0.1,0.3,0.2
		c0.1,0,0.2,0.1,0.3,0.1c0.1,0.1,0.3,0.1,0.4,0.1c0.1,0,0.2,0,0.4,0.1s0.3,0,0.4,0c0.4,0,0.8-0.1,1.1-0.3s0.4-0.5,0.4-0.8
		c0-0.2-0.1-0.4-0.2-0.6c-0.1-0.2-0.3-0.3-0.4-0.4s-0.4-0.1-0.6-0.2s-0.4-0.1-0.7-0.1h-0.4v-1.5h0.4c1,0,1.8,0.2,2.3,0.6
		c0.5,0.4,0.8,1.1,0.8,2c0,0.9-0.2,1.5-0.7,2c-0.5,0.5-1.2,0.7-2,0.7c-0.3,0-0.6,0-0.9-0.1c-0.3-0.1-0.6-0.1-0.8-0.3
		s-0.5-0.2-0.6-0.3c-0.2-0.1-0.4-0.2-0.7-0.4l-3.4-2.7v3.8h-1.5V471.2z"/>
	<path fill="#3E354E" d="M215.1,482.1c0-0.6,0.2-1,0.5-1.3s0.8-0.4,1.4-0.4h4.7v-0.8h1.1v0.8h2.7v1.5h-2.7v1.1h-1.1v-1.1h-4.4
		c-0.3,0-0.5,0-0.7,0.1s-0.2,0.3-0.2,0.5c0,0.1,0,0.3,0.1,0.5h-1.2C215.2,482.6,215.1,482.3,215.1,482.1z"/>
	<path fill="#3E354E" d="M215.3,484.1h10.6v1.5H222c0.2,0.2,0.4,0.4,0.5,0.6c0.1,0.1,0.2,0.3,0.3,0.6c0.1,0.2,0.1,0.5,0.1,0.8
		c0,0.3-0.1,0.6-0.4,0.8s-0.5,0.3-0.9,0.3h-6.5v-1.5h5.7c0.3,0,0.5,0,0.6-0.1c0.1-0.1,0.2-0.2,0.2-0.4c0-0.3-0.1-0.6-0.4-1h-6V484.1
		z"/>
	<path fill="#3E354E" d="M215.1,495.3c0-1,0.3-1.7,0.8-2.2c0.6-0.5,1.3-0.8,2.3-0.8l0.4,1.5c-1.5,0.1-2.3,0.6-2.3,1.5
		c0,0.8,0.4,1.1,1.1,1.1c0.2,0,0.4,0,0.6-0.1c0.2-0.1,0.4-0.2,0.5-0.3s0.3-0.2,0.4-0.3c0.1-0.1,0.2-0.2,0.4-0.4l1.5-1.9
		c0.3-0.3,0.6-0.6,1-0.8c0.4-0.2,0.9-0.3,1.4-0.3c0.8,0,1.4,0.2,1.9,0.7s0.7,1.1,0.7,1.9c0,0.9-0.2,1.5-0.6,2
		c-0.4,0.5-1,0.8-1.8,0.9c-0.1,0-0.2,0-0.3,0l-0.4-1.5c0.1,0,0.2,0,0.3,0c0.5-0.1,0.9-0.2,1.2-0.5c0.3-0.2,0.4-0.6,0.4-1
		c0-0.4-0.1-0.6-0.3-0.8s-0.5-0.3-0.8-0.3c-0.6,0-1.1,0.3-1.5,0.8l-1.5,1.9c-0.8,1-1.8,1.5-2.9,1.5c-0.8,0-1.4-0.2-1.8-0.7
		S215.1,496.1,215.1,495.3z"/>
	<path fill="#3E354E" d="M215.1,501.1c0-0.6,0.2-1,0.5-1.3s0.8-0.4,1.4-0.4h4.7v-0.8h1.1v0.8h2.7v1.5h-2.7v1.1h-1.1v-1.1h-4.4
		c-0.3,0-0.5,0-0.7,0.1s-0.2,0.3-0.2,0.5c0,0.1,0,0.3,0.1,0.5h-1.2C215.2,501.6,215.1,501.3,215.1,501.1z"/>
	<path fill="#3E354E" d="M215.3,503.1h7.6v1.5h-1c0.3,0.2,0.6,0.4,0.8,0.7c0.2,0.3,0.3,0.6,0.3,1c0,0,0,0.1,0,0.2h-1.7
		c0.1-0.3,0.2-0.6,0.2-0.8c0-0.3-0.1-0.6-0.3-0.8s-0.4-0.3-0.8-0.3h-5.1V503.1z"/>
	<path fill="#3E354E" d="M215.1,509.3c0-0.4,0.1-0.7,0.2-1c0.1-0.3,0.3-0.5,0.5-0.6c0.2-0.2,0.5-0.3,0.8-0.4c0.3-0.1,0.6-0.2,1-0.2
		c0.3,0,0.7-0.1,1.1-0.1c0.3,0,0.7,0,1,0c0.4,0,0.7,0,1.1,0.1c0.3,0,0.6,0.1,0.9,0.2c0.3,0.1,0.5,0.2,0.7,0.4
		c0.2,0.2,0.3,0.4,0.4,0.6c0.1,0.3,0.2,0.6,0.2,0.9c0,0.3,0,0.6-0.1,0.9c-0.1,0.2-0.2,0.5-0.4,0.6c-0.2,0.2-0.4,0.3-0.6,0.4
		c-0.2,0.1-0.5,0.2-0.8,0.2c-0.3,0.1-0.6,0.1-0.9,0.1c-0.3,0-0.6,0-1,0H219v-3h-0.4c-0.1,0-0.1,0-0.2,0c-0.1,0-0.3,0-0.5,0
		c-0.2,0-0.3,0-0.5,0s-0.3,0-0.4,0.1c-0.1,0-0.3,0.1-0.4,0.1c-0.1,0.1-0.2,0.1-0.2,0.2c-0.1,0.1-0.1,0.2-0.1,0.3
		c0,0.2,0,0.3,0.1,0.4c0.1,0.1,0.2,0.2,0.3,0.2c0.1,0,0.2,0.1,0.4,0.1c0.1,0,0.3,0,0.5,0h0.3v1.5h-0.3c-0.8,0-1.4-0.2-1.8-0.6
		C215.4,510.6,215.1,510.1,215.1,509.3z M219.8,508.6v1.5h0.5c0.2,0,0.4,0,0.5,0c0.1,0,0.3-0.1,0.4-0.1c0.1,0,0.3-0.1,0.3-0.2
		c0.1-0.1,0.1-0.2,0.1-0.4c0-0.2,0-0.3-0.1-0.4c-0.1-0.1-0.2-0.2-0.4-0.2c-0.2,0-0.3-0.1-0.5-0.1s-0.3,0-0.5,0H219.8z"/>
	<path fill="#3E354E" d="M215.1,514.8c0-0.4,0.1-0.7,0.2-1c0.1-0.3,0.3-0.5,0.5-0.6c0.2-0.2,0.5-0.3,0.8-0.4c0.3-0.1,0.6-0.2,1-0.2
		c0.3,0,0.7-0.1,1.1-0.1c0.3,0,0.7,0,1,0c0.4,0,0.7,0,1.1,0.1c0.3,0,0.6,0.1,0.9,0.2c0.3,0.1,0.5,0.2,0.7,0.4
		c0.2,0.2,0.3,0.4,0.4,0.6c0.1,0.3,0.2,0.6,0.2,0.9c0,0.3,0,0.6-0.1,0.9c-0.1,0.2-0.2,0.5-0.4,0.6c-0.2,0.2-0.4,0.3-0.6,0.4
		c-0.2,0.1-0.5,0.2-0.8,0.2c-0.3,0.1-0.6,0.1-0.9,0.1c-0.3,0-0.6,0-1,0H219v-3h-0.4c-0.1,0-0.1,0-0.2,0c-0.1,0-0.3,0-0.5,0
		c-0.2,0-0.3,0-0.5,0s-0.3,0-0.4,0.1c-0.1,0-0.3,0.1-0.4,0.1c-0.1,0.1-0.2,0.1-0.2,0.2c-0.1,0.1-0.1,0.2-0.1,0.3
		c0,0.2,0,0.3,0.1,0.4c0.1,0.1,0.2,0.2,0.3,0.2c0.1,0,0.2,0.1,0.4,0.1c0.1,0,0.3,0,0.5,0h0.3v1.5h-0.3c-0.8,0-1.4-0.2-1.8-0.6
		C215.4,516.1,215.1,515.6,215.1,514.8z M219.8,514.1v1.5h0.5c0.2,0,0.4,0,0.5,0c0.1,0,0.3-0.1,0.4-0.1c0.1,0,0.3-0.1,0.3-0.2
		c0.1-0.1,0.1-0.2,0.1-0.4c0-0.2,0-0.3-0.1-0.4c-0.1-0.1-0.2-0.2-0.4-0.2c-0.2,0-0.3-0.1-0.5-0.1s-0.3,0-0.5,0H219.8z"/>
	<path fill="#3E354E" d="M215.1,520.3c0-0.6,0.2-1,0.5-1.3s0.8-0.4,1.4-0.4h4.7v-0.8h1.1v0.8h2.7v1.5h-2.7v1.1h-1.1v-1.1h-4.4
		c-0.3,0-0.5,0-0.7,0.1s-0.2,0.3-0.2,0.5c0,0.1,0,0.3,0.1,0.5h-1.2C215.2,520.9,215.1,520.6,215.1,520.3z"/>
</g>
<rect x="345" y="459.1" fill="none" width="33.3" height="133.3"/>
<g enable-background="new    ">
	<path fill="#3E354E" d="M367.6,462.6c0-1,0.3-1.7,0.8-2.2c0.6-0.5,1.3-0.8,2.3-0.8l0.4,1.5c-1.5,0.1-2.3,0.6-2.3,1.5
		c0,0.8,0.4,1.1,1.1,1.1c0.2,0,0.4,0,0.6-0.1c0.2-0.1,0.4-0.2,0.5-0.3c0.2-0.1,0.3-0.2,0.4-0.3c0.1-0.1,0.2-0.2,0.4-0.4l1.5-1.9
		c0.3-0.3,0.6-0.6,1-0.8c0.4-0.2,0.9-0.3,1.4-0.3c0.8,0,1.4,0.2,1.9,0.7c0.5,0.5,0.7,1.1,0.7,1.9c0,0.9-0.2,1.5-0.6,2
		s-1,0.8-1.8,0.9c-0.1,0-0.2,0-0.3,0l-0.4-1.5c0.1,0,0.2,0,0.3,0c0.5-0.1,0.9-0.2,1.2-0.5s0.4-0.6,0.4-1c0-0.4-0.1-0.6-0.3-0.8
		s-0.5-0.3-0.8-0.3c-0.6,0-1.1,0.3-1.5,0.8l-1.5,1.9c-0.8,1-1.8,1.5-2.9,1.5c-0.8,0-1.4-0.2-1.8-0.7
		C367.9,464,367.6,463.4,367.6,462.6z"/>
	<path fill="#3E354E" d="M367.7,469.5h8.3v-1.1h1.1c0.3,0.8,0.7,1.3,1.1,1.5v1.1h-10.6V469.5z"/>
	<path fill="#3E354E" d="M367.6,474.9c0-0.9,0.2-1.5,0.7-2c0.5-0.5,1.2-0.7,2-0.7h0.4v1.5c-0.2,0-0.4,0-0.6,0c-0.2,0-0.3,0-0.5,0.1
		c-0.2,0-0.3,0.1-0.4,0.2s-0.2,0.2-0.3,0.3c-0.1,0.1-0.1,0.3-0.1,0.5s0,0.4,0.1,0.5c0.1,0.1,0.2,0.3,0.3,0.3
		c0.1,0.1,0.2,0.1,0.4,0.2c0.2,0,0.3,0.1,0.5,0.1c0.2,0,0.4,0,0.6,0c0.6,0,1.1-0.1,1.4-0.4c0.3-0.2,0.5-0.6,0.5-1.2h1.5
		c0,0.6,0.1,0.9,0.3,1.2s0.6,0.3,1.2,0.3c0.5,0,0.9-0.1,1.1-0.2c0.3-0.2,0.4-0.5,0.4-0.9c0-0.2,0-0.4-0.1-0.5
		c-0.1-0.1-0.2-0.3-0.3-0.3s-0.2-0.1-0.4-0.2c-0.2,0-0.3-0.1-0.5-0.1s-0.4,0-0.6,0v-1.5h0.4c0.9,0,1.5,0.2,2,0.7
		c0.5,0.5,0.7,1.1,0.7,2c0,0.9-0.2,1.5-0.7,2s-1.2,0.7-2,0.7c-0.6,0-1.1-0.1-1.5-0.4c-0.4-0.3-0.7-0.6-0.8-1.1
		c-0.2,0.5-0.5,0.9-0.9,1.1c-0.5,0.3-1,0.4-1.7,0.4c-1,0-1.8-0.2-2.3-0.6C367.9,476.5,367.6,475.8,367.6,474.9z"/>
	<path fill="#3E354E" d="M367.6,483.1c0-0.6,0.2-1,0.5-1.3c0.3-0.3,0.8-0.4,1.4-0.4h4.7v-0.8h1.1v0.8h2.7v1.5h-2.7v1.1h-1.1v-1.1
		h-4.4c-0.3,0-0.5,0-0.7,0.1c-0.1,0.1-0.2,0.3-0.2,0.5c0,0.1,0,0.3,0.1,0.5h-1.2C367.7,483.7,367.6,483.4,367.6,483.1z"/>
	<path fill="#3E354E" d="M367.7,485.2h10.6v1.5h-3.8c0.2,0.2,0.4,0.4,0.5,0.6c0.1,0.1,0.2,0.3,0.3,0.6c0.1,0.2,0.1,0.5,0.1,0.8
		c0,0.3-0.1,0.6-0.4,0.8c-0.2,0.2-0.5,0.3-0.9,0.3h-6.5v-1.5h5.7c0.3,0,0.5,0,0.6-0.1c0.1-0.1,0.2-0.2,0.2-0.4c0-0.3-0.1-0.6-0.4-1
		h-6V485.2z"/>
	<path fill="#3E354E" d="M367.6,496.3c0-1,0.3-1.7,0.8-2.2c0.6-0.5,1.3-0.8,2.3-0.8l0.4,1.5c-1.5,0.1-2.3,0.6-2.3,1.5
		c0,0.8,0.4,1.1,1.1,1.1c0.2,0,0.4,0,0.6-0.1c0.2-0.1,0.4-0.2,0.5-0.3c0.2-0.1,0.3-0.2,0.4-0.3c0.1-0.1,0.2-0.2,0.4-0.4l1.5-1.9
		c0.3-0.3,0.6-0.6,1-0.8c0.4-0.2,0.9-0.3,1.4-0.3c0.8,0,1.4,0.2,1.9,0.7c0.5,0.5,0.7,1.1,0.7,1.9c0,0.9-0.2,1.5-0.6,2
		s-1,0.8-1.8,0.9c-0.1,0-0.2,0-0.3,0l-0.4-1.5c0.1,0,0.2,0,0.3,0c0.5-0.1,0.9-0.2,1.2-0.5s0.4-0.6,0.4-1c0-0.4-0.1-0.6-0.3-0.8
		s-0.5-0.3-0.8-0.3c-0.6,0-1.1,0.3-1.5,0.8l-1.5,1.9c-0.8,1-1.8,1.5-2.9,1.5c-0.8,0-1.4-0.2-1.8-0.7
		C367.9,497.8,367.6,497.1,367.6,496.3z"/>
	<path fill="#3E354E" d="M367.6,502.1c0-0.6,0.2-1,0.5-1.3c0.3-0.3,0.8-0.4,1.4-0.4h4.7v-0.8h1.1v0.8h2.7v1.5h-2.7v1.1h-1.1v-1.1
		h-4.4c-0.3,0-0.5,0-0.7,0.1c-0.1,0.1-0.2,0.3-0.2,0.5c0,0.1,0,0.3,0.1,0.5h-1.2C367.7,502.7,367.6,502.4,367.6,502.1z"/>
	<path fill="#3E354E" d="M367.7,504.2h7.6v1.5h-1c0.3,0.2,0.6,0.4,0.8,0.7c0.2,0.3,0.3,0.6,0.3,1c0,0,0,0.1,0,0.2h-1.7
		c0.1-0.3,0.2-0.6,0.2-0.8c0-0.3-0.1-0.6-0.3-0.8s-0.4-0.3-0.8-0.3h-5.1V504.2z"/>
	<path fill="#3E354E" d="M367.6,510.4c0-0.4,0.1-0.7,0.2-1s0.3-0.5,0.5-0.6c0.2-0.2,0.5-0.3,0.8-0.4c0.3-0.1,0.6-0.2,1-0.2
		c0.3,0,0.7-0.1,1.1-0.1c0.3,0,0.7,0,1,0c0.4,0,0.7,0,1.1,0.1c0.3,0,0.6,0.1,0.9,0.2s0.5,0.2,0.7,0.4c0.2,0.2,0.3,0.4,0.4,0.6
		c0.1,0.3,0.2,0.6,0.2,0.9c0,0.3,0,0.6-0.1,0.9c-0.1,0.2-0.2,0.5-0.4,0.6c-0.2,0.2-0.4,0.3-0.6,0.4s-0.5,0.2-0.8,0.2
		c-0.3,0.1-0.6,0.1-0.9,0.1s-0.6,0-1,0h-0.2v-3h-0.4c-0.1,0-0.1,0-0.2,0c-0.1,0-0.3,0-0.5,0c-0.2,0-0.3,0-0.5,0
		c-0.2,0-0.3,0-0.4,0.1c-0.1,0-0.3,0.1-0.4,0.1c-0.1,0.1-0.2,0.1-0.2,0.2c-0.1,0.1-0.1,0.2-0.1,0.3c0,0.2,0,0.3,0.1,0.4
		c0.1,0.1,0.2,0.2,0.3,0.2c0.1,0,0.2,0.1,0.4,0.1s0.3,0,0.5,0h0.3v1.5h-0.3c-0.8,0-1.4-0.2-1.8-0.6
		C367.8,511.7,367.6,511.1,367.6,510.4z M372.3,509.6v1.5h0.5c0.2,0,0.4,0,0.5,0c0.2,0,0.3-0.1,0.5-0.1c0.1,0,0.3-0.1,0.3-0.2
		c0.1-0.1,0.1-0.2,0.1-0.4c0-0.2,0-0.3-0.1-0.4c-0.1-0.1-0.2-0.2-0.4-0.2c-0.2,0-0.3-0.1-0.5-0.1c-0.1,0-0.3,0-0.5,0H372.3z"/>
	<path fill="#3E354E" d="M367.6,515.9c0-0.4,0.1-0.7,0.2-1s0.3-0.5,0.5-0.6c0.2-0.2,0.5-0.3,0.8-0.4c0.3-0.1,0.6-0.2,1-0.2
		c0.3,0,0.7-0.1,1.1-0.1c0.3,0,0.7,0,1,0c0.4,0,0.7,0,1.1,0.1c0.3,0,0.6,0.1,0.9,0.2s0.5,0.2,0.7,0.4c0.2,0.2,0.3,0.4,0.4,0.6
		c0.1,0.3,0.2,0.6,0.2,0.9c0,0.3,0,0.6-0.1,0.9c-0.1,0.2-0.2,0.5-0.4,0.6c-0.2,0.2-0.4,0.3-0.6,0.4s-0.5,0.2-0.8,0.2
		c-0.3,0.1-0.6,0.1-0.9,0.1s-0.6,0-1,0h-0.2v-3h-0.4c-0.1,0-0.1,0-0.2,0c-0.1,0-0.3,0-0.5,0c-0.2,0-0.3,0-0.5,0
		c-0.2,0-0.3,0-0.4,0.1c-0.1,0-0.3,0.1-0.4,0.1c-0.1,0.1-0.2,0.1-0.2,0.2c-0.1,0.1-0.1,0.2-0.1,0.3c0,0.2,0,0.3,0.1,0.4
		c0.1,0.1,0.2,0.2,0.3,0.2c0.1,0,0.2,0.1,0.4,0.1s0.3,0,0.5,0h0.3v1.5h-0.3c-0.8,0-1.4-0.2-1.8-0.6
		C367.8,517.2,367.6,516.6,367.6,515.9z M372.3,515.1v1.5h0.5c0.2,0,0.4,0,0.5,0c0.2,0,0.3-0.1,0.5-0.1c0.1,0,0.3-0.1,0.3-0.2
		c0.1-0.1,0.1-0.2,0.1-0.4c0-0.2,0-0.3-0.1-0.4c-0.1-0.1-0.2-0.2-0.4-0.2c-0.2,0-0.3-0.1-0.5-0.1c-0.1,0-0.3,0-0.5,0H372.3z"/>
	<path fill="#3E354E" d="M367.6,521.4c0-0.6,0.2-1,0.5-1.3c0.3-0.3,0.8-0.4,1.4-0.4h4.7v-0.8h1.1v0.8h2.7v1.5h-2.7v1.1h-1.1v-1.1
		h-4.4c-0.3,0-0.5,0-0.7,0.1c-0.1,0.1-0.2,0.3-0.2,0.5c0,0.1,0,0.3,0.1,0.5h-1.2C367.7,521.9,367.6,521.6,367.6,521.4z"/>
</g>
<rect x="24.8" y="360.1" fill="none" width="33.3" height="133.3"/>
<g enable-background="new    ">
	<path fill="#3E354E" d="M47.5,363.6c0-1,0.3-1.7,0.8-2.2c0.6-0.5,1.3-0.8,2.3-0.8l0.4,1.5c-1.5,0.1-2.3,0.6-2.3,1.5
		c0,0.8,0.4,1.1,1.1,1.1c0.2,0,0.4,0,0.6-0.1c0.2-0.1,0.4-0.2,0.5-0.3c0.2-0.1,0.3-0.2,0.4-0.3s0.2-0.2,0.4-0.4l1.5-1.9
		c0.3-0.3,0.6-0.6,1-0.8c0.4-0.2,0.9-0.3,1.4-0.3c0.8,0,1.4,0.2,1.9,0.7c0.5,0.5,0.7,1.1,0.7,1.9c0,0.9-0.2,1.5-0.6,2.1
		c-0.4,0.5-1,0.8-1.8,0.9c-0.1,0-0.2,0-0.3,0l-0.4-1.5c0.1,0,0.2,0,0.3,0c0.5-0.1,0.9-0.2,1.2-0.5c0.3-0.2,0.4-0.6,0.4-1
		c0-0.4-0.1-0.6-0.3-0.8s-0.5-0.3-0.8-0.3c-0.6,0-1.1,0.3-1.5,0.8l-1.5,1.9c-0.8,1-1.8,1.5-2.9,1.5c-0.8,0-1.4-0.2-1.8-0.7
		C47.7,365,47.5,364.4,47.5,363.6z"/>
	<path fill="#3E354E" d="M47.6,370.6h8.3v-1.1h1.1c0.3,0.8,0.7,1.3,1.1,1.5v1.1H47.6V370.6z"/>
	<path fill="#3E354E" d="M47.6,374.3h8.3v-1.1h1.1c0.3,0.8,0.7,1.3,1.1,1.5v1.1H47.6V374.3z"/>
	<path fill="#3E354E" d="M47.5,381.9c0-0.6,0.2-1,0.5-1.3s0.8-0.4,1.4-0.4H54v-0.8h1.1v0.8h2.7v1.5h-2.7v1.1H54v-1.1h-4.4
		c-0.3,0-0.5,0-0.7,0.1c-0.1,0.1-0.2,0.3-0.2,0.5c0,0.1,0,0.3,0.1,0.5h-1.2C47.5,382.4,47.5,382.1,47.5,381.9z"/>
	<path fill="#3E354E" d="M47.6,383.9h10.6v1.5h-3.8c0.2,0.2,0.4,0.4,0.5,0.6c0.1,0.1,0.2,0.3,0.3,0.6s0.1,0.5,0.1,0.8
		c0,0.3-0.1,0.6-0.4,0.8s-0.5,0.3-0.9,0.3h-6.5v-1.5h5.7c0.3,0,0.5,0,0.6-0.1c0.1-0.1,0.2-0.2,0.2-0.4c0-0.3-0.1-0.6-0.4-1h-6V383.9
		z"/>
	<path fill="#3E354E" d="M47.5,395.1c0-1,0.3-1.7,0.8-2.2c0.6-0.5,1.3-0.8,2.3-0.8l0.4,1.5c-1.5,0.1-2.3,0.6-2.3,1.5
		c0,0.8,0.4,1.1,1.1,1.1c0.2,0,0.4,0,0.6-0.1c0.2-0.1,0.4-0.2,0.5-0.3c0.2-0.1,0.3-0.2,0.4-0.3s0.2-0.2,0.4-0.4l1.5-1.9
		c0.3-0.3,0.6-0.6,1-0.8c0.4-0.2,0.9-0.3,1.4-0.3c0.8,0,1.4,0.2,1.9,0.7c0.5,0.5,0.7,1.1,0.7,1.9c0,0.9-0.2,1.5-0.6,2.1
		c-0.4,0.5-1,0.8-1.8,0.9c-0.1,0-0.2,0-0.3,0l-0.4-1.5c0.1,0,0.2,0,0.3,0c0.5-0.1,0.9-0.2,1.2-0.5c0.3-0.2,0.4-0.6,0.4-1
		c0-0.4-0.1-0.6-0.3-0.8s-0.5-0.3-0.8-0.3c-0.6,0-1.1,0.3-1.5,0.8l-1.5,1.9c-0.8,1-1.8,1.5-2.9,1.5c-0.8,0-1.4-0.2-1.8-0.7
		S47.5,395.9,47.5,395.1z"/>
	<path fill="#3E354E" d="M47.5,400.9c0-0.6,0.2-1,0.5-1.3s0.8-0.4,1.4-0.4H54v-0.8h1.1v0.8h2.7v1.5h-2.7v1.1H54v-1.1h-4.4
		c-0.3,0-0.5,0-0.7,0.1s-0.2,0.3-0.2,0.5c0,0.1,0,0.3,0.1,0.5h-1.2C47.5,401.4,47.5,401.1,47.5,400.9z"/>
	<path fill="#3E354E" d="M47.6,402.9h7.6v1.5h-1c0.3,0.2,0.6,0.4,0.8,0.7c0.2,0.3,0.3,0.6,0.3,1c0,0,0,0.1,0,0.2h-1.7
		c0.1-0.3,0.2-0.6,0.2-0.8c0-0.3-0.1-0.6-0.3-0.8s-0.4-0.3-0.8-0.3h-5.1V402.9z"/>
	<path fill="#3E354E" d="M47.5,409.1c0-0.4,0.1-0.7,0.2-1c0.1-0.3,0.3-0.5,0.5-0.6c0.2-0.2,0.5-0.3,0.8-0.4c0.3-0.1,0.6-0.2,1-0.2
		c0.3,0,0.7-0.1,1.1-0.1c0.3,0,0.7,0,1,0c0.4,0,0.7,0,1.1,0.1c0.3,0,0.6,0.1,0.9,0.2c0.3,0.1,0.5,0.2,0.7,0.4
		c0.2,0.2,0.3,0.4,0.4,0.6c0.1,0.3,0.2,0.6,0.2,0.9c0,0.3,0,0.6-0.1,0.9c-0.1,0.2-0.2,0.5-0.4,0.6c-0.2,0.2-0.4,0.3-0.6,0.4
		c-0.2,0.1-0.5,0.2-0.8,0.2c-0.3,0.1-0.6,0.1-0.9,0.1c-0.3,0-0.6,0-1,0h-0.2v-3H51c-0.1,0-0.1,0-0.2,0c-0.1,0-0.3,0-0.5,0
		c-0.2,0-0.3,0-0.5,0s-0.3,0-0.4,0.1c-0.1,0-0.3,0.1-0.4,0.1c-0.1,0.1-0.2,0.1-0.2,0.2c-0.1,0.1-0.1,0.2-0.1,0.3
		c0,0.2,0,0.3,0.1,0.4c0.1,0.1,0.2,0.2,0.3,0.2c0.1,0,0.2,0.1,0.4,0.1c0.1,0,0.3,0,0.5,0h0.3v1.5H50c-0.8,0-1.4-0.2-1.8-0.6
		C47.7,410.4,47.5,409.9,47.5,409.1z M52.2,408.4v1.5h0.5c0.2,0,0.4,0,0.5,0c0.1,0,0.3-0.1,0.4-0.1c0.1,0,0.3-0.1,0.3-0.2
		c0.1-0.1,0.1-0.2,0.1-0.4c0-0.2,0-0.3-0.1-0.4c-0.1-0.1-0.2-0.2-0.4-0.2c-0.2,0-0.3-0.1-0.5-0.1s-0.3,0-0.5,0H52.2z"/>
	<path fill="#3E354E" d="M47.5,414.6c0-0.4,0.1-0.7,0.2-1c0.1-0.3,0.3-0.5,0.5-0.6c0.2-0.2,0.5-0.3,0.8-0.4c0.3-0.1,0.6-0.2,1-0.2
		c0.3,0,0.7-0.1,1.1-0.1c0.3,0,0.7,0,1,0c0.4,0,0.7,0,1.1,0.1c0.3,0,0.6,0.1,0.9,0.2c0.3,0.1,0.5,0.2,0.7,0.4
		c0.2,0.2,0.3,0.4,0.4,0.6c0.1,0.3,0.2,0.6,0.2,0.9c0,0.3,0,0.6-0.1,0.9c-0.1,0.2-0.2,0.5-0.4,0.6c-0.2,0.2-0.4,0.3-0.6,0.4
		c-0.2,0.1-0.5,0.2-0.8,0.2c-0.3,0.1-0.6,0.1-0.9,0.1c-0.3,0-0.6,0-1,0h-0.2v-3H51c-0.1,0-0.1,0-0.2,0c-0.1,0-0.3,0-0.5,0
		c-0.2,0-0.3,0-0.5,0s-0.3,0-0.4,0.1c-0.1,0-0.3,0.1-0.4,0.1c-0.1,0.1-0.2,0.1-0.2,0.2c-0.1,0.1-0.1,0.2-0.1,0.3
		c0,0.2,0,0.3,0.1,0.4c0.1,0.1,0.2,0.2,0.3,0.2c0.1,0,0.2,0.1,0.4,0.1c0.1,0,0.3,0,0.5,0h0.3v1.5H50c-0.8,0-1.4-0.2-1.8-0.6
		C47.7,415.9,47.5,415.4,47.5,414.6z M52.2,413.9v1.5h0.5c0.2,0,0.4,0,0.5,0c0.1,0,0.3-0.1,0.4-0.1c0.1,0,0.3-0.1,0.3-0.2
		c0.1-0.1,0.1-0.2,0.1-0.4c0-0.2,0-0.3-0.1-0.4c-0.1-0.1-0.2-0.2-0.4-0.2c-0.2,0-0.3-0.1-0.5-0.1s-0.3,0-0.5,0H52.2z"/>
	<path fill="#3E354E" d="M47.5,420.1c0-0.6,0.2-1,0.5-1.3s0.8-0.4,1.4-0.4H54v-0.8h1.1v0.8h2.7v1.5h-2.7v1.1H54v-1.1h-4.4
		c-0.3,0-0.5,0-0.7,0.1s-0.2,0.3-0.2,0.5c0,0.1,0,0.3,0.1,0.5h-1.2C47.5,420.7,47.5,420.3,47.5,420.1z"/>
</g>
<rect x="502.5" y="363.1" fill="none" width="33.3" height="133.3"/>
<g enable-background="new    ">
	<path fill="#3E354E" d="M524.2,366.6c0-1,0.3-1.7,0.8-2.2c0.6-0.5,1.3-0.8,2.3-0.8l0.4,1.5c-1.5,0.1-2.3,0.6-2.3,1.5
		c0,0.8,0.4,1.1,1.1,1.1c0.2,0,0.4,0,0.6-0.1c0.2-0.1,0.4-0.2,0.5-0.3c0.2-0.1,0.3-0.2,0.4-0.3s0.2-0.2,0.4-0.4l1.5-1.9
		c0.3-0.3,0.6-0.6,1-0.8c0.4-0.2,0.9-0.3,1.4-0.3c0.8,0,1.4,0.2,1.9,0.7c0.5,0.5,0.7,1.1,0.7,1.9c0,0.9-0.2,1.5-0.6,2.1
		s-1,0.8-1.8,0.9c-0.1,0-0.2,0-0.3,0l-0.4-1.5c0.1,0,0.2,0,0.3,0c0.5-0.1,0.9-0.2,1.2-0.5c0.3-0.2,0.4-0.6,0.4-1
		c0-0.4-0.1-0.6-0.3-0.8s-0.5-0.3-0.8-0.3c-0.6,0-1.1,0.3-1.5,0.8l-1.5,1.9c-0.8,1-1.8,1.5-2.9,1.5c-0.8,0-1.4-0.2-1.8-0.7
		C524.4,368.1,524.2,367.4,524.2,366.6z"/>
	<path fill="#3E354E" d="M524.3,373.6h8.3v-1.1h1.1c0.3,0.8,0.7,1.3,1.1,1.5v1.1h-10.6V373.6z"/>
	<path fill="#3E354E" d="M524.3,379.4h2.7v-3h1.7l6.2,2.7v1.9h-6.5v1.2H527v-1.2h-2.7V379.4z M528.4,377.9v1.5h4.6L528.4,377.9z"/>
	<path fill="#3E354E" d="M524.2,387.6c0-0.6,0.2-1,0.5-1.3c0.3-0.3,0.8-0.4,1.4-0.4h4.7v-0.8h1.1v0.8h2.7v1.5h-2.7v1.1h-1.1v-1.1
		h-4.4c-0.3,0-0.5,0-0.7,0.1c-0.1,0.1-0.2,0.3-0.2,0.5c0,0.1,0,0.3,0.1,0.5h-1.2C524.2,388.1,524.2,387.8,524.2,387.6z"/>
	<path fill="#3E354E" d="M524.3,389.6h10.6v1.5H531c0.2,0.2,0.4,0.4,0.5,0.6c0.1,0.1,0.2,0.3,0.3,0.6s0.1,0.5,0.1,0.8
		c0,0.3-0.1,0.6-0.4,0.8c-0.2,0.2-0.5,0.3-0.9,0.3h-6.5v-1.5h5.7c0.3,0,0.5,0,0.6-0.1c0.1-0.1,0.2-0.2,0.2-0.4c0-0.3-0.1-0.6-0.4-1
		h-6V389.6z"/>
	<path fill="#3E354E" d="M524.2,400.8c0-1,0.3-1.7,0.8-2.2c0.6-0.5,1.3-0.8,2.3-0.8l0.4,1.5c-1.5,0.1-2.3,0.6-2.3,1.5
		c0,0.8,0.4,1.1,1.1,1.1c0.2,0,0.4,0,0.6-0.1c0.2-0.1,0.4-0.2,0.5-0.3c0.2-0.1,0.3-0.2,0.4-0.3c0.1-0.1,0.2-0.2,0.4-0.4l1.5-1.9
		c0.3-0.3,0.6-0.6,1-0.8c0.4-0.2,0.9-0.3,1.4-0.3c0.8,0,1.4,0.2,1.9,0.7c0.5,0.5,0.7,1.1,0.7,1.9c0,0.9-0.2,1.5-0.6,2
		s-1,0.8-1.8,0.9c-0.1,0-0.2,0-0.3,0l-0.4-1.5c0.1,0,0.2,0,0.3,0c0.5-0.1,0.9-0.2,1.2-0.5s0.4-0.6,0.4-1c0-0.4-0.1-0.6-0.3-0.8
		s-0.5-0.3-0.8-0.3c-0.6,0-1.1,0.3-1.5,0.8l-1.5,1.9c-0.8,1-1.8,1.5-2.9,1.5c-0.8,0-1.4-0.2-1.8-0.7
		C524.4,402.2,524.2,401.6,524.2,400.8z"/>
	<path fill="#3E354E" d="M524.2,406.5c0-0.6,0.2-1,0.5-1.3c0.3-0.3,0.8-0.4,1.4-0.4h4.7v-0.8h1.1v0.8h2.7v1.5h-2.7v1.1h-1.1v-1.1
		h-4.4c-0.3,0-0.5,0-0.7,0.1c-0.1,0.1-0.2,0.3-0.2,0.5c0,0.1,0,0.3,0.1,0.5h-1.2C524.2,407.1,524.2,406.8,524.2,406.5z"/>
	<path fill="#3E354E" d="M524.3,408.6h7.6v1.5h-1c0.3,0.2,0.6,0.4,0.8,0.7c0.2,0.3,0.3,0.6,0.3,1c0,0,0,0.1,0,0.2h-1.7
		c0.1-0.3,0.2-0.6,0.2-0.8c0-0.3-0.1-0.6-0.3-0.8s-0.4-0.3-0.8-0.3h-5.1V408.6z"/>
	<path fill="#3E354E" d="M524.2,414.8c0-0.4,0.1-0.7,0.2-1s0.3-0.5,0.5-0.6c0.2-0.2,0.5-0.3,0.8-0.4c0.3-0.1,0.6-0.2,1-0.2
		c0.3,0,0.7-0.1,1.1-0.1c0.3,0,0.7,0,1,0c0.4,0,0.7,0,1.1,0.1c0.3,0,0.6,0.1,0.9,0.2s0.5,0.2,0.7,0.4c0.2,0.2,0.3,0.4,0.4,0.6
		c0.1,0.3,0.2,0.6,0.2,0.9c0,0.3,0,0.6-0.1,0.9c-0.1,0.2-0.2,0.5-0.4,0.6c-0.2,0.2-0.4,0.3-0.6,0.4s-0.5,0.2-0.8,0.2
		c-0.3,0.1-0.6,0.1-0.9,0.1s-0.6,0-1,0h-0.2v-3h-0.4c-0.1,0-0.1,0-0.2,0c-0.1,0-0.3,0-0.5,0c-0.2,0-0.3,0-0.5,0
		c-0.2,0-0.3,0-0.4,0.1c-0.1,0-0.3,0.1-0.4,0.1c-0.1,0.1-0.2,0.1-0.2,0.2c-0.1,0.1-0.1,0.2-0.1,0.3c0,0.2,0,0.3,0.1,0.4
		c0.1,0.1,0.2,0.2,0.3,0.2c0.1,0,0.2,0.1,0.4,0.1s0.3,0,0.5,0h0.3v1.5h-0.3c-0.8,0-1.4-0.2-1.8-0.6
		C524.4,416.1,524.2,415.5,524.2,414.8z M528.8,414v1.5h0.5c0.2,0,0.4,0,0.5,0c0.2,0,0.3-0.1,0.5-0.1c0.1,0,0.3-0.1,0.3-0.2
		c0.1-0.1,0.1-0.2,0.1-0.4c0-0.2,0-0.3-0.1-0.4c-0.1-0.1-0.2-0.2-0.4-0.2c-0.2,0-0.3-0.1-0.5-0.1c-0.1,0-0.3,0-0.5,0H528.8z"/>
	<path fill="#3E354E" d="M524.2,420.3c0-0.4,0.1-0.7,0.2-1s0.3-0.5,0.5-0.6c0.2-0.2,0.5-0.3,0.8-0.4c0.3-0.1,0.6-0.2,1-0.2
		c0.3,0,0.7-0.1,1.1-0.1c0.3,0,0.7,0,1,0c0.4,0,0.7,0,1.1,0.1c0.3,0,0.6,0.1,0.9,0.2s0.5,0.2,0.7,0.4c0.2,0.2,0.3,0.4,0.4,0.6
		c0.1,0.3,0.2,0.6,0.2,0.9c0,0.3,0,0.6-0.1,0.9c-0.1,0.2-0.2,0.5-0.4,0.6c-0.2,0.2-0.4,0.3-0.6,0.4s-0.5,0.2-0.8,0.2
		c-0.3,0.1-0.6,0.1-0.9,0.1s-0.6,0-1,0h-0.2v-3h-0.4c-0.1,0-0.1,0-0.2,0c-0.1,0-0.3,0-0.5,0c-0.2,0-0.3,0-0.5,0
		c-0.2,0-0.3,0-0.4,0.1c-0.1,0-0.3,0.1-0.4,0.1c-0.1,0.1-0.2,0.1-0.2,0.2c-0.1,0.1-0.1,0.2-0.1,0.3c0,0.2,0,0.3,0.1,0.4
		c0.1,0.1,0.2,0.2,0.3,0.2c0.1,0,0.2,0.1,0.4,0.1s0.3,0,0.5,0h0.3v1.5h-0.3c-0.8,0-1.4-0.2-1.8-0.6
		C524.4,421.6,524.2,421,524.2,420.3z M528.8,419.5v1.5h0.5c0.2,0,0.4,0,0.5,0c0.2,0,0.3-0.1,0.5-0.1c0.1,0,0.3-0.1,0.3-0.2
		c0.1-0.1,0.1-0.2,0.1-0.4c0-0.2,0-0.3-0.1-0.4c-0.1-0.1-0.2-0.2-0.4-0.2c-0.2,0-0.3-0.1-0.5-0.1c-0.1,0-0.3,0-0.5,0H528.8z"/>
	<path fill="#3E354E" d="M524.2,425.8c0-0.6,0.2-1,0.5-1.3c0.3-0.3,0.8-0.4,1.4-0.4h4.7v-0.8h1.1v0.8h2.7v1.5h-2.7v1.1h-1.1v-1.1
		h-4.4c-0.3,0-0.5,0-0.7,0.1c-0.1,0.1-0.2,0.3-0.2,0.5c0,0.1,0,0.3,0.1,0.5h-1.2C524.2,426.3,524.2,426,524.2,425.8z"/>
</g>
<rect x="447.5" y="262.6" fill="none" width="133.3" height="33.3"/>
<g enable-background="new    ">
	<path fill="#3E354E" d="M451,273.3c-0.4,0-0.8-0.1-1.2-0.2c-0.3-0.1-0.6-0.3-0.8-0.5c-0.2-0.2-0.4-0.5-0.5-0.8
		c-0.1-0.3-0.2-0.7-0.3-1.1c-0.1-0.4-0.1-0.8-0.1-1.3v-3c0-0.5,0-0.9,0.1-1.3c0.1-0.4,0.2-0.7,0.3-1.1c0.1-0.3,0.3-0.6,0.5-0.8
		c0.2-0.2,0.5-0.4,0.8-0.5c0.3-0.1,0.7-0.2,1.2-0.2c0.5,0,0.9,0.1,1.3,0.2c0.4,0.1,0.6,0.4,0.9,0.6c0.2,0.3,0.4,0.6,0.5,1
		c0.1,0.4,0.2,0.8,0.2,1.3c0,0.1,0,0.2,0,0.3h-1.5v-0.3c0-0.2,0-0.4,0-0.5s0-0.3-0.1-0.5s-0.1-0.3-0.1-0.4c-0.1-0.1-0.1-0.2-0.2-0.3
		s-0.2-0.2-0.4-0.2c-0.1,0-0.3-0.1-0.5-0.1c-0.2,0-0.5,0-0.6,0.1c-0.2,0.1-0.3,0.2-0.4,0.3c-0.1,0.1-0.2,0.3-0.2,0.5
		c-0.1,0.2-0.1,0.4-0.1,0.6s0,0.4,0,0.7v3.8c0,0.3,0,0.5,0,0.7c0,0.2,0.1,0.4,0.1,0.6c0.1,0.2,0.1,0.4,0.2,0.5s0.2,0.2,0.4,0.3
		c0.2,0.1,0.4,0.1,0.6,0.1s0.4,0,0.6-0.1c0.2-0.1,0.3-0.2,0.4-0.3c0.1-0.1,0.2-0.3,0.2-0.5c0.1-0.2,0.1-0.4,0.1-0.6s0-0.4,0-0.7
		v-0.4h1.5v0.4c0,0.5,0,1-0.1,1.4c-0.1,0.4-0.3,0.8-0.5,1.1c-0.2,0.3-0.5,0.6-0.9,0.7C452,273.2,451.5,273.3,451,273.3z"/>
	<path fill="#3E354E" d="M460.1,273.3c-1,0-1.7-0.3-2.2-0.8c-0.5-0.6-0.8-1.3-0.8-2.3l1.5-0.4c0.1,1.5,0.6,2.3,1.5,2.3
		c0.8,0,1.1-0.4,1.1-1.1c0-0.2,0-0.4-0.1-0.6c-0.1-0.2-0.2-0.4-0.3-0.5s-0.2-0.3-0.3-0.4c-0.1-0.1-0.2-0.2-0.4-0.4l-1.9-1.5
		c-0.3-0.3-0.6-0.6-0.8-1c-0.2-0.4-0.3-0.9-0.3-1.4c0-0.8,0.2-1.4,0.7-1.9s1.1-0.7,1.9-0.7c0.9,0,1.5,0.2,2,0.6
		c0.5,0.4,0.8,1,0.9,1.8c0,0.1,0,0.2,0,0.3l-1.5,0.4c0-0.1,0-0.2,0-0.3c-0.1-0.5-0.2-0.9-0.5-1.2c-0.2-0.3-0.6-0.4-1-0.4
		c-0.4,0-0.6,0.1-0.8,0.3s-0.3,0.5-0.3,0.8c0,0.6,0.3,1.1,0.8,1.5l1.9,1.5c1,0.8,1.5,1.8,1.5,2.9c0,0.8-0.2,1.4-0.7,1.8
		S460.9,273.3,460.1,273.3z"/>
	<path fill="#3E354E" d="M465.9,273.3c-0.6,0-1-0.2-1.3-0.5s-0.4-0.8-0.4-1.4v-4.7h-0.8v-1.1h0.8V263h1.5v2.7h1.1v1.1h-1.1v4.4
		c0,0.3,0,0.5,0.1,0.7s0.3,0.2,0.5,0.2c0.1,0,0.3,0,0.5-0.1v1.2C466.4,273.3,466.1,273.3,465.9,273.3z"/>
	<path fill="#3E354E" d="M467.9,273.2v-7.6h1.5v1c0.2-0.3,0.4-0.6,0.7-0.8c0.3-0.2,0.6-0.3,1-0.3c0,0,0.1,0,0.2,0v1.7
		c-0.3-0.1-0.6-0.2-0.8-0.2c-0.3,0-0.6,0.1-0.8,0.3s-0.3,0.4-0.3,0.8v5.1H467.9z"/>
	<path fill="#3E354E" d="M474.1,273.3c-0.4,0-0.7-0.1-1-0.2c-0.3-0.1-0.5-0.3-0.6-0.5c-0.2-0.2-0.3-0.5-0.4-0.8
		c-0.1-0.3-0.2-0.6-0.2-1c0-0.3-0.1-0.7-0.1-1.1c0-0.3,0-0.7,0-1c0-0.4,0-0.7,0.1-1.1c0-0.3,0.1-0.6,0.2-0.9
		c0.1-0.3,0.2-0.5,0.4-0.7c0.2-0.2,0.4-0.3,0.6-0.4c0.3-0.1,0.6-0.2,0.9-0.2c0.3,0,0.6,0,0.9,0.1c0.2,0.1,0.5,0.2,0.6,0.4
		c0.2,0.2,0.3,0.4,0.4,0.6c0.1,0.2,0.2,0.5,0.2,0.8c0.1,0.3,0.1,0.6,0.1,0.9c0,0.3,0,0.6,0,1v0.2h-3v0.4c0,0.1,0,0.1,0,0.2
		c0,0.1,0,0.3,0,0.5c0,0.2,0,0.3,0,0.5s0,0.3,0.1,0.4c0,0.1,0.1,0.3,0.1,0.4c0.1,0.1,0.1,0.2,0.2,0.2c0.1,0.1,0.2,0.1,0.3,0.1
		c0.2,0,0.3,0,0.4-0.1c0.1-0.1,0.2-0.2,0.2-0.3c0-0.1,0.1-0.2,0.1-0.4c0-0.1,0-0.3,0-0.5v-0.3h1.5v0.3c0,0.8-0.2,1.4-0.6,1.8
		C475.4,273.1,474.8,273.3,474.1,273.3z M473.3,268.7h1.5v-0.5c0-0.2,0-0.4,0-0.5c0-0.1-0.1-0.3-0.1-0.4c0-0.1-0.1-0.3-0.2-0.3
		c-0.1-0.1-0.2-0.1-0.4-0.1c-0.2,0-0.3,0-0.4,0.1c-0.1,0.1-0.2,0.2-0.2,0.4c0,0.2-0.1,0.3-0.1,0.5s0,0.3,0,0.5V268.7z"/>
	<path fill="#3E354E" d="M479.6,273.3c-0.4,0-0.7-0.1-1-0.2c-0.3-0.1-0.5-0.3-0.6-0.5c-0.2-0.2-0.3-0.5-0.4-0.8
		c-0.1-0.3-0.2-0.6-0.2-1c0-0.3-0.1-0.7-0.1-1.1c0-0.3,0-0.7,0-1c0-0.4,0-0.7,0.1-1.1c0-0.3,0.1-0.6,0.2-0.9
		c0.1-0.3,0.2-0.5,0.4-0.7c0.2-0.2,0.4-0.3,0.6-0.4c0.3-0.1,0.6-0.2,0.9-0.2c0.3,0,0.6,0,0.9,0.1c0.2,0.1,0.5,0.2,0.6,0.4
		c0.2,0.2,0.3,0.4,0.4,0.6c0.1,0.2,0.2,0.5,0.2,0.8c0.1,0.3,0.1,0.6,0.1,0.9c0,0.3,0,0.6,0,1v0.2h-3v0.4c0,0.1,0,0.1,0,0.2
		c0,0.1,0,0.3,0,0.5c0,0.2,0,0.3,0,0.5s0,0.3,0.1,0.4c0,0.1,0.1,0.3,0.1,0.4c0.1,0.1,0.1,0.2,0.2,0.2c0.1,0.1,0.2,0.1,0.3,0.1
		c0.2,0,0.3,0,0.4-0.1c0.1-0.1,0.2-0.2,0.2-0.3c0-0.1,0.1-0.2,0.1-0.4c0-0.1,0-0.3,0-0.5v-0.3h1.5v0.3c0,0.8-0.2,1.4-0.6,1.8
		C480.9,273.1,480.4,273.3,479.6,273.3z M478.9,268.7h1.5v-0.5c0-0.2,0-0.4,0-0.5c0-0.1-0.1-0.3-0.1-0.4c0-0.1-0.1-0.3-0.2-0.3
		c-0.1-0.1-0.2-0.1-0.4-0.1c-0.2,0-0.3,0-0.4,0.1c-0.1,0.1-0.2,0.2-0.2,0.4c0,0.2-0.1,0.3-0.1,0.5s0,0.3,0,0.5V268.7z"/>
	<path fill="#3E354E" d="M485.1,273.3c-0.6,0-1-0.2-1.3-0.5s-0.4-0.8-0.4-1.4v-4.7h-0.8v-1.1h0.8V263h1.5v2.7h1.1v1.1h-1.1v4.4
		c0,0.3,0,0.5,0.1,0.7s0.3,0.2,0.5,0.2c0.1,0,0.3,0,0.5-0.1v1.2C485.6,273.3,485.3,273.3,485.1,273.3z"/>
</g>
<rect x="405.6" y="328.6" fill="none" width="133.3" height="33.3"/>
<g enable-background="new    ">
	<path fill="#3E354E" d="M414.4,355.4c-2.4,0-4.2-0.7-5.5-2.1s-2-3.3-2.1-5.7l3.8-0.9c0.2,3.8,1.5,5.7,3.8,5.7
		c1.9,0,2.8-0.9,2.8-2.8c0-0.6-0.1-1.1-0.2-1.6s-0.4-0.9-0.7-1.3c-0.3-0.4-0.6-0.7-0.9-1c-0.3-0.2-0.6-0.5-1.1-0.9l-4.7-3.8
		c-0.9-0.7-1.6-1.5-2.1-2.6c-0.5-1.1-0.8-2.2-0.8-3.6c0-2,0.6-3.5,1.8-4.7c1.2-1.2,2.8-1.7,4.8-1.7c2.1,0,3.9,0.5,5.1,1.6
		c1.3,1.1,2,2.5,2.3,4.5c0,0.2,0.1,0.5,0.1,0.9l-3.8,0.9c0-0.2,0-0.4-0.1-0.8c-0.2-1.2-0.5-2.2-1.1-2.9c-0.6-0.7-1.4-1.1-2.6-1.1
		c-0.9,0-1.6,0.3-2.1,0.8c-0.5,0.5-0.7,1.2-0.7,2.1c0,1.5,0.6,2.7,1.9,3.7l4.7,3.8c2.5,2,3.8,4.5,3.8,7.3c0,1.9-0.6,3.5-1.8,4.6
		S416.4,355.4,414.4,355.4z"/>
	<path fill="#3E354E" d="M423.8,355.1v-26.5h6.6c4.4,0,6.6,2.5,6.6,7.6c0,2.2-0.6,3.8-1.7,4.9c-1.1,1.1-2.8,1.7-4.9,1.7h-2.8v12.3
		H423.8z M427.6,339.9h0.9c0.9,0,1.6,0,2.1-0.1c0.5-0.1,1-0.3,1.5-0.6c0.4-0.3,0.7-0.7,0.9-1.2c0.2-0.5,0.3-1.1,0.3-1.9
		c0-0.9-0.1-1.7-0.2-2.3c-0.1-0.6-0.4-1.1-0.8-1.4c-0.4-0.4-0.8-0.6-1.4-0.8c-0.6-0.1-1.4-0.2-2.3-0.2h-0.9V339.9z"/>
	<path fill="#3E354E" d="M452.2,355.4c-1.1,0-2.1-0.2-2.9-0.5c-0.8-0.3-1.5-0.8-2.1-1.3c-0.5-0.6-1-1.3-1.3-2.1s-0.6-1.7-0.7-2.7
		c-0.1-0.9-0.2-2-0.2-3.2V338c0-1.2,0.1-2.3,0.2-3.2c0.1-0.9,0.4-1.8,0.7-2.7s0.8-1.5,1.3-2.1c0.5-0.6,1.2-1,2.1-1.3
		c0.8-0.3,1.8-0.5,2.9-0.5c1.2,0,2.3,0.2,3.2,0.5c0.9,0.4,1.6,0.9,2.2,1.6c0.5,0.7,0.9,1.5,1.2,2.5c0.3,0.9,0.4,2,0.5,3.3
		c0,0.2,0,0.5,0,0.9h-3.8v-0.8c0-0.5,0-1-0.1-1.3c0-0.4-0.1-0.8-0.2-1.1s-0.2-0.7-0.3-1c-0.2-0.3-0.3-0.5-0.6-0.7
		c-0.2-0.2-0.5-0.4-0.9-0.5c-0.4-0.1-0.8-0.2-1.2-0.2c-0.6,0-1.1,0.1-1.6,0.3s-0.8,0.5-1,0.8c-0.2,0.3-0.4,0.7-0.6,1.2
		c-0.1,0.5-0.2,1-0.3,1.5c0,0.5-0.1,1.1-0.1,1.8v9.5c0,0.6,0,1.2,0.1,1.7c0.1,0.5,0.2,1,0.3,1.5c0.2,0.5,0.4,0.9,0.6,1.3
		c0.3,0.3,0.6,0.6,1,0.8c0.4,0.2,0.9,0.3,1.5,0.3c0.6,0,1-0.1,1.5-0.3c0.4-0.2,0.7-0.5,1-0.8s0.4-0.8,0.5-1.3c0.1-0.5,0.2-1,0.3-1.5
		c0-0.5,0.1-1.1,0.1-1.7v-0.9h3.8v0.9c0,1.4-0.1,2.6-0.4,3.6c-0.2,1-0.6,2-1.2,2.7c-0.5,0.8-1.3,1.4-2.2,1.8
		S453.5,355.4,452.2,355.4z"/>
	<path fill="#3E354E" d="M461.7,355.1v-26.5h10.4v2.8h-6.6v8.5h4.7v2.8h-4.7v9.5h6.6v2.8H461.7z"/>
</g>
<rect x="99.1" y="313.1" fill="#3E354E" width="114.1" height="82.8"/>
<rect x="136.4" y="383.8" fill="#FFFFFF" width="36.6" height="24.2"/>
<rect x="123.3" y="298.3" fill="#3E354E" width="64" height="24.2"/>
<rect x="106.1" y="347.8" fill="none" width="133.3" height="33.3"/>
<g enable-background="new    ">
	<path fill="#FFFFFF" d="M106.8,356.6v-8.8h3.5v0.9h-2.2v2.8h1.6v0.9h-1.6v3.2h2.2v0.9H106.8z"/>
	<path fill="#FFFFFF" d="M111.9,356.6l-1.4-6.3h1.2l0.9,4.7l0.8-4.7h1.2l-1.4,6.3H111.9z"/>
	<path fill="#FFFFFF" d="M117,356.7c-0.3,0-0.6-0.1-0.8-0.2c-0.2-0.1-0.4-0.2-0.5-0.4c-0.1-0.2-0.2-0.4-0.3-0.7s-0.1-0.5-0.2-0.8
		s-0.1-0.6-0.1-0.9c0-0.3,0-0.6,0-0.8c0-0.3,0-0.6,0.1-0.9c0-0.3,0.1-0.5,0.2-0.7c0.1-0.2,0.2-0.4,0.3-0.6c0.1-0.2,0.3-0.3,0.5-0.4
		s0.5-0.1,0.8-0.1c0.3,0,0.5,0,0.7,0.1c0.2,0.1,0.4,0.2,0.5,0.3c0.1,0.1,0.2,0.3,0.3,0.5s0.2,0.4,0.2,0.6c0,0.2,0.1,0.5,0.1,0.7
		c0,0.2,0,0.5,0,0.8v0.1h-2.5v0.3c0,0,0,0.1,0,0.2c0,0.1,0,0.2,0,0.4s0,0.3,0,0.4c0,0.1,0,0.2,0.1,0.4c0,0.1,0.1,0.2,0.1,0.3
		c0,0.1,0.1,0.2,0.2,0.2c0.1,0,0.2,0.1,0.3,0.1c0.1,0,0.2,0,0.3-0.1c0.1-0.1,0.1-0.1,0.2-0.2s0.1-0.2,0.1-0.3c0-0.1,0-0.2,0-0.4
		v-0.3h1.3v0.3c0,0.7-0.2,1.2-0.5,1.5C118.1,356.5,117.6,356.7,117,356.7z M116.4,352.8h1.3v-0.4c0-0.2,0-0.3,0-0.4
		c0-0.1,0-0.2-0.1-0.4s-0.1-0.2-0.2-0.3c-0.1-0.1-0.2-0.1-0.3-0.1c-0.1,0-0.2,0-0.3,0.1c-0.1,0.1-0.2,0.2-0.2,0.3s-0.1,0.3-0.1,0.4
		c0,0.1,0,0.3,0,0.4V352.8z"/>
	<path fill="#FFFFFF" d="M119.8,356.6v-6.3h1.3v0.8c0.1-0.2,0.3-0.5,0.6-0.7c0.2-0.2,0.5-0.3,0.8-0.3c0,0,0.1,0,0.2,0v1.4
		c-0.2-0.1-0.5-0.1-0.7-0.1c-0.3,0-0.5,0.1-0.6,0.2s-0.2,0.4-0.2,0.6v4.3H119.8z"/>
	<path fill="#FFFFFF" d="M125,356.7c-0.3,0-0.6-0.1-0.8-0.2c-0.2-0.1-0.4-0.2-0.5-0.4c-0.1-0.2-0.2-0.4-0.3-0.7s-0.1-0.5-0.2-0.8
		s-0.1-0.6-0.1-0.9c0-0.3,0-0.6,0-0.8c0-0.3,0-0.6,0.1-0.9c0-0.3,0.1-0.5,0.2-0.7c0.1-0.2,0.2-0.4,0.3-0.6c0.1-0.2,0.3-0.3,0.5-0.4
		s0.5-0.1,0.8-0.1c0.3,0,0.5,0,0.7,0.1c0.2,0.1,0.4,0.2,0.5,0.3c0.1,0.1,0.2,0.3,0.3,0.5s0.2,0.4,0.2,0.6c0,0.2,0.1,0.5,0.1,0.7
		c0,0.2,0,0.5,0,0.8v0.1h-2.5v0.3c0,0,0,0.1,0,0.2c0,0.1,0,0.2,0,0.4s0,0.3,0,0.4c0,0.1,0,0.2,0.1,0.4c0,0.1,0.1,0.2,0.1,0.3
		c0,0.1,0.1,0.2,0.2,0.2c0.1,0,0.2,0.1,0.3,0.1c0.1,0,0.2,0,0.3-0.1c0.1-0.1,0.1-0.1,0.2-0.2s0.1-0.2,0.1-0.3c0-0.1,0-0.2,0-0.4
		v-0.3h1.3v0.3c0,0.7-0.2,1.2-0.5,1.5C126.1,356.5,125.6,356.7,125,356.7z M124.4,352.8h1.3v-0.4c0-0.2,0-0.3,0-0.4
		c0-0.1,0-0.2-0.1-0.4s-0.1-0.2-0.2-0.3c-0.1-0.1-0.2-0.1-0.3-0.1c-0.1,0-0.2,0-0.3,0.1c-0.1,0.1-0.2,0.2-0.2,0.3s-0.1,0.3-0.1,0.4
		c0,0.1,0,0.3,0,0.4V352.8z"/>
	<path fill="#FFFFFF" d="M129.5,356.7c-0.5,0-0.9-0.1-1.1-0.4c-0.2-0.3-0.3-0.6-0.3-1.1v-3.9h-0.6v-0.9h0.6v-2.2h1.3v2.2h0.9v0.9
		h-0.9v3.7c0,0.3,0,0.4,0.1,0.6c0.1,0.1,0.2,0.2,0.4,0.2c0.1,0,0.2,0,0.4,0v1C130,356.7,129.7,356.7,129.5,356.7z"/>
	<path fill="#FFFFFF" d="M133,356.7c-0.5,0-0.9-0.1-1.1-0.4c-0.2-0.3-0.3-0.6-0.3-1.1v-3.9h-0.6v-0.9h0.6v-2.2h1.3v2.2h0.9v0.9h-0.9
		v3.7c0,0.3,0,0.4,0.1,0.6c0.1,0.1,0.2,0.2,0.4,0.2c0.1,0,0.2,0,0.4,0v1C133.5,356.7,133.2,356.7,133,356.7z"/>
	<path fill="#FFFFFF" d="M136.8,356.6v-8.8h3.5v0.9h-2.2v2.8h1.6v0.9h-1.6v3.2h2.2v0.9H136.8z"/>
	<path fill="#FFFFFF" d="M141,356.6v-8.8h1.3v8.8H141z"/>
	<path fill="#FFFFFF" d="M145.2,356.7c-0.3,0-0.6-0.1-0.8-0.2c-0.2-0.1-0.4-0.2-0.5-0.4c-0.1-0.2-0.2-0.4-0.3-0.7s-0.1-0.5-0.2-0.8
		s-0.1-0.6-0.1-0.9c0-0.3,0-0.6,0-0.8c0-0.3,0-0.6,0.1-0.9c0-0.3,0.1-0.5,0.2-0.7c0.1-0.2,0.2-0.4,0.3-0.6c0.1-0.2,0.3-0.3,0.5-0.4
		s0.5-0.1,0.8-0.1c0.3,0,0.5,0,0.7,0.1c0.2,0.1,0.4,0.2,0.5,0.3c0.1,0.1,0.2,0.3,0.3,0.5s0.2,0.4,0.2,0.6c0,0.2,0.1,0.5,0.1,0.7
		c0,0.2,0,0.5,0,0.8v0.1h-2.5v0.3c0,0,0,0.1,0,0.2c0,0.1,0,0.2,0,0.4s0,0.3,0,0.4c0,0.1,0,0.2,0.1,0.4c0,0.1,0.1,0.2,0.1,0.3
		c0,0.1,0.1,0.2,0.2,0.2c0.1,0,0.2,0.1,0.3,0.1c0.1,0,0.2,0,0.3-0.1c0.1-0.1,0.1-0.1,0.2-0.2s0.1-0.2,0.1-0.3c0-0.1,0-0.2,0-0.4
		v-0.3h1.3v0.3c0,0.7-0.2,1.2-0.5,1.5C146.3,356.5,145.8,356.7,145.2,356.7z M144.5,352.8h1.3v-0.4c0-0.2,0-0.3,0-0.4
		c0-0.1,0-0.2-0.1-0.4s-0.1-0.2-0.2-0.3c-0.1-0.1-0.2-0.1-0.3-0.1c-0.1,0-0.2,0-0.3,0.1c-0.1,0.1-0.2,0.2-0.2,0.3s-0.1,0.3-0.1,0.4
		c0,0.1,0,0.3,0,0.4V352.8z"/>
	<path fill="#FFFFFF" d="M148,356.6v-6.3h1.3v0.7c0.5-0.5,1-0.8,1.6-0.8c0.3,0,0.5,0.1,0.7,0.2c0.1,0.1,0.2,0.3,0.3,0.6
		c0.2-0.3,0.4-0.5,0.7-0.6c0.2-0.1,0.5-0.2,0.9-0.2c0.1,0,0.2,0,0.3,0s0.2,0,0.2,0.1c0.1,0,0.1,0.1,0.2,0.1c0,0.1,0.1,0.1,0.1,0.2
		c0,0.1,0.1,0.1,0.1,0.2c0,0.1,0,0.2,0,0.2c0,0.1,0,0.2,0,0.3c0,0.1,0,0.2,0,0.3c0,0.1,0,0.2,0,0.3c0,0,0,0.1,0,0.1v4.6H153V352
		c0,0,0,0,0-0.1c0-0.1,0-0.2,0-0.3c0-0.1,0-0.1,0-0.2s0-0.1-0.1-0.2c0,0-0.1-0.1-0.2-0.1c-0.1,0-0.3,0-0.4,0.1
		c-0.1,0.1-0.2,0.1-0.3,0.1c-0.1,0-0.2,0.1-0.3,0.2v4.9h-1.3V352c0,0,0,0,0-0.1c0-0.1,0-0.2,0-0.2s0-0.1,0-0.2c0-0.1,0-0.1,0-0.2
		s-0.1-0.1-0.1-0.1c0,0-0.1,0-0.2,0c-0.3,0-0.6,0.1-0.9,0.4v5H148z"/>
	<path fill="#FFFFFF" d="M157.2,356.7c-0.3,0-0.6-0.1-0.8-0.2c-0.2-0.1-0.4-0.2-0.5-0.4c-0.1-0.2-0.2-0.4-0.3-0.7s-0.1-0.5-0.2-0.8
		s-0.1-0.6-0.1-0.9c0-0.3,0-0.6,0-0.8c0-0.3,0-0.6,0.1-0.9c0-0.3,0.1-0.5,0.2-0.7c0.1-0.2,0.2-0.4,0.3-0.6c0.1-0.2,0.3-0.3,0.5-0.4
		s0.5-0.1,0.8-0.1c0.3,0,0.5,0,0.7,0.1c0.2,0.1,0.4,0.2,0.5,0.3c0.1,0.1,0.2,0.3,0.3,0.5s0.2,0.4,0.2,0.6c0,0.2,0.1,0.5,0.1,0.7
		c0,0.2,0,0.5,0,0.8v0.1h-2.5v0.3c0,0,0,0.1,0,0.2c0,0.1,0,0.2,0,0.4s0,0.3,0,0.4c0,0.1,0,0.2,0.1,0.4c0,0.1,0.1,0.2,0.1,0.3
		c0,0.1,0.1,0.2,0.2,0.2c0.1,0,0.2,0.1,0.3,0.1c0.1,0,0.2,0,0.3-0.1c0.1-0.1,0.1-0.1,0.2-0.2s0.1-0.2,0.1-0.3c0-0.1,0-0.2,0-0.4
		v-0.3h1.3v0.3c0,0.7-0.2,1.2-0.5,1.5C158.3,356.5,157.8,356.7,157.2,356.7z M156.6,352.8h1.3v-0.4c0-0.2,0-0.3,0-0.4
		c0-0.1,0-0.2-0.1-0.4s-0.1-0.2-0.2-0.3c-0.1-0.1-0.2-0.1-0.3-0.1c-0.1,0-0.2,0-0.3,0.1c-0.1,0.1-0.2,0.2-0.2,0.3s-0.1,0.3-0.1,0.4
		c0,0.1,0,0.3,0,0.4V352.8z"/>
	<path fill="#FFFFFF" d="M160,356.6v-6.3h1.3v0.7c0.2-0.2,0.3-0.3,0.5-0.4c0.1-0.1,0.3-0.2,0.5-0.3c0.2-0.1,0.4-0.1,0.7-0.1
		c0.3,0,0.5,0.1,0.7,0.3c0.2,0.2,0.3,0.4,0.3,0.7v5.4h-1.3v-4.7c0-0.2,0-0.4-0.1-0.5c-0.1-0.1-0.2-0.2-0.4-0.2c-0.1,0-0.2,0-0.3,0.1
		s-0.2,0.1-0.2,0.1c-0.1,0-0.1,0.1-0.2,0.2v5H160z"/>
	<path fill="#FFFFFF" d="M166.6,356.7c-0.5,0-0.9-0.1-1.1-0.4c-0.2-0.3-0.3-0.6-0.3-1.1v-3.9h-0.6v-0.9h0.6v-2.2h1.3v2.2h0.9v0.9
		h-0.9v3.7c0,0.3,0,0.4,0.1,0.6c0.1,0.1,0.2,0.2,0.4,0.2c0.1,0,0.2,0,0.4,0v1C167.1,356.7,166.8,356.7,166.6,356.7z"/>
	<path fill="#FFFFFF" d="M169.4,356.7c-0.4,0-0.7-0.2-0.9-0.5c-0.2-0.3-0.4-0.6-0.4-1c0-0.3,0.1-0.6,0.2-0.8
		c0.1-0.2,0.2-0.4,0.3-0.6c0.1-0.1,0.3-0.3,0.6-0.5c0.3-0.2,0.5-0.3,0.6-0.3c0.1-0.1,0.4-0.2,0.7-0.3c0.1,0,0.1,0,0.1-0.1v-0.5
		c0-0.3,0-0.6-0.1-0.7c-0.1-0.2-0.3-0.3-0.5-0.3c-0.2,0-0.4,0.1-0.5,0.2c-0.1,0.1-0.1,0.4-0.2,0.6c0,0,0,0.1,0,0.2h-1.3
		c0-0.6,0.2-1.1,0.5-1.4c0.3-0.4,0.8-0.5,1.4-0.5c0.6,0,1.1,0.2,1.4,0.5c0.3,0.4,0.5,0.8,0.5,1.4v2.8c0,0.7,0.1,1.2,0.2,1.6h-1.3
		l-0.2-0.9c-0.1,0.1-0.1,0.2-0.2,0.3s-0.1,0.2-0.2,0.3c-0.1,0.1-0.2,0.2-0.2,0.2c-0.1,0.1-0.2,0.1-0.3,0.2
		C169.7,356.7,169.6,356.7,169.4,356.7z M170.1,355.7c0.1,0,0.2,0,0.3-0.1c0.1-0.1,0.1-0.1,0.2-0.2c0,0,0.1-0.1,0.2-0.2c0,0,0,0,0,0
		v-1.7c-0.1,0-0.1,0.1-0.3,0.2s-0.2,0.1-0.3,0.2c-0.1,0-0.2,0.1-0.3,0.2c-0.1,0.1-0.2,0.2-0.2,0.2c-0.1,0.1-0.1,0.2-0.1,0.3
		c0,0.1-0.1,0.2-0.1,0.4C169.4,355.4,169.7,355.7,170.1,355.7z"/>
	<path fill="#FFFFFF" d="M173.1,356.6v-6.3h1.3v0.8c0.1-0.2,0.3-0.5,0.6-0.7c0.2-0.2,0.5-0.3,0.8-0.3c0,0,0.1,0,0.2,0v1.4
		c-0.2-0.1-0.5-0.1-0.7-0.1c-0.3,0-0.5,0.1-0.6,0.2s-0.2,0.4-0.2,0.6v4.3H173.1z"/>
	<path fill="#FFFFFF" d="M176.3,358.2v-0.9c0.2,0,0.4,0,0.6,0c0.1,0,0.3-0.1,0.3-0.2s0.1-0.2,0.1-0.3c0-0.1,0-0.2,0-0.4l-1.4-6h1.3
		c0.5,2.7,0.8,4.2,0.8,4.4c0.1-0.4,0.1-0.9,0.2-1.4c0.1-0.5,0.2-1,0.3-1.6c0.1-0.6,0.2-1.1,0.3-1.4h1.3l-1.6,6.6
		c-0.1,0.5-0.3,0.8-0.7,1c-0.3,0.2-0.8,0.3-1.4,0.3H176.3z"/>
	<path fill="#FFFFFF" d="M185.2,356.7c-0.8,0-1.4-0.2-1.8-0.7c-0.4-0.5-0.7-1.1-0.7-1.9l1.3-0.3c0.1,1.3,0.5,1.9,1.3,1.9
		c0.6,0,0.9-0.3,0.9-0.9c0-0.2,0-0.4-0.1-0.5c-0.1-0.2-0.1-0.3-0.2-0.4c-0.1-0.1-0.2-0.2-0.3-0.3s-0.2-0.2-0.4-0.3l-1.6-1.3
		c-0.3-0.2-0.5-0.5-0.7-0.9c-0.2-0.4-0.3-0.7-0.3-1.2c0-0.7,0.2-1.2,0.6-1.6c0.4-0.4,0.9-0.6,1.6-0.6c0.7,0,1.3,0.2,1.7,0.5
		s0.7,0.8,0.8,1.5c0,0.1,0,0.2,0,0.3l-1.3,0.3c0-0.1,0-0.1,0-0.3c-0.1-0.4-0.2-0.7-0.4-1c-0.2-0.2-0.5-0.4-0.9-0.4
		c-0.3,0-0.5,0.1-0.7,0.3c-0.2,0.2-0.2,0.4-0.2,0.7c0,0.5,0.2,0.9,0.6,1.2l1.6,1.3c0.8,0.7,1.3,1.5,1.3,2.4c0,0.6-0.2,1.2-0.6,1.5
		C186.4,356.5,185.9,356.7,185.2,356.7z"/>
	<path fill="#FFFFFF" d="M189.8,356.7c-0.3,0-0.6-0.1-0.8-0.2c-0.2-0.1-0.4-0.2-0.5-0.4c-0.1-0.2-0.2-0.4-0.3-0.6s-0.1-0.5-0.2-0.8
		s0-0.6-0.1-0.9c0-0.3,0-0.5,0-0.8c0-0.3,0-0.6,0.1-0.9c0-0.3,0.1-0.5,0.2-0.8s0.2-0.5,0.3-0.6c0.1-0.2,0.3-0.3,0.5-0.4
		c0.2-0.1,0.5-0.2,0.8-0.2c0.7,0,1.1,0.2,1.4,0.5c0.3,0.4,0.4,0.9,0.5,1.6v0.2h-1.3v-0.2c0-0.2,0-0.3,0-0.4c0-0.1,0-0.2-0.1-0.4
		c0-0.1-0.1-0.2-0.2-0.3c-0.1-0.1-0.2-0.1-0.3-0.1s-0.2,0-0.3,0.1c-0.1,0.1-0.2,0.2-0.2,0.3s-0.1,0.3-0.1,0.4c0,0.1,0,0.3,0,0.5
		c0,0.4,0,1,0,1.8c0,0.2,0,0.3,0,0.5c0,0.1,0.1,0.3,0.1,0.4s0.1,0.2,0.2,0.3s0.2,0.1,0.3,0.1c0.1,0,0.2,0,0.3-0.1
		c0.1,0,0.1-0.1,0.2-0.2c0-0.1,0.1-0.1,0.1-0.3c0-0.1,0-0.2,0-0.3c0-0.1,0-0.2,0-0.3v-0.2h1.3v0.2c0,0.3-0.1,0.6-0.1,0.9
		c-0.1,0.3-0.2,0.5-0.3,0.7c-0.1,0.2-0.3,0.3-0.6,0.4C190.5,356.6,190.2,356.7,189.8,356.7z"/>
	<path fill="#FFFFFF" d="M192.5,356.6v-8.8h1.3v3.2c0.2-0.2,0.3-0.3,0.5-0.4c0.1-0.1,0.3-0.2,0.5-0.3c0.2-0.1,0.4-0.1,0.7-0.1
		c0.3,0,0.5,0.1,0.7,0.3c0.2,0.2,0.3,0.4,0.3,0.7v5.4H195v-4.7c0-0.2,0-0.4-0.1-0.5c-0.1-0.1-0.2-0.2-0.4-0.2
		c-0.3,0-0.5,0.1-0.8,0.4v5H192.5z"/>
	<path fill="#FFFFFF" d="M200.6,356.1c-0.3,0.4-0.8,0.6-1.5,0.6s-1.2-0.2-1.5-0.6s-0.4-1-0.4-1.7v-1.9c0-0.7,0.1-1.3,0.4-1.7
		s0.8-0.6,1.5-0.6s1.2,0.2,1.5,0.6c0.3,0.4,0.4,1,0.4,1.7v1.9C201.1,355.1,200.9,355.7,200.6,356.1z M198.9,355.6c0.1,0,0.1,0,0.2,0
		s0.2,0,0.2,0s0.1-0.1,0.2-0.1c0,0,0.1-0.1,0.1-0.2c0-0.1,0.1-0.1,0.1-0.2c0-0.1,0-0.1,0-0.2c0-0.1,0-0.2,0-0.2c0-0.1,0-0.2,0-0.3
		v-1.9c0-0.1,0-0.2,0-0.3c0-0.1,0-0.1,0-0.2c0-0.1,0-0.2,0-0.2c0-0.1,0-0.1-0.1-0.2c0-0.1-0.1-0.1-0.1-0.2s-0.1-0.1-0.2-0.1
		s-0.1,0-0.2,0s-0.2,0-0.2,0c-0.1,0-0.1,0.1-0.2,0.1s-0.1,0.1-0.1,0.2c0,0.1-0.1,0.1-0.1,0.2c0,0.1,0,0.1,0,0.2c0,0.1,0,0.2,0,0.2
		c0,0.1,0,0.2,0,0.3v1.9c0,0.1,0,0.2,0,0.3c0,0.1,0,0.1,0,0.2c0,0.1,0,0.2,0,0.2c0,0.1,0,0.1,0.1,0.2c0,0.1,0.1,0.1,0.1,0.2
		C198.8,355.6,198.9,355.6,198.9,355.6z"/>
	<path fill="#FFFFFF" d="M205.3,356.1c-0.3,0.4-0.8,0.6-1.5,0.6s-1.2-0.2-1.5-0.6s-0.4-1-0.4-1.7v-1.9c0-0.7,0.1-1.3,0.4-1.7
		s0.8-0.6,1.5-0.6s1.2,0.2,1.5,0.6c0.3,0.4,0.4,1,0.4,1.7v1.9C205.8,355.1,205.6,355.7,205.3,356.1z M203.6,355.6c0.1,0,0.1,0,0.2,0
		s0.2,0,0.2,0s0.1-0.1,0.2-0.1c0,0,0.1-0.1,0.1-0.2c0-0.1,0.1-0.1,0.1-0.2c0-0.1,0-0.1,0-0.2c0-0.1,0-0.2,0-0.2c0-0.1,0-0.2,0-0.3
		v-1.9c0-0.1,0-0.2,0-0.3c0-0.1,0-0.1,0-0.2c0-0.1,0-0.2,0-0.2c0-0.1,0-0.1-0.1-0.2c0-0.1-0.1-0.1-0.1-0.2s-0.1-0.1-0.2-0.1
		s-0.1,0-0.2,0s-0.2,0-0.2,0c-0.1,0-0.1,0.1-0.2,0.1s-0.1,0.1-0.1,0.2c0,0.1-0.1,0.1-0.1,0.2c0,0.1,0,0.1,0,0.2c0,0.1,0,0.2,0,0.2
		c0,0.1,0,0.2,0,0.3v1.9c0,0.1,0,0.2,0,0.3c0,0.1,0,0.1,0,0.2c0,0.1,0,0.2,0,0.2c0,0.1,0,0.1,0.1,0.2c0,0.1,0.1,0.1,0.1,0.2
		C203.5,355.6,203.6,355.6,203.6,355.6z"/>
	<path fill="#FFFFFF" d="M206.8,356.6v-8.8h1.3v8.8H206.8z"/>
</g>
<rect x="405.3" y="359.6" fill="none" width="133.3" height="33.3"/>
<g enable-background="new    ">
	<path fill="#3E354E" d="M409.9,373.8c-0.6,0-1.1-0.1-1.6-0.3c-0.5-0.2-0.8-0.4-1.1-0.7c-0.3-0.3-0.5-0.7-0.7-1.1
		c-0.2-0.4-0.3-0.9-0.4-1.4c-0.1-0.5-0.1-1.1-0.1-1.7v-4c0-0.6,0-1.2,0.1-1.7c0.1-0.5,0.2-1,0.4-1.4c0.2-0.4,0.4-0.8,0.7-1.1
		c0.3-0.3,0.7-0.5,1.1-0.7c0.5-0.2,1-0.3,1.6-0.3c0.7,0,1.2,0.1,1.7,0.3c0.5,0.2,0.9,0.5,1.1,0.9c0.3,0.4,0.5,0.8,0.6,1.3
		s0.2,1.1,0.3,1.8c0,0.1,0,0.3,0,0.5h-2v-0.4c0-0.3,0-0.5,0-0.7s0-0.4-0.1-0.6s-0.1-0.4-0.2-0.5c-0.1-0.1-0.2-0.3-0.3-0.4
		c-0.1-0.1-0.3-0.2-0.5-0.3s-0.4-0.1-0.7-0.1c-0.3,0-0.6,0.1-0.8,0.2c-0.2,0.1-0.4,0.2-0.5,0.4c-0.1,0.2-0.2,0.4-0.3,0.7
		c-0.1,0.3-0.1,0.6-0.1,0.8c0,0.3,0,0.6,0,1v5c0,0.3,0,0.6,0,0.9c0,0.3,0.1,0.5,0.2,0.8c0.1,0.3,0.2,0.5,0.3,0.7
		c0.1,0.2,0.3,0.3,0.5,0.4c0.2,0.1,0.5,0.2,0.8,0.2s0.6-0.1,0.8-0.2s0.4-0.3,0.5-0.4c0.1-0.2,0.2-0.4,0.3-0.7
		c0.1-0.3,0.1-0.5,0.1-0.8c0-0.3,0-0.6,0-0.9v-0.5h2v0.5c0,0.7-0.1,1.4-0.2,1.9s-0.3,1-0.6,1.5c-0.3,0.4-0.7,0.7-1.2,1
		C411.2,373.7,410.6,373.8,409.9,373.8z"/>
	<path fill="#3E354E" d="M418.7,373.8c-0.7,0-1.3-0.1-1.8-0.3c-0.5-0.2-0.9-0.5-1.2-0.9c-0.3-0.4-0.5-0.9-0.7-1.5s-0.2-1.2-0.2-2
		V364c0-0.7,0.1-1.4,0.2-1.9s0.4-1,0.7-1.4s0.7-0.7,1.2-0.9c0.5-0.2,1.1-0.3,1.8-0.3c1.4,0,2.4,0.4,3,1.2c0.6,0.8,0.9,1.9,0.9,3.4
		v5.1c0,0.7-0.1,1.4-0.2,1.9c-0.1,0.6-0.4,1-0.7,1.5c-0.3,0.4-0.7,0.7-1.2,1S419.4,373.8,418.7,373.8z M417.2,371.5
		c0.3,0.4,0.8,0.6,1.5,0.6s1.2-0.2,1.5-0.6c0.3-0.4,0.4-1.1,0.4-1.9v-6.1c0-0.8-0.1-1.4-0.4-1.8c-0.3-0.4-0.8-0.6-1.5-0.6
		c-0.7,0-1.2,0.2-1.5,0.6c-0.3,0.4-0.4,1-0.4,1.8v6.1C416.8,370.5,416.9,371.1,417.2,371.5z"/>
	<path fill="#3E354E" d="M424.3,373.7v-14.1h2.8l2,10.8l2-10.8h2.8v14.1h-2v-11.2l-2,11.2h-1.5l-2-11.2v11.2H424.3z"/>
	<path fill="#3E354E" d="M435.9,373.7v-14.1h2.8l2,10.8l2-10.8h2.8v14.1h-2v-11.2l-2,11.2H440l-2-11.2v11.2H435.9z"/>
	<path fill="#3E354E" d="M451.2,373.8c-0.7,0-1.3-0.1-1.8-0.3c-0.5-0.2-0.9-0.5-1.2-0.9c-0.3-0.4-0.5-0.9-0.7-1.5s-0.2-1.2-0.2-2
		V364c0-0.7,0.1-1.4,0.2-1.9s0.4-1,0.7-1.4s0.7-0.7,1.2-0.9c0.5-0.2,1.1-0.3,1.8-0.3c1.4,0,2.4,0.4,3,1.2c0.6,0.8,0.9,1.9,0.9,3.4
		v5.1c0,0.7-0.1,1.4-0.2,1.9c-0.1,0.6-0.4,1-0.7,1.5c-0.3,0.4-0.7,0.7-1.2,1S451.9,373.8,451.2,373.8z M449.7,371.5
		c0.3,0.4,0.8,0.6,1.5,0.6s1.2-0.2,1.5-0.6c0.3-0.4,0.4-1.1,0.4-1.9v-6.1c0-0.8-0.1-1.4-0.4-1.8c-0.3-0.4-0.8-0.6-1.5-0.6
		c-0.7,0-1.2,0.2-1.5,0.6c-0.3,0.4-0.4,1-0.4,1.8v6.1C449.3,370.5,449.5,371.1,449.7,371.5z"/>
	<path fill="#3E354E" d="M456.9,373.7v-14.1h1.5l3.5,8.7v-8.7h2v14.1h-1.4l-3.6-9.4v9.4H456.9z"/>
	<path fill="#3E354E" d="M469.6,373.8c-1.3,0-2.2-0.4-2.9-1.1c-0.7-0.7-1-1.8-1.1-3.1l2-0.5c0.1,2,0.8,3,2,3c1,0,1.5-0.5,1.5-1.5
		c0-0.3,0-0.6-0.1-0.8c-0.1-0.3-0.2-0.5-0.4-0.7c-0.2-0.2-0.3-0.4-0.5-0.5s-0.3-0.3-0.6-0.5l-2.5-2c-0.5-0.4-0.8-0.8-1.1-1.4
		c-0.3-0.6-0.4-1.2-0.4-1.9c0-1,0.3-1.9,1-2.5c0.6-0.6,1.5-0.9,2.6-0.9c1.1,0,2.1,0.3,2.7,0.8c0.7,0.6,1.1,1.4,1.2,2.4
		c0,0.1,0,0.3,0.1,0.5l-2,0.5c0-0.1,0-0.2,0-0.4c-0.1-0.6-0.3-1.2-0.6-1.5c-0.3-0.4-0.8-0.6-1.4-0.6c-0.5,0-0.9,0.1-1.1,0.4
		c-0.3,0.3-0.4,0.6-0.4,1.1c0,0.8,0.3,1.5,1,2l2.5,2c1.3,1.1,2,2.4,2,3.9c0,1-0.3,1.8-1,2.4C471.6,373.5,470.7,373.8,469.6,373.8z"
		/>
</g>
<rect x="539.3" y="276.2" fill="#FFFFFF" stroke="#84D2E4" stroke-miterlimit="10" width="66.7" height="138.4"/>
<rect x="9.1" y="276.2" fill="#FFFFFF" stroke="#84D2E4" stroke-miterlimit="10" width="35.9" height="138.4"/>
<rect x="9.1" y="431.7" fill="#FFFFFF" stroke="#84D2E4" stroke-miterlimit="10" width="35.9" height="141.4"/>
<rect x="63.1" y="431.7" fill="#FFFFFF" stroke="#84D2E4" stroke-miterlimit="10" width="149.5" height="59.1"/>
<rect x="63.1" y="507.4" fill="#FFFFFF" stroke="#84D2E4" stroke-miterlimit="10" width="149.5" height="65.1"/>
<rect x="228.1" y="507.4" fill="#FFFFFF" stroke="#84D2E4" stroke-miterlimit="10" width="136.4" height="65.1"/>
<rect x="381.2" y="507.4" fill="#FFFFFF" stroke="#84D2E4" stroke-miterlimit="10" width="139.9" height="64.6"/>
<path fill="#3E354E" d="M497.1,313.1c9.3,0,16.8,9.3,16.8,20.8s-16.8,38.4-16.8,38.4s-16.8-26.9-16.8-38.4S487.9,313.1,497.1,313.1z
	"/>
<rect x="9.9" y="222.1" fill="#FFFFFF" stroke="#84D2E4" stroke-miterlimit="10" width="35.5" height="36.9"/>
<rect x="62.9" y="222.1" fill="#FFFFFF" stroke="#84D2E4" stroke-miterlimit="10" width="302" height="36.9"/>
<rect x="381" y="222.1" fill="#FFFFFF" stroke="#84D2E4" stroke-miterlimit="10" width="140.1" height="36.9"/>
<rect x="539.6" y="222.1" fill="#FFFFFF" stroke="#84D2E4" stroke-miterlimit="10" width="66.2" height="36.9"/>
<rect x="381.2" y="431.7" fill="#FFFFFF" stroke="#84D2E4" stroke-miterlimit="10" width="139.9" height="59.1"/>
<rect x="228.7" y="431.7" fill="#FFFFFF" stroke="#84D2E4" stroke-miterlimit="10" width="136.3" height="59.1"/>
<rect x="539.8" y="431.7" fill="#FFFFFF" stroke="#84D2E4" stroke-miterlimit="10" width="66" height="59.1"/>
<rect x="539.8" y="507.9" fill="#FFFFFF" stroke="#84D2E4" stroke-miterlimit="10" width="66" height="64.6"/>
<rect x="405.8" y="380.1" fill="none" width="133.3" height="33.3"/>
<g enable-background="new    ">
	<path fill="#84D2E4" d="M407.5,392.7v-10.8c-0.2,0.1-0.5,0.3-0.7,0.4s-0.5,0.2-0.7,0.2v-1.1c0.3-0.1,0.6-0.3,0.9-0.5
		c0.3-0.2,0.6-0.5,0.8-0.9h0.8v12.6H407.5z"/>
	<path fill="#84D2E4" d="M410.1,392.7v-0.9l3.4-5.1c0.2-0.3,0.4-0.5,0.5-0.7c0.1-0.2,0.3-0.5,0.4-0.8c0.2-0.3,0.3-0.6,0.4-0.9
		c0.1-0.3,0.1-0.6,0.1-0.8c0-0.8-0.1-1.4-0.4-1.9c-0.3-0.5-0.7-0.7-1.3-0.7c-0.3,0-0.6,0.1-0.9,0.2c-0.2,0.1-0.4,0.3-0.6,0.4
		c-0.1,0.2-0.2,0.4-0.3,0.7c-0.1,0.3-0.1,0.5-0.2,0.8c0,0.3,0,0.6,0,0.9h-1.1v-0.2c0-2.5,1.1-3.7,3.1-3.7c0.9,0,1.6,0.3,2.1,0.9
		c0.5,0.6,0.7,1.5,0.7,2.5c0,0.5-0.1,1.1-0.4,1.7c-0.3,0.6-0.6,1.2-1,1.8l-3.2,4.9h4.4v0.9H410.1z"/>
	<path fill="#84D2E4" d="M417,389.8v-0.2h1c0,0.5,0.1,0.9,0.1,1.2c0.1,0.3,0.2,0.6,0.4,0.7c0.2,0.2,0.4,0.3,0.6,0.3
		c0.2,0.1,0.5,0.1,0.8,0.1c0.3,0,0.5,0,0.7-0.1c0.2-0.1,0.4-0.2,0.5-0.4c0.2-0.2,0.3-0.5,0.3-0.8c0.1-0.4,0.1-0.8,0.1-1.3
		c0-0.4,0-0.8-0.1-1.1c-0.1-0.3-0.2-0.6-0.3-0.9s-0.3-0.5-0.6-0.6s-0.5-0.2-0.9-0.3v-0.9c0.7,0,1.2-0.2,1.5-0.6
		c0.3-0.4,0.4-1,0.4-1.9c0-0.8-0.1-1.4-0.4-1.7c-0.3-0.3-0.7-0.5-1.3-0.5c-0.6,0-1,0.2-1.3,0.6c-0.3,0.4-0.5,1-0.5,1.8h-1V383
		c0-0.4,0.1-0.8,0.2-1.2c0.1-0.4,0.3-0.7,0.5-1s0.5-0.5,0.9-0.7s0.8-0.3,1.4-0.3c0.4,0,0.8,0.1,1.1,0.2c0.3,0.1,0.6,0.3,0.8,0.5
		c0.2,0.2,0.4,0.4,0.5,0.7c0.1,0.3,0.2,0.6,0.3,0.9c0.1,0.3,0.1,0.6,0.1,0.9c0,0.8-0.2,1.5-0.5,2s-0.7,0.8-1.2,1
		c1.1,0.5,1.7,1.5,1.7,3.3c0,2.4-1,3.6-2.9,3.6c-0.4,0-0.8-0.1-1.1-0.2c-0.3-0.1-0.6-0.3-0.8-0.5c-0.2-0.2-0.4-0.4-0.5-0.7
		s-0.2-0.5-0.3-0.8C417,390.4,417,390.1,417,389.8z"/>
	<path fill="#84D2E4" d="M424.1,389.8v-0.2h1c0,0.5,0.1,0.9,0.1,1.2c0.1,0.3,0.2,0.6,0.4,0.7c0.2,0.2,0.3,0.3,0.5,0.3
		c0.2,0.1,0.4,0.1,0.7,0.1c0.3,0,0.5,0,0.7-0.1s0.4-0.2,0.5-0.4c0.1-0.2,0.3-0.5,0.3-0.8c0.1-0.4,0.1-0.8,0.1-1.3v-2.4
		c-0.5,0.2-1.1,0.3-1.8,0.3c-0.5,0-1-0.1-1.3-0.3c-0.4-0.2-0.7-0.4-0.9-0.8c-0.2-0.3-0.4-0.7-0.5-1.1s-0.2-0.9-0.2-1.4
		c0-0.5,0.1-1,0.2-1.5c0.1-0.4,0.3-0.8,0.5-1.2c0.2-0.3,0.5-0.6,0.9-0.8c0.4-0.2,0.8-0.3,1.4-0.3c1,0,1.7,0.3,2.2,1
		c0.5,0.6,0.7,1.6,0.7,2.8v5.6c0,2.4-0.9,3.6-2.8,3.6c-0.5,0-0.9-0.1-1.3-0.3c-0.4-0.2-0.6-0.4-0.8-0.7s-0.4-0.6-0.4-1
		C424.2,390.6,424.1,390.2,424.1,389.8z M428.5,386v-2.3c0-0.5,0-0.9-0.1-1.2c0-0.3-0.1-0.6-0.2-0.9c-0.1-0.2-0.2-0.4-0.4-0.5
		c-0.1-0.1-0.3-0.2-0.5-0.3c-0.2-0.1-0.4-0.1-0.6-0.1c-0.7,0-1.1,0.2-1.4,0.6s-0.4,1.1-0.4,2.2c0,1,0.1,1.7,0.4,2.1s0.7,0.6,1.4,0.6
		c0.3,0,0.7,0,1-0.1C428.1,386.2,428.4,386.1,428.5,386z"/>
	<path fill="#84D2E4" d="M434.5,392.7v-12.6h2.7c0.4,0,0.8,0.1,1.2,0.2s0.6,0.3,0.8,0.5c0.2,0.2,0.4,0.4,0.5,0.7s0.2,0.6,0.3,0.9
		c0.1,0.3,0.1,0.6,0.1,0.9c0,0.5-0.1,1-0.4,1.5c-0.2,0.5-0.6,0.8-1,1c0.3,0.1,0.6,0.3,0.8,0.5c0.2,0.2,0.4,0.5,0.5,0.8
		c0.1,0.3,0.2,0.6,0.3,0.9c0.1,0.3,0.1,0.6,0.1,0.9c0,0.4,0,0.8-0.1,1.2c0,0.3-0.1,0.7-0.2,1c-0.1,0.3-0.3,0.6-0.5,0.8
		c-0.2,0.2-0.5,0.4-0.8,0.5c-0.4,0.1-0.8,0.2-1.2,0.2H434.5z M435.6,385.5h1.8c0.3,0,0.5-0.1,0.7-0.2c0.2-0.1,0.3-0.3,0.5-0.5
		c0.1-0.2,0.2-0.4,0.2-0.7c0-0.2,0.1-0.5,0.1-0.8c0-1.6-0.6-2.4-1.8-2.4h-1.4V385.5z M435.6,391.8h2c0.3,0,0.5-0.1,0.7-0.2
		s0.3-0.2,0.5-0.4c0.1-0.2,0.2-0.4,0.3-0.6c0.1-0.3,0.1-0.5,0.1-0.8c0-0.3,0-0.6,0-0.9c0-0.3,0-0.6,0-0.8c0-0.2-0.1-0.5-0.1-0.7
		c-0.1-0.2-0.2-0.4-0.3-0.6s-0.3-0.3-0.5-0.4c-0.2-0.1-0.4-0.1-0.7-0.1h-2V391.8z"/>
	<path fill="#84D2E4" d="M444.3,389.6l1-0.3c0,0.4,0.1,0.7,0.2,1c0.1,0.3,0.2,0.6,0.4,0.8c0.2,0.3,0.4,0.5,0.7,0.6
		c0.3,0.1,0.6,0.2,1,0.2c0.6,0,1-0.2,1.3-0.5c0.3-0.3,0.5-0.8,0.5-1.3c0-0.5-0.1-0.9-0.4-1.4c-0.3-0.4-0.7-1-1.3-1.5l-2-2.1
		c-0.4-0.5-0.8-0.9-1-1.3s-0.3-0.8-0.3-1.2c0-0.8,0.3-1.5,0.8-2s1.2-0.7,2.1-0.7c0.8,0,1.5,0.2,2,0.7c0.5,0.5,0.8,1.1,1,2l0,0.1
		l-0.9,0.3l0-0.1c-0.1-0.6-0.3-1.1-0.7-1.5c-0.4-0.4-0.8-0.6-1.4-0.6c-0.6,0-1,0.1-1.3,0.4s-0.5,0.7-0.5,1.2c0,0.3,0.1,0.7,0.3,1
		c0.2,0.3,0.4,0.7,0.8,1l1.8,2c0,0.1,0.2,0.2,0.4,0.4c0.2,0.2,0.3,0.4,0.4,0.4c0.1,0.1,0.2,0.2,0.3,0.4c0.2,0.2,0.3,0.3,0.3,0.4
		c0.1,0.1,0.1,0.2,0.3,0.4c0.1,0.2,0.2,0.3,0.2,0.5c0,0.1,0.1,0.3,0.1,0.5s0.1,0.4,0.1,0.5c0,0.9-0.3,1.6-0.8,2.1
		c-0.6,0.5-1.3,0.7-2.1,0.7c-0.4,0-0.9-0.1-1.2-0.3c-0.4-0.2-0.7-0.4-0.9-0.7c-0.2-0.3-0.5-0.6-0.6-1S444.4,390.1,444.3,389.6z"/>
	<path fill="#84D2E4" d="M451.9,390.6v-6.1h-1.2v-0.6h1.2v-3.1h1.1v3.1h1.4v0.6H453v6c0,0.2,0,0.4,0,0.5c0,0.1,0,0.2,0,0.4
		s0.1,0.2,0.1,0.3c0.1,0.1,0.1,0.1,0.2,0.2s0.2,0.1,0.4,0.1c0.2,0,0.5,0,0.6-0.1v0.8c-0.3,0.1-0.6,0.1-0.9,0.1c-0.3,0-0.5,0-0.7-0.1
		c-0.2-0.1-0.3-0.2-0.4-0.3c-0.1-0.1-0.2-0.3-0.2-0.5c-0.1-0.2-0.1-0.4-0.1-0.6C451.9,391.1,451.9,390.8,451.9,390.6z"/>
	<path fill="#84D2E4" d="M455.6,392.7v-8.7h1.1v1.2c0.1-0.5,0.4-0.8,0.7-1c0.4-0.2,0.7-0.3,1.1-0.4v1.1c-0.1,0-0.1,0-0.2,0
		c-1.1,0-1.7,0.4-1.7,1.3v6.5H455.6z"/>
	<path fill="#84D2E4" d="M459.2,388.6v-1.2c0-0.6,0-1.1,0.1-1.6c0.1-0.4,0.2-0.8,0.3-1.1s0.3-0.5,0.5-0.6s0.4-0.3,0.7-0.3
		c0.2-0.1,0.5-0.1,0.8-0.1c0.8,0,1.3,0.3,1.7,0.8s0.5,1.4,0.5,2.6c0,0.4,0,0.7,0,0.9h-3.5v1.3c0,0.6,0,1,0.1,1.4
		c0.1,0.4,0.1,0.6,0.3,0.8c0.1,0.2,0.3,0.3,0.4,0.4c0.1,0.1,0.3,0.1,0.6,0.1c0.3,0,0.6-0.2,0.8-0.5s0.3-0.9,0.3-1.6h1
		c0,0.3-0.1,0.6-0.1,0.9s-0.1,0.5-0.2,0.8c-0.1,0.3-0.2,0.5-0.4,0.6s-0.4,0.3-0.6,0.4c-0.2,0.1-0.5,0.2-0.8,0.2
		c-0.6,0-1.1-0.1-1.4-0.4c-0.3-0.2-0.6-0.7-0.8-1.3C459.3,390.6,459.2,389.7,459.2,388.6z M460.4,387.5h2.4c0-0.2,0-0.4,0-0.6
		s0-0.4,0-0.6c0-0.2,0-0.4,0-0.6c0-0.2-0.1-0.4-0.1-0.5c0-0.2-0.1-0.3-0.2-0.4s-0.2-0.2-0.3-0.3c-0.1-0.1-0.3-0.1-0.4-0.1
		c-0.3,0-0.5,0-0.7,0.1s-0.3,0.2-0.4,0.3c-0.1,0.1-0.2,0.4-0.2,0.7c0,0.3-0.1,0.6-0.1,0.8C460.4,386.7,460.4,387,460.4,387.5z"/>
	<path fill="#84D2E4" d="M465.3,388.6v-1.2c0-0.6,0-1.1,0.1-1.6c0.1-0.4,0.2-0.8,0.3-1.1s0.3-0.5,0.5-0.6s0.4-0.3,0.7-0.3
		c0.2-0.1,0.5-0.1,0.8-0.1c0.8,0,1.3,0.3,1.7,0.8s0.5,1.4,0.5,2.6c0,0.4,0,0.7,0,0.9h-3.5v1.3c0,0.6,0,1,0.1,1.4
		c0.1,0.4,0.1,0.6,0.3,0.8c0.1,0.2,0.3,0.3,0.4,0.4c0.1,0.1,0.3,0.1,0.6,0.1c0.3,0,0.6-0.2,0.8-0.5s0.3-0.9,0.3-1.6h1
		c0,0.3-0.1,0.6-0.1,0.9s-0.1,0.5-0.2,0.8c-0.1,0.3-0.2,0.5-0.4,0.6s-0.4,0.3-0.6,0.4c-0.2,0.1-0.5,0.2-0.8,0.2
		c-0.6,0-1.1-0.1-1.4-0.4c-0.3-0.2-0.6-0.7-0.8-1.3C465.4,390.6,465.3,389.7,465.3,388.6z M466.4,387.5h2.4c0-0.2,0-0.4,0-0.6
		s0-0.4,0-0.6c0-0.2,0-0.4,0-0.6c0-0.2-0.1-0.4-0.1-0.5c0-0.2-0.1-0.3-0.2-0.4s-0.2-0.2-0.3-0.3c-0.1-0.1-0.3-0.1-0.4-0.1
		c-0.3,0-0.5,0-0.7,0.1s-0.3,0.2-0.4,0.3c-0.1,0.1-0.2,0.4-0.2,0.7c0,0.3-0.1,0.6-0.1,0.8C466.4,386.7,466.4,387,466.4,387.5z"/>
	<path fill="#84D2E4" d="M471.8,390.6v-6.1h-1.2v-0.6h1.2v-3.1h1.1v3.1h1.4v0.6h-1.4v6c0,0.2,0,0.4,0,0.5c0,0.1,0,0.2,0,0.4
		s0.1,0.2,0.1,0.3c0.1,0.1,0.1,0.1,0.2,0.2s0.2,0.1,0.4,0.1c0.2,0,0.5,0,0.6-0.1v0.8c-0.3,0.1-0.6,0.1-0.9,0.1c-0.3,0-0.5,0-0.7-0.1
		c-0.2-0.1-0.3-0.2-0.4-0.3c-0.1-0.1-0.2-0.3-0.2-0.5c-0.1-0.2-0.1-0.4-0.1-0.6C471.8,391.1,471.8,390.8,471.8,390.6z"/>
</g>
</svg>
